<svg width="137" height="154" viewBox="0 0 137 154" fill="none" xmlns="http://www.w3.org/2000/svg">
<path fill-rule="evenodd" clip-rule="evenodd" d="M28.9129 36.6549C23.4429 42.3149 15.9129 49.8149 12.4629 56.6549C3.4629 74.2449 -5.21708 104.345 8.80292 121.815C19.5529 135.215 33.8729 127.445 48.3029 129.565C54.2329 130.435 60.4929 131.515 66.0029 133.945C83.4729 141.655 97.5729 151.635 115.313 137.085C131.863 123.505 140.013 85.5249 126.503 67.4349C119.503 58.1249 108.353 55.5649 99.773 48.3149C85.933 36.6049 80.6829 8.31493 56.2929 16.8249C52.3793 18.2614 48.6788 20.2226 45.2929 22.6549C39.435 26.8349 33.9541 31.5194 28.9129 36.6549Z" fill="#FDD504" fill-opacity="0.12"/>
<path fill-rule="evenodd" clip-rule="evenodd" d="M107.203 88.9549C108.253 87.5871 109.776 86.66 111.473 86.3548C113.127 86.3243 114.728 86.9416 115.933 88.0748C117.617 89.5179 119.17 91.1074 120.573 92.8248C122.241 94.8876 124.103 96.7863 126.133 98.4949C127.486 99.646 129.179 100.321 130.953 100.415C131.968 100.381 132.966 100.14 133.886 99.709C134.805 99.2775 135.628 98.6637 136.303 97.9049L135.133 96.7049C134.606 97.2964 133.967 97.7776 133.253 98.1209C132.539 98.4642 131.764 98.6626 130.973 98.7049C129.558 98.6044 128.213 98.0463 127.143 97.1149C125.205 95.4769 123.43 93.6551 121.843 91.6749C120.126 89.5261 118.139 87.607 115.933 85.9649C114.59 85.0081 112.959 84.542 111.313 84.6449C109.623 84.8149 107.843 85.7248 105.963 87.7848L107.203 88.9549Z" fill="#F56C2C"/>
<path fill-rule="evenodd" clip-rule="evenodd" d="M36.4229 85.6849C34.9829 81.1249 30.6629 79.1949 26.1229 80.6349C22.9429 81.6349 19.4029 83.5749 16.0029 84.3349C12.8929 85.0249 9.90293 84.6749 7.50293 81.3349L6.14294 82.3349C9.03294 86.3349 12.6229 86.8149 16.3629 85.9849C19.8129 85.2149 23.3629 83.2649 26.6329 82.2449C30.2329 81.1049 33.6829 82.5849 34.8229 86.2449L36.4229 85.6849Z" fill="#F56C2C"/>
<path fill-rule="evenodd" clip-rule="evenodd" d="M79.7629 122.205C80.3136 122.07 80.8858 122.05 81.4447 122.144C82.0036 122.239 82.5373 122.447 83.0129 122.755C84.1029 123.635 84.3029 125.315 84.0129 127.335C83.5395 129.81 83.315 132.326 83.3429 134.845C83.4729 137.275 84.1729 139.435 85.8629 140.845C87.2838 141.911 89.0282 142.454 90.8029 142.385V140.705C89.4094 140.768 88.0354 140.359 86.9029 139.545C85.5629 138.455 85.1029 136.705 85.0029 134.785C84.975 132.383 85.1895 129.984 85.6429 127.625C86.0829 124.895 85.5629 122.625 84.0729 121.475C83.4215 121.015 82.6807 120.697 81.8986 120.542C81.1164 120.387 80.3105 120.398 79.5329 120.575L79.7629 122.205Z" fill="#F56C2C"/>
<path fill-rule="evenodd" clip-rule="evenodd" d="M93.3529 31.3849C92.651 28.7016 92.431 25.9151 92.7029 23.1549C92.837 21.8665 93.2796 20.6294 93.9933 19.5484C94.707 18.4674 95.6708 17.5744 96.8029 16.9449C98.59 16.0571 100.502 15.4467 102.473 15.1349C104.694 14.7458 106.768 13.7608 108.473 12.2849L107.333 11.0449C105.856 12.3219 104.058 13.1693 102.133 13.4949C100.007 13.8509 97.9476 14.5251 96.0229 15.4949C94.6644 16.247 93.5065 17.3145 92.6468 18.6075C91.7871 19.9006 91.2508 21.3813 91.0829 22.9249C90.7817 25.888 91.0085 28.8811 91.7529 31.7649L93.3529 31.3849Z" fill="#F56C2C"/>
<path fill-rule="evenodd" clip-rule="evenodd" d="M34.6429 88.4949C33.6405 87.1984 32.232 86.2758 30.6429 85.8749C28.5591 85.5615 26.4318 86.0012 24.6429 87.1149C23.1029 87.9249 21.5429 88.9649 19.9929 89.8749C18.6816 90.7282 17.2237 91.3317 15.6929 91.6549L15.9429 93.3149C19.0729 92.8449 22.2729 90.2449 25.4229 88.6049C26.8682 87.6725 28.5973 87.2827 30.3029 87.5049C31.5352 87.8361 32.6223 88.5679 33.3929 89.5849L34.6429 88.4949Z" fill="#FBBF24"/>
<path fill-rule="evenodd" clip-rule="evenodd" d="M95.7229 28.8149C96.5029 25.5149 98.7229 24.1649 101.423 23.2849C104.423 22.2849 107.903 21.8949 110.783 20.4949L110.043 18.9849C107.233 20.3549 103.823 20.7449 100.903 21.6949C97.6729 22.6949 95.0229 24.4449 94.0929 28.4249L95.7229 28.8149Z" fill="#FBBF24"/>
<path fill-rule="evenodd" clip-rule="evenodd" d="M84.4929 120.635C85.6167 121.545 86.4479 122.766 86.8829 124.145C87.4629 125.675 87.8229 127.355 88.2729 128.885C88.8729 130.945 89.6529 132.735 91.0729 133.735C92.2915 134.533 93.776 134.817 95.2029 134.525L94.9729 132.865C93.9672 133.086 92.9147 132.903 92.0429 132.355C90.9029 131.555 90.3629 130.065 89.8829 128.415C89.4029 126.765 89.0429 125.115 88.4529 123.555C87.9027 121.861 86.8579 120.37 85.4529 119.275L84.4929 120.635Z" fill="#FBBF24"/>
<path fill-rule="evenodd" clip-rule="evenodd" d="M5.9129 66.1049C6.7929 67.2849 7.51292 68.585 8.37292 69.785L9.74292 68.785C8.87292 67.575 8.14293 66.275 7.25293 65.085L5.9129 66.1049Z" fill="#FBBF24"/>
<path fill-rule="evenodd" clip-rule="evenodd" d="M6.68292 70.685C7.89984 68.9109 9.3802 67.3327 11.0729 66.005L10.0029 64.705C8.19068 66.1256 6.60283 67.8112 5.29291 69.705L6.68292 70.685Z" fill="#FBBF24"/>
<path fill-rule="evenodd" clip-rule="evenodd" d="M134.283 112.045C132.963 114.195 131.423 116.175 130.053 118.295L131.493 119.205C132.853 117.075 134.403 115.085 135.743 112.925L134.283 112.045Z" fill="#FBBF24"/>
<path fill-rule="evenodd" clip-rule="evenodd" d="M130.673 114.425C132.363 115.425 133.853 116.685 135.503 117.765L136.423 116.365C134.763 115.275 133.263 114.055 131.563 112.995L130.673 114.425Z" fill="#FBBF24"/>
<path fill-rule="evenodd" clip-rule="evenodd" d="M53.4929 14.095C53.4795 16.7057 53.6365 19.3146 53.9629 21.905L55.6229 21.675C55.3078 19.1575 55.1575 16.6221 55.1729 14.085L53.4929 14.095Z" fill="#FFBA16"/>
<path fill-rule="evenodd" clip-rule="evenodd" d="M7.13293 119.605C9.04293 117.945 8.99289 118.025 10.9629 116.525L9.96289 115.185C8.59909 116.166 7.28732 117.217 6.0329 118.335L7.13293 119.605Z" fill="#FFBA16"/>
<path fill-rule="evenodd" clip-rule="evenodd" d="M121.793 75.1249C124.931 73.1207 128.217 71.3589 131.623 69.8549L130.993 68.2949C127.507 69.8328 124.144 71.6348 120.933 73.6849L121.793 75.1249Z" fill="#FFBA16"/>
<path d="M66.3029 104.685C78.9558 104.685 89.213 94.4277 89.213 81.7749C89.213 69.122 78.9558 58.8649 66.3029 58.8649C53.6501 58.8649 43.3929 69.122 43.3929 81.7749C43.3929 94.4277 53.6501 104.685 66.3029 104.685Z" fill="#279FF2"/>
<path d="M57.9029 57.4049C48.0129 46.5549 35.1429 34.0549 25.3429 26.4949C21.4029 23.4949 16.0729 19.3749 10.8529 18.9549C6.77288 18.6249 7.57291 25.0349 8.32291 27.4249C10.4429 34.1449 15.3229 40.6649 19.7429 46.0949" stroke="#B5B5C4" stroke-width="0.69" stroke-linecap="round" stroke-linejoin="round"/>
<path d="M33.6129 61.8749C49.5329 79.3949 66.8429 95.0649 86.6129 111.415C90.7429 114.825 99.7129 121.815 105.783 125.065C111.853 128.315 123.693 132.165 118.423 120.655C116.384 116.592 113.789 112.833 110.713 109.485C106.103 105.025 101.363 100.195 93.6329 93.7249" stroke="#B5B5C4" stroke-width="0.69" stroke-linecap="round" stroke-linejoin="round"/>
<path d="M64.4929 55.1049C65.0829 41.3949 67.0129 21.7749 70.6129 8.52491C70.9367 7.36006 71.3274 6.21482 71.7829 5.0949C73.4529 0.904901 76.8929 -1.2051 78.2029 4.3949C79.1886 9.17952 79.6214 14.0615 79.4929 18.9449" stroke="#B5B5C4" stroke-width="0.69" stroke-linecap="round" stroke-linejoin="round"/>
<path d="M79.4929 37.6749C78.0472 66.8617 75.1167 95.9561 70.7129 124.845C69.7129 130.965 67.0829 152.735 62.8729 152.425C58.0029 152.055 56.5129 140.305 55.7929 132.755C54.8529 122.805 55.4429 113.485 55.7929 106.885" stroke="#B5B5C4" stroke-width="0.69" stroke-linecap="round" stroke-linejoin="round"/>
<path d="M43.3029 94.3149C39.9729 98.1849 35.6229 103.135 33.6429 105.975C32.3529 107.815 30.9629 109.575 29.6429 111.375C28.3229 113.175 27.0729 114.785 25.8629 116.545C24.8829 117.958 23.9595 119.402 23.0929 120.875C21.0929 124.235 10.6829 140.365 23.9629 139.365" stroke="#B5B5C4" stroke-width="0.69" stroke-linecap="round" stroke-linejoin="round"/>
<path d="M41.8629 131.265C68.2229 107.195 94.5229 81.2649 116.353 52.9749C118.903 49.6649 121.283 46.2849 123.553 42.7849C125.103 40.3949 126.553 37.9749 128.013 35.5149C131.093 30.2149 135.183 21.5949 124.533 22.7449C122.964 22.936 121.432 23.3537 119.983 23.9849C108.863 28.5949 92.3229 42.6949 83.3929 50.6349" stroke="#B5B5C4" stroke-width="0.69" stroke-linecap="round" stroke-linejoin="round"/>
<path d="M79.2629 34.2249C82.5546 34.2249 85.223 31.5566 85.223 28.2649C85.223 24.9733 82.5546 22.3049 79.2629 22.3049C75.9713 22.3049 73.3029 24.9733 73.3029 28.2649C73.3029 31.5566 75.9713 34.2249 79.2629 34.2249Z" fill="#FBBF24"/>
<path d="M32.2329 140.785C35.5245 140.785 38.1929 138.116 38.1929 134.825C38.1929 131.533 35.5245 128.865 32.2329 128.865C28.9413 128.865 26.2729 131.533 26.2729 134.825C26.2729 138.116 28.9413 140.785 32.2329 140.785Z" fill="#FBBF24"/>
<path d="M26.2729 58.8649C29.5646 58.8649 32.2329 56.1966 32.2329 52.9049C32.2329 49.6133 29.5646 46.9449 26.2729 46.9449C22.9813 46.9449 20.3129 49.6133 20.3129 52.9049C20.3129 56.1966 22.9813 58.8649 26.2729 58.8649Z" fill="#FBBF24"/>
<path fill-rule="evenodd" clip-rule="evenodd" d="M43.6029 76.6449C39.7529 91.5249 51.1729 106.195 66.9829 104.525L66.8029 102.865C52.2029 104.405 41.6729 90.8149 45.2229 77.0649L43.6029 76.6449Z" fill="black"/>
<path fill-rule="evenodd" clip-rule="evenodd" d="M20.1529 50.6449C18.9229 56.7849 26.0829 63.1149 31.3729 57.7649C32.2755 56.6891 32.8821 55.3966 33.1329 54.0149L31.4929 53.6049C31.3276 54.7045 30.8719 55.7401 30.1729 56.6049C26.1729 60.6649 20.8529 55.6549 21.7929 50.9949L20.1529 50.6449Z" fill="black"/>
<path fill-rule="evenodd" clip-rule="evenodd" d="M26.0029 132.045C25.5448 133.591 25.5102 135.231 25.9029 136.795C26.1584 137.736 26.6216 138.609 27.2584 139.347C27.8953 140.086 28.6896 140.673 29.583 141.065C33.203 142.555 38.023 140.135 39.143 135.525L37.513 135.125C36.653 138.675 33.0029 140.655 30.2229 139.515C29.5567 139.212 28.9667 138.763 28.4961 138.203C28.0255 137.642 27.6862 136.984 27.5029 136.275C27.2005 135.01 27.2454 133.687 27.633 132.445L26.0029 132.045Z" fill="black"/>
<path fill-rule="evenodd" clip-rule="evenodd" d="M74.1229 23.8949C73.2521 25.0114 72.7521 26.3723 72.6929 27.787C72.6338 29.2017 73.0184 30.5996 73.7929 31.7849C74.5867 32.9643 75.7372 33.8588 77.0759 34.3374C78.4146 34.816 79.8713 34.8537 81.2329 34.4449C82.6773 33.9426 83.9475 33.0368 84.893 31.8349L83.6029 30.7649C82.8863 31.7057 81.9144 32.4208 80.8029 32.8249C79.777 33.1372 78.6778 33.1114 77.6677 32.7513C76.6575 32.3912 75.7899 31.7158 75.1929 30.8249C74.6061 29.9212 74.3174 28.8562 74.3676 27.7798C74.4179 26.7035 74.8044 25.67 75.4729 24.8249L74.1229 23.8949Z" fill="black"/>
<path fill-rule="evenodd" clip-rule="evenodd" d="M31.5929 62.7649C36.5929 68.3249 41.2929 74.2149 46.4929 79.6249C55.0792 88.334 64.2145 96.484 73.8429 104.025C80.0529 109.025 86.2329 114.265 93.1429 118.255L93.9829 116.805C87.1429 112.805 81.0429 107.645 74.8929 102.715C65.3204 95.2212 56.2385 87.1213 47.7029 78.4649C42.5129 73.0649 37.8529 67.1849 32.8429 61.6349L31.5929 62.7649Z" fill="black"/>
<path fill-rule="evenodd" clip-rule="evenodd" d="M77.0629 40.2048C75.9129 51.4248 74.6129 62.8048 73.9629 74.0648C73.5529 81.0648 73.8429 88.5348 72.7229 95.4948L74.3829 95.7648C75.5129 88.7648 75.2329 81.2548 75.6329 74.1548C76.2829 62.9248 77.6329 51.5748 78.7229 40.3748L77.0629 40.2048Z" fill="black"/>
<path fill-rule="evenodd" clip-rule="evenodd" d="M6.5529 18.0349C4.6429 23.8649 5.88291 29.2549 8.43291 34.2549C10.9829 39.2549 14.6229 43.6149 17.7829 47.8249L19.1229 46.8249C16.0229 42.6849 12.3529 38.2749 9.93291 33.5049C7.58291 28.8949 6.38293 23.9349 8.14293 18.5649L6.5529 18.0349Z" fill="black"/>
<path fill-rule="evenodd" clip-rule="evenodd" d="M91.5729 95.0549C99.0929 101.585 107.693 108.895 113.453 117.055C114.805 118.755 115.987 120.584 116.983 122.515C117.27 123.033 117.452 123.603 117.517 124.192C117.583 124.781 117.53 125.376 117.363 125.945L118.923 126.565C119.173 125.789 119.267 124.972 119.198 124.16C119.13 123.348 118.9 122.557 118.523 121.835C117.483 119.803 116.244 117.881 114.823 116.095C108.993 107.765 100.293 100.355 92.6729 93.7349L91.5729 95.0549Z" fill="black"/>
<path fill-rule="evenodd" clip-rule="evenodd" d="M12.5829 22.7949C18.8429 24.2549 24.2729 29.3249 29.0629 33.4149C38.5095 41.4084 47.5476 49.8725 56.1429 58.7749L57.3529 57.6149C48.72 48.67 39.6418 40.1659 30.1529 32.1349C25.1529 27.8749 19.4829 22.6749 12.9629 21.1349L12.5829 22.7949Z" fill="black"/>
<path fill-rule="evenodd" clip-rule="evenodd" d="M21.9529 117.495C18.8029 122.265 15.0929 128.375 14.7329 134.235C14.6005 135.491 14.792 136.759 15.2891 137.92C15.7863 139.081 16.5726 140.094 17.5729 140.865C18.6007 141.588 19.7783 142.069 21.018 142.273C22.2577 142.478 23.5276 142.4 24.7329 142.045L24.3129 140.425C23.3508 140.713 22.3361 140.781 21.3441 140.623C20.3522 140.466 19.4085 140.087 18.5829 139.515C17.8089 138.908 17.2025 138.114 16.821 137.208C16.4395 136.301 16.2956 135.312 16.4029 134.335C16.7529 128.755 20.4029 122.965 23.4029 118.425L21.9529 117.495Z" fill="black"/>
<path fill-rule="evenodd" clip-rule="evenodd" d="M43.0529 133.645C53.5129 125.715 62.3129 115.645 71.8029 106.645L70.6429 105.425C61.2029 114.425 52.4529 124.425 42.0329 132.325L43.0529 133.645Z" fill="black"/>
<path fill-rule="evenodd" clip-rule="evenodd" d="M79.1129 99.2049C82.5529 95.2949 86.5029 91.8549 89.9429 87.9449C100.863 75.5449 111.513 63.0949 121.383 49.8349C124.183 46.0749 127.183 42.4949 129.683 38.5149L128.263 37.6149C125.783 41.6149 122.813 45.1049 120.033 48.8349C110.193 62.0549 99.5729 74.4649 88.6829 86.8349C85.2429 90.7449 81.2929 94.1849 77.8529 98.0949L79.1129 99.2049Z" fill="black"/>
<path fill-rule="evenodd" clip-rule="evenodd" d="M84.5629 52.8649C94.6329 44.1849 105.243 35.8049 116.563 28.8649C119.234 27.164 122.161 25.9046 125.233 25.1349C125.84 24.971 126.464 24.8804 127.093 24.8649C127.575 24.8587 128.043 25.0336 128.403 25.3549L129.553 24.1349C128.263 22.9149 126.463 23.1349 124.863 23.4949C121.612 24.3013 118.515 25.6321 115.693 27.4349C104.325 34.6014 93.5559 42.6779 83.4929 51.5849L84.5629 52.8649Z" fill="black"/>
<path fill-rule="evenodd" clip-rule="evenodd" d="M53.3829 106.205C52.8697 109.608 52.5359 113.036 52.3829 116.475H54.0629C54.2164 113.099 54.5502 109.735 55.0629 106.395L53.3829 106.205Z" fill="black"/>
<path fill-rule="evenodd" clip-rule="evenodd" d="M52.8529 126.025C52.4667 132.478 53.2286 138.948 55.1029 145.135C56.0229 148.275 57.8029 152.135 60.7029 153.955L61.5929 152.525C59.0229 150.925 57.5329 147.445 56.7129 144.665C54.8883 138.664 54.1368 132.387 54.4929 126.125L52.8529 126.025Z" fill="black"/>
<path fill-rule="evenodd" clip-rule="evenodd" d="M63.7129 151.025C65.7729 147.355 66.7129 143.135 67.6429 139.025C69.4629 130.745 70.2729 122.375 71.7629 114.025L70.1029 113.735C68.6229 122.055 67.8229 130.405 65.9929 138.665C65.1329 142.575 64.2229 146.665 62.2429 150.165L63.7129 151.025Z" fill="black"/>
<path fill-rule="evenodd" clip-rule="evenodd" d="M63.2329 56.2849C63.6329 50.6449 63.6229 44.9449 64.1029 39.2849C64.8163 32.0812 65.9516 24.9256 67.5029 17.8549C68.5629 12.6549 69.9029 6.44491 72.9129 1.97491L71.5229 1.03491C68.3929 5.68491 66.9529 12.1149 65.8529 17.5249C64.2959 24.6796 63.154 31.9184 62.4329 39.2049C61.9529 44.8449 61.9529 50.5449 61.5629 56.2049L63.2329 56.2849Z" fill="black"/>
<path fill-rule="evenodd" clip-rule="evenodd" d="M75.6029 4.02487C76.838 9.34449 77.3193 14.8113 77.0329 20.2649L78.7129 20.3149C79.0025 14.7064 78.5043 9.085 77.2329 3.61487L75.6029 4.02487Z" fill="black"/>
</svg>
