<svg width="171" height="153" viewBox="0 0 171 153" fill="none" xmlns="http://www.w3.org/2000/svg">
<path fill-rule="evenodd" clip-rule="evenodd" d="M85.0918 0L6.74019 36.398V148.571L85.0918 112.173V0Z" fill="#B9BBD3"/>
<path d="M49.9767 4.97253C50.1675 17.5152 49.1709 30.026 49.1815 42.5686C49.1815 57.1681 50.1676 71.8206 50.5705 86.4201C50.8249 95.6229 50.3054 104.9 51.1112 114.082" stroke="#D7DBEC" stroke-linejoin="round"/>
<path d="M60.876 11.9489C61.0138 44.9329 60.3352 77.9381 62.4133 110.869" stroke="#D7DBEC" stroke-linejoin="round"/>
<path d="M75.4861 21.8514C75.7829 32.0509 74.8499 42.1869 74.8287 52.3757C74.8287 71.5767 76.0692 90.8942 77.0976 110.063" stroke="#D7DBEC" stroke-linejoin="round"/>
<path d="M85.113 27.8949C85.6537 54.7401 83.7135 82.0731 85.8022 108.865" stroke="#D7DBEC" stroke-linejoin="round"/>
<path d="M97.7616 29.0612C98.4932 42.4626 97.7617 55.811 98.26 69.2018C99.0233 91.2335 100.38 113.255 101.218 135.297" stroke="#D7DBEC" stroke-linejoin="round"/>
<path d="M109.933 29.7185C110.601 44.2862 109.87 58.8327 110.156 73.4003C110.495 90.3642 112.117 107.169 112.647 124.08" stroke="#D7DBEC" stroke-linejoin="round"/>
<path d="M121.437 3.67908C122.052 39.7272 122.868 75.7222 123.886 111.664" stroke="#D7DBEC" stroke-linejoin="round"/>
<path d="M134.149 25.5305C135.676 59.0553 133.152 92.7602 134.796 126.253" stroke="#D7DBEC" stroke-linejoin="round"/>
<path d="M146.692 42.1869C147.264 58.2601 146.045 74.3439 146.246 90.4277C146.427 104.518 147.413 118.662 148.494 132.699" stroke="#D7DBEC" stroke-linejoin="round"/>
<path d="M34.2746 44.0211C73.0051 42.4732 111.958 40.8404 150.699 40.4481" stroke="#D7DBEC" stroke-linejoin="round"/>
<path d="M50.1887 58.6523C65.7848 59.5854 81.9959 57.7617 97.5602 57.062C119.062 56.0866 140.744 56.0972 162.235 55.7367" stroke="#D7DBEC" stroke-linejoin="round"/>
<path d="M36.5541 74.2166C44.0712 74.0152 51.5141 72.8807 59.0205 72.5627C77.246 71.7887 95.5033 71.2904 113.697 69.9545C128.54 68.8943 143.575 67.3145 158.524 67.2721" stroke="#D7DBEC" stroke-linejoin="round"/>
<path d="M38.7488 85.8794C58.236 84.8191 77.7231 84.3314 97.2315 83.8225C111.301 83.462 125.858 81.9353 139.896 82.5502" stroke="#D7DBEC" stroke-linejoin="round"/>
<path d="M45.3329 98.2099C55.3945 96.6301 65.7107 96.3438 75.8677 95.4956C104.579 93.1313 133.46 92.3679 162.235 91.1274" stroke="#D7DBEC" stroke-linejoin="round"/>
<path d="M84.8586 108.303C109.7 106.087 134.69 104.635 159.616 103.225" stroke="#D7DBEC" stroke-linejoin="round"/>
<path d="M93.5313 120.973C118.224 119.415 143.14 119.913 167.886 119.34" stroke="#D7DBEC" stroke-linejoin="round"/>
<path d="M30.6168 16.5079C29.6356 17.6031 28.9111 18.9035 28.4963 20.3142C25.0187 30.7152 36.3421 27.1633 41.6008 31.0756" stroke="#A14DF6" stroke-linejoin="round"/>
<path d="M96.6802 56.3941C96.1183 41.6356 108.682 50.5204 115.287 39.7378" stroke="#A14DF6" stroke-linejoin="round"/>
<path d="M112.828 50.2659C117.652 46.2476 124.66 48.1454 129.431 43.0563" stroke="#279FF2" stroke-linejoin="round"/>
<path d="M151.696 102.917C160.591 94.711 155.089 91.6364 156.891 81.7125" stroke="#279FF2" stroke-linejoin="round"/>
<path d="M39.0456 73.8562C35.303 84.0345 50.3265 82.5395 49.648 92.5694" stroke="#279FF2" stroke-linejoin="round"/>
<path d="M159.817 87.2364C159.951 86.1212 160.403 85.0679 161.119 84.203C161.835 83.338 162.786 82.6978 163.857 82.3593" stroke="#F56C2C" stroke-linejoin="round"/>
<path d="M36.6071 59.5961C37.0524 63.837 38.876 64.8018 42.9155 65.3319" stroke="#F56C2C" stroke-linejoin="round"/>
<path d="M112.902 65.035C110.887 71.0996 121.999 70.7921 122.37 76.4432" stroke="#F56C2C" stroke-linejoin="round"/>
<path d="M23.7676 61.8438C22.4423 66.0105 20.852 70.0818 19.5267 74.2379" stroke="#F56C2C" stroke-linejoin="round"/>
<path d="M16.5156 65.438C19.5796 66.9329 22.2408 69.1912 25.3261 70.6013" stroke="#F56C2C" stroke-linejoin="round"/>
<path d="M19.9719 62.3102C20.6201 65.6803 21.4447 69.014 22.4423 72.2976" stroke="#F56C2C" stroke-linejoin="round"/>
<path d="M16.8548 70.5589C20.7883 69.0216 24.5946 67.1768 28.4115 65.3638" stroke="#F56C2C" stroke-linejoin="round"/>
<path d="M123.971 1.45251C121.702 4.70745 119.263 7.9836 117.238 11.4082" stroke="#F56C2C" stroke-linejoin="round"/>
<path d="M115.16 3.39282C118.129 5.76776 121.013 8.3017 123.759 10.9205" stroke="#F56C2C" stroke-linejoin="round"/>
<path d="M119.815 2.3855C119.931 5.86308 120.101 9.37245 120.377 12.8394" stroke="#F56C2C" stroke-linejoin="round"/>
<path d="M114.948 8.42895C119.348 7.59136 123.801 6.76437 128.254 6.30847" stroke="#F56C2C" stroke-linejoin="round"/>
<path d="M69.0822 61.4089H58.0239V152.24H69.0822V61.4089Z" fill="black"/>
<path d="M116.825 91.4243H105.766V152.229H116.825V91.4243Z" fill="black"/>
<path d="M22.7074 117.421H11.6491V152.229H22.7074V117.421Z" fill="black"/>
<path d="M95.514 61.4089H64.4914V152.24H95.514V61.4089Z" fill="#ADDD1C"/>
<path d="M143.256 91.4243H112.234V152.229H143.256V91.4243Z" fill="#A14DF6"/>
<path d="M49.1391 117.421H18.1166V152.229H49.1391V117.421Z" fill="#279FF2"/>
<path fill-rule="evenodd" clip-rule="evenodd" d="M85.1236 64.77L85.5795 65.5228C86.979 67.7917 88.3679 70.0924 89.8204 72.3189C90.5308 73.3792 91.273 74.4394 92.0575 75.436L92.3862 75.1816C91.6228 74.185 90.9125 73.1353 90.2657 72.0645C88.8026 69.8274 87.4879 67.4736 86.0248 65.2896C85.8551 65.0351 85.6749 64.8018 85.4947 64.558L85.1236 64.77Z" fill="white"/>
<path fill-rule="evenodd" clip-rule="evenodd" d="M87.3819 63.9642C87.4091 64.0506 87.4409 64.1356 87.4774 64.2186C87.8627 64.8982 88.2949 65.55 88.7708 66.1695C89.6826 67.5054 90.6227 68.82 91.591 70.1135C91.8243 70.4422 92.0788 70.7603 92.3226 71.0784L92.6407 70.8451L87.6894 63.7733L87.3819 63.9642Z" fill="white"/>
<path fill-rule="evenodd" clip-rule="evenodd" d="M90.9549 65.6076C91.0291 65.756 91.0822 65.9045 91.1564 66.0423C91.2306 66.1801 91.4108 66.4451 91.5487 66.6466C91.8773 67.1449 92.2166 67.6326 92.6089 68.1203L92.9376 67.8871C92.4923 67.2298 92.0894 66.5512 91.6653 65.8832C91.5936 65.7661 91.5158 65.6528 91.432 65.544L91.3048 65.4061L90.9549 65.6076Z" fill="white"/>
<path fill-rule="evenodd" clip-rule="evenodd" d="M40.5618 120.623C40.9329 120.994 41.2828 121.387 41.6221 121.768C42.1628 122.341 42.6823 122.903 43.2124 123.497C44.0774 124.478 44.8811 125.512 45.6191 126.592L46.0008 126.338C45.2698 125.228 44.4695 124.166 43.6047 123.157C43.0852 122.553 42.5444 121.959 41.9825 121.408C41.6008 121.037 41.1979 120.698 40.795 120.348L40.5618 120.623Z" fill="white"/>
<path fill-rule="evenodd" clip-rule="evenodd" d="M44.262 120.814C44.3681 121.016 44.4741 121.228 44.5907 121.418C44.7073 121.609 44.8558 121.8 44.9936 121.98C45.4283 122.585 45.8842 123.168 46.3507 123.751L46.9444 124.483L47.2837 124.249C47.0398 123.857 46.7854 123.486 46.5097 123.115C46.075 122.511 45.6297 121.917 45.1738 121.344C44.9724 121.09 44.7603 120.857 44.5695 120.613L44.262 120.814Z" fill="white"/>
<path fill-rule="evenodd" clip-rule="evenodd" d="M131.138 100.564L131.255 100.754C131.361 100.871 131.488 100.977 131.604 101.094C133.152 102.578 134.616 104.126 136.11 105.642L137.393 106.893L137.722 106.554C136.238 105.091 134.849 103.543 133.386 102.08C132.877 101.571 132.378 101.02 131.827 100.595C131.736 100.509 131.636 100.431 131.53 100.362L131.382 100.288L131.138 100.564Z" fill="white"/>
<path fill-rule="evenodd" clip-rule="evenodd" d="M134.573 99.1959V99.3337C134.62 99.4189 134.673 99.5004 134.732 99.5776C135.04 100.044 135.389 100.479 135.729 100.913C136.535 101.974 137.362 102.917 138.22 103.893L138.867 104.614L139.196 104.338L138.422 103.363C137.362 102.08 136.301 100.818 135.305 99.5034C135.2 99.352 135.087 99.2069 134.965 99.0687L134.849 98.9839L134.573 99.1959Z" fill="white"/>
<path fill-rule="evenodd" clip-rule="evenodd" d="M0.802879 152.483C3.79674 152.728 6.80202 152.802 9.80429 152.706C11.2179 152.706 12.6316 152.653 14.0452 152.547C19.6221 152.24 25.2096 151.72 30.7546 151.911C40.4028 152.218 50.0403 152.377 59.6673 152.441C74.1077 152.558 88.5376 152.494 103.02 152.526C109.244 152.526 115.468 152.844 121.691 152.95C124.374 152.95 126.992 152.95 129.717 152.95C132.442 152.95 135.124 152.77 137.828 152.632C147.55 152.144 157.241 151.391 166.963 150.925L170.197 150.776V150.077L166.953 150.172C157.22 150.543 147.54 151.402 137.807 151.89C135.114 152.031 132.417 152.137 129.717 152.208C127.056 152.282 124.416 152.282 121.734 152.208C115.499 152.112 109.276 151.794 103.042 151.794C88.5694 151.794 74.1289 151.794 59.6885 151.731C50.0686 151.667 40.4381 151.483 30.797 151.179C25.2307 150.999 19.6115 151.455 14.024 151.826C11.6279 151.996 9.24234 152.165 6.8568 152.218C4.86355 152.218 2.8703 152.218 0.887652 152.123L0.802879 152.483Z" fill="black"/>
<path fill-rule="evenodd" clip-rule="evenodd" d="M67.6509 128.236C67.6509 128.745 67.5873 129.296 67.5661 129.773C67.407 134.385 67.3858 138.997 67.3434 143.556C67.3434 145.316 67.3434 147.076 67.3434 148.857C67.3434 149.027 67.3434 149.207 67.3434 149.388C67.3434 149.568 67.3434 149.907 67.4176 150.172H67.8523C67.8523 149.822 67.916 149.472 67.9266 149.112C67.9266 148.295 67.9266 147.479 67.9266 146.652C67.9266 141.977 68.0008 137.29 68.0432 132.604C68.0432 131.544 68.0432 130.547 68.0432 129.529C68.0432 129.084 68.0432 128.649 68.0432 128.204L67.6509 128.236Z" fill="black"/>
<path fill-rule="evenodd" clip-rule="evenodd" d="M115.828 130.187C115.828 130.324 115.775 130.462 115.765 130.6C115.637 131.872 115.659 133.134 115.627 134.406C115.499 139.453 115.51 144.51 115.362 149.568C115.362 150.024 115.362 150.469 115.362 150.914C115.356 151.027 115.356 151.141 115.362 151.254H115.828C115.833 151.169 115.833 151.084 115.828 150.999C115.828 150.67 115.828 150.331 115.828 149.939C115.828 148.953 115.881 147.967 115.902 146.981C115.987 142.485 115.966 137.99 116.051 133.495C116.051 132.434 116.157 131.48 116.125 130.462C116.125 130.356 116.125 130.24 116.125 130.123L115.828 130.187Z" fill="black"/>
<path fill-rule="evenodd" clip-rule="evenodd" d="M20.3218 134.279C20.3218 134.375 20.3218 134.459 20.3218 134.544C20.317 134.632 20.317 134.721 20.3218 134.809C20.4279 136.368 20.4702 137.926 20.4914 139.496C20.4914 142.74 20.4066 145.995 20.4278 149.25C20.4278 150.066 20.4278 150.883 20.4278 151.699H20.9898C20.9898 150.883 20.9898 150.077 20.9898 149.26C20.9898 146.005 21.0746 142.75 20.9898 139.496C20.9898 137.926 20.905 136.315 20.7883 134.778C20.7988 134.69 20.7988 134.601 20.7883 134.513C20.7734 134.425 20.7485 134.34 20.7141 134.258L20.3218 134.279Z" fill="black"/>
</svg>
