<svg width="74" height="74" viewBox="0 0 74 74" fill="none" xmlns="http://www.w3.org/2000/svg">
<path d="M47.2683 70.1457C45.9733 70.1457 44.6475 69.6831 43.63 68.7581L37.4633 63.1157C37.2167 62.8998 36.7233 62.8998 36.4458 63.1157L30.31 68.7581C28.275 70.639 25.099 70.6081 23.064 68.7581L16.8974 63.1157C16.6507 62.8998 16.1575 62.8998 15.88 63.1157L12.8273 65.9215C10.0215 68.4807 7.80156 68.0799 6.72239 67.5865C5.64323 67.0932 3.82405 65.7365 3.82405 61.8824V37.5548C3.82405 18.9623 18.6857 3.854 36.9699 3.854C55.254 3.854 70.1157 18.9623 70.1157 37.5548V61.8824C70.1157 65.7365 68.2965 67.1241 67.2174 67.5865C66.1382 68.049 63.9183 68.4807 61.1124 65.9215L58.0291 63.1157C57.7824 62.8998 57.2891 62.8998 57.0424 63.1157L50.8757 68.7581C49.8891 69.6831 48.5941 70.1457 47.2683 70.1457ZM37.0007 58.3057C38.2957 58.3057 39.6215 58.7681 40.6082 59.6931L46.7749 65.3357C47.0215 65.5515 47.5149 65.5515 47.7616 65.3357L53.9282 59.6931C55.9632 57.8431 59.1392 57.8431 61.1742 59.6931L64.2575 62.499C64.7817 62.9615 65.1208 63.1774 65.3366 63.239C65.4291 63.0232 65.5216 62.5915 65.5216 61.8515V37.524C65.5216 21.4907 52.7257 8.44814 37.0007 8.44814C21.2757 8.44814 8.47991 21.4907 8.47991 37.524V61.8515C8.47991 62.5915 8.60324 63.0232 8.66491 63.239C8.88074 63.1465 9.25066 62.9615 9.744 62.499L12.8273 59.6931C14.8623 57.8431 18.0383 57.8431 20.0733 59.6931L26.2399 65.3357C26.4866 65.5515 26.98 65.5515 27.2266 65.3357L33.3933 59.6931C34.38 58.7681 35.7057 58.3057 37.0007 58.3057Z" fill="#FBBF24"/>
<path d="M37.0008 49.5494C32.16 49.5494 27.3191 48.0386 23.2799 45.0169C22.2624 44.2461 22.0467 42.7968 22.8176 41.7793C23.5884 40.7618 25.0375 40.546 26.055 41.3169C32.4992 46.1577 41.5024 46.1577 47.9466 41.3169C48.9641 40.546 50.4132 40.7618 51.1841 41.7793C51.9549 42.7968 51.7392 44.2461 50.7217 45.0169C46.6825 48.0386 41.8416 49.5494 37.0008 49.5494Z" fill="#FBBF24"/>
<path d="M37 36.2293C32.3133 36.2293 28.5208 32.4368 28.5208 27.7502C28.5208 23.0635 32.3133 19.271 37 19.271C41.6867 19.271 45.4792 23.0635 45.4792 27.7502C45.4792 32.4368 41.6867 36.2293 37 36.2293ZM37 23.896C34.8725 23.896 33.1458 25.6227 33.1458 27.7502C33.1458 29.8777 34.8725 31.6043 37 31.6043C39.1275 31.6043 40.8542 29.8777 40.8542 27.7502C40.8542 25.6227 39.1275 23.896 37 23.896Z" fill="#FBBF24"/>
</svg>
