<svg width="137" height="153" viewBox="0 0 137 153" fill="none" xmlns="http://www.w3.org/2000/svg">
<path fill-rule="evenodd" clip-rule="evenodd" d="M65.2107 11.0661C62.167 13.0124 45.5428 32.3188 38.7526 41.9039C33.4501 49.4066 28.8914 57.931 24.1621 66.1635C21.3573 71.029 18.3136 75.6902 15.8773 80.9936C11.7827 89.9365 5.74315 113.028 20.3951 106.538C32.4332 101.195 42.6698 88.4963 52.8244 78.483C54.9741 76.3714 63.4636 68.6838 66.0501 72.3913C67.8653 74.9993 64.419 82.3463 63.5319 84.419C59.0619 94.8604 53.3909 104.154 49.3031 114.926C46.8599 121.348 43.632 129.931 43.6525 137.385C43.6525 144.547 47.6584 147.963 52.1215 144.722C67.4491 133.58 79.9581 115.101 91.969 98.0133C100.841 85.4407 109.576 72.5178 117.472 58.6705C122.522 49.8055 137.651 25.3319 124.815 16.7394C113.739 9.31455 97.5582 23.4051 87.6151 29.4773C83.8344 31.7836 77.4672 36.1723 73.1679 34.3429C70.793 33.3698 74.5942 26.1396 75.1469 25.0594C76.2934 22.8115 77.4399 21.021 78.7365 18.851C79.8967 16.9048 91.075 2.60011 82.06 0.0992225C77.2488 -1.17555 66.5005 10.239 65.2107 11.0661Z" fill="#279FF2" fill-opacity="0.12"/>
<path fill-rule="evenodd" clip-rule="evenodd" d="M92.4672 63.2831L16.2322 97.3418L52.1625 123.45L136.423 86.044L92.4672 63.2831Z" fill="#279FF2"/>
<path fill-rule="evenodd" clip-rule="evenodd" d="M36.7394 122.302C37.3271 122.837 37.8093 123.578 38.1401 124.453C38.4709 125.328 38.6395 126.31 38.6298 127.304C38.587 129.737 38.3419 132.154 37.8996 134.505C37.0738 140.022 36.4255 145.861 40.0288 150.24C41.0729 151.5 42.2948 152.426 43.6116 152.955L43.9596 151.398C42.7878 150.933 41.699 150.117 40.7658 149.004C37.5447 145.112 38.2817 139.798 39.0256 134.845C39.4858 132.36 39.7356 129.806 39.7694 127.236C39.7775 125.983 39.5619 124.747 39.1428 123.646C38.7238 122.545 38.1151 121.613 37.3741 120.94L36.7394 122.302Z" fill="#ADDD1C"/>
<path fill-rule="evenodd" clip-rule="evenodd" d="M104.301 108.815C106.15 104.922 108.545 103.949 111.221 104.183C113.246 104.487 115.246 105.074 117.192 105.934C119.874 106.995 122.651 108.134 125.34 108.319C128.215 108.681 131.076 107.435 133.318 104.845L132.594 103.589C130.571 105.928 127.99 107.055 125.395 106.732C122.781 106.547 120.099 105.428 117.499 104.407C111.964 102.227 106.819 100.612 103.352 107.929L104.301 108.815Z" fill="#ADDD1C"/>
<path fill-rule="evenodd" clip-rule="evenodd" d="M81.7939 20.0479C80.1083 22.9185 80.2721 25.6043 81.3094 27.1807C82.3467 28.7572 84.2916 29.3021 86.4891 27.8425C89.2802 26.0033 91.4572 23.045 93.6069 20.009C95.7566 16.9729 97.7015 14.1022 100.254 12.0781C103.884 9.21718 107.883 9.3145 111.889 9.69401L111.964 8.06892C107.74 7.66022 103.53 7.63102 99.6806 10.6477C97.0259 12.7398 94.9035 15.8246 92.7811 18.851C90.6588 21.8773 88.6865 24.602 85.9977 26.3633C84.3599 27.4435 82.8858 27.2002 82.1283 26.0617C81.3708 24.9231 81.4459 23.1424 82.6538 21.0988L81.7939 20.0479Z" fill="#ADDD1C"/>
<path fill-rule="evenodd" clip-rule="evenodd" d="M21.2686 107.89C17.3855 110.313 13.5912 110.352 10.7727 108.095C7.95424 105.837 6.19356 101.332 6.25497 94.7436C6.2891 91.3183 7.29227 88.3698 8.04295 85.431C8.85505 82.2295 9.40784 79.028 8.39784 75.3204L7.3264 75.8946C8.20675 79.1934 7.6881 82.0349 6.96471 84.8764C6.17309 87.9806 5.14942 91.1042 5.1153 94.7242C5.04023 102.042 7.10119 107.015 10.2131 109.515C13.325 112.016 17.4742 112.046 21.7258 109.389L21.2686 107.89Z" fill="#ADDD1C"/>
<path fill-rule="evenodd" clip-rule="evenodd" d="M85.3493 22.4125C88.5841 20.622 89.3894 17.0313 90.2629 13.0026C91.0545 9.37292 91.928 5.37345 95.2447 2.36655L94.6305 0.984741C91.0204 4.26411 90.0309 8.57497 89.171 12.5161C88.3998 16.0679 87.8061 19.3278 84.9399 20.8848L85.3493 22.4125Z" fill="#FBBF24"/>
<path fill-rule="evenodd" clip-rule="evenodd" d="M110.832 109.545C113.22 109.146 115.288 110.518 117.397 111.802C119.69 113.233 122.024 114.644 124.781 114.245L124.658 112.629C122.112 112.999 119.963 111.656 117.833 110.323C115.54 108.883 113.282 107.501 110.675 107.939L110.832 109.545Z" fill="#FBBF24"/>
<path fill-rule="evenodd" clip-rule="evenodd" d="M33.3955 122.234C34.6307 125.153 34.4533 127.605 34.0302 130.077C33.5593 132.821 32.8154 135.585 33.0475 138.952L34.1871 138.796C33.9756 135.634 34.6989 133.035 35.1425 130.466C35.6339 127.605 35.825 124.783 34.3782 121.397L33.3955 122.234Z" fill="#FBBF24"/>
<path fill-rule="evenodd" clip-rule="evenodd" d="M3.9688 94.7047C3.44229 92.0601 3.33047 89.2827 3.64124 86.5695C3.97566 83.699 4.10596 80.7876 4.03021 77.8797C3.82548 74.3181 2.63123 70.9609 1.62805 67.7594L0.577087 68.4211C1.5325 71.4669 2.69265 74.6392 2.89056 78.0159C2.95464 80.8073 2.82433 83.6008 2.50156 86.3555C2.17345 89.3013 2.30155 92.3138 2.8769 95.1815L3.9688 94.7047Z" fill="#FBBF24"/>
<path fill-rule="evenodd" clip-rule="evenodd" d="M30.6316 32.6788C30.6316 36.5713 30.6316 40.4637 30.6862 44.2783H31.8259C31.7645 40.3859 31.7576 36.5907 31.7781 32.7372L30.6316 32.6788Z" fill="#FBBF24"/>
<path fill-rule="evenodd" clip-rule="evenodd" d="M27.5129 37.7682C29.5723 38.5933 31.5808 39.6575 33.5183 40.9503L34.0029 39.4712C32.0103 38.1318 29.942 37.0348 27.82 36.1918L27.5129 37.7682Z" fill="#FBBF24"/>
<path fill-rule="evenodd" clip-rule="evenodd" d="M28.6662 33.9536C29.8195 36.8729 31.0206 39.656 32.2558 42.478L33.2112 41.5925C31.9897 38.7899 30.7954 36.0069 29.6421 33.1265L28.6662 33.9536Z" fill="#FBBF24"/>
<path fill-rule="evenodd" clip-rule="evenodd" d="M29.6625 41.9136C31.0274 39.4322 32.7608 37.7876 34.3372 35.6371L33.5456 34.4596C31.9282 36.6685 30.1675 38.352 28.7686 40.9113L29.6625 41.9136Z" fill="#F56C2C"/>
<path fill-rule="evenodd" clip-rule="evenodd" d="M84.121 119.178C82.7561 122.769 81.48 126.418 80.1356 130.019L81.1456 130.788C82.5104 127.197 83.7729 123.548 85.131 119.947L84.121 119.178Z" fill="#F56C2C"/>
<path fill-rule="evenodd" clip-rule="evenodd" d="M79.9376 120.628C81.9833 123.492 83.8895 126.551 85.6428 129.785L86.5436 128.812C84.7561 125.523 82.8159 122.409 80.7361 119.49L79.9376 120.628Z" fill="#F56C2C"/>
<path fill-rule="evenodd" clip-rule="evenodd" d="M82.4626 118.565C82.5115 122.448 82.7143 126.324 83.07 130.175L84.2029 129.931C83.8525 126.142 83.652 122.328 83.6023 118.507L82.4626 118.565Z" fill="#F56C2C"/>
<path fill-rule="evenodd" clip-rule="evenodd" d="M80.3471 126.253C82.8858 125.075 85.5336 124.929 88.0313 123.762L87.6765 122.214C85.1788 123.372 82.5309 123.528 79.9922 124.706L80.3471 126.253Z" fill="#F56C2C"/>
<path fill-rule="evenodd" clip-rule="evenodd" d="M132.765 57.7072L52.1625 93.4591V121.767L132.765 86.0148V57.7072Z" fill="#DCE2EB"/>
<path fill-rule="evenodd" clip-rule="evenodd" d="M64.3849 101.701C71.0659 98.6653 77.7402 95.3665 84.4827 92.6126L84.1619 91.0361C77.4194 93.8095 70.7316 97.0986 64.0369 100.144L64.3849 101.701Z" fill="#51505D"/>
<path fill-rule="evenodd" clip-rule="evenodd" d="M120.754 80.5167C124.73 78.3836 128.783 76.5516 132.895 75.0284L132.642 73.4423C128.482 74.9729 124.381 76.8179 120.358 78.9695L120.754 80.5167Z" fill="#51505D"/>
<path fill-rule="evenodd" clip-rule="evenodd" d="M52.1625 93.4591L18.5115 69.2482V97.5559L52.1625 121.767V93.4591Z" fill="#D0D3DF"/>
<path fill-rule="evenodd" clip-rule="evenodd" d="M52.4355 100.952C52.4355 100.952 65.0196 95.9016 71.1206 93.2645L70.7862 91.6978C64.692 94.3349 52.1215 99.3756 52.1215 99.3756L52.4355 100.952Z" fill="#51505D"/>
<path fill-rule="evenodd" clip-rule="evenodd" d="M52.101 112.104L89.0823 96.0865L88.7479 94.5198L51.7667 110.557L52.101 112.104Z" fill="#FBBF24"/>
<path fill-rule="evenodd" clip-rule="evenodd" d="M131.816 66.8933C125.606 69.8126 119.451 73.8218 113.118 76.1962L113.404 77.7726C119.765 75.3885 125.941 71.3891 132.178 68.4503L131.816 66.8933Z" fill="#FBBF24"/>
<path fill-rule="evenodd" clip-rule="evenodd" d="M19.2758 82.716C24.592 86.0635 29.84 89.5277 35.2244 92.7098L35.6612 91.2015C30.2904 88.0584 25.0493 84.5649 19.7399 81.2174L19.2758 82.716Z" fill="#FBBF24"/>
<path fill-rule="evenodd" clip-rule="evenodd" d="M18.8801 87.3869C22.4287 90.0046 26.1753 92.0092 29.7445 94.549L30.2563 93.0894C26.694 90.5495 22.9542 88.5449 19.4055 85.937L18.8801 87.3869Z" fill="#51505D"/>
<path fill-rule="evenodd" clip-rule="evenodd" d="M16.1503 70.085C16.5871 78.736 16.2049 87.4939 16.4437 96.174L17.5902 96.1059C17.3514 87.4161 17.7335 78.6386 17.2968 69.9683L16.1503 70.085Z" fill="#51505D"/>
<path fill-rule="evenodd" clip-rule="evenodd" d="M52.92 102.12C52.92 100.349 52.8381 94.3349 52.92 92.5444L51.7735 92.4471C51.6984 94.2279 51.7735 100.31 51.7735 102.1L52.92 102.12Z" fill="#51505D"/>
<path fill-rule="evenodd" clip-rule="evenodd" d="M51.4732 105.818C51.3981 110.576 51.3367 115.315 51.248 120.074H52.3945C52.4764 115.325 52.5446 110.576 52.6197 105.818H51.4732Z" fill="#51505D"/>
<path fill-rule="evenodd" clip-rule="evenodd" d="M92.4672 39.1403L16.2322 69.2482L52.1625 93.4786L136.423 57.7071L92.4672 39.1403Z" fill="#279FF2"/>
<path fill-rule="evenodd" clip-rule="evenodd" d="M59.3281 24.0766C57.9632 20.5442 56.728 16.8659 55.2744 13.3724L54.2917 14.2093C55.7385 17.6541 56.9736 21.3033 58.3249 24.8259L59.3281 24.0766Z" fill="#FFBA16"/>
<path fill-rule="evenodd" clip-rule="evenodd" d="M129.435 44.9011C130.486 43.4998 131.646 42.3224 132.779 41.067L132.096 39.7728C130.936 41.0671 129.749 42.2737 128.684 43.6653L129.435 44.9011Z" fill="#FFBA16"/>
<path fill-rule="evenodd" clip-rule="evenodd" d="M20.8182 122.234C19.8423 123.83 18.8869 125.435 17.9247 127.041L18.7913 128.102C19.7536 126.506 20.709 124.9 21.6781 123.314L20.8182 122.234Z" fill="#FFBA16"/>
<path fill-rule="evenodd" clip-rule="evenodd" d="M97.7697 109.165C98.5204 111.111 99.3052 113.057 99.9944 115.062L101.025 114.342C100.342 112.328 99.5304 110.362 98.7729 108.387L97.7697 109.165Z" fill="#FFBA16"/>
<path fill-rule="evenodd" clip-rule="evenodd" d="M52.2239 131.644C51.9236 133.59 51.6848 135.672 51.2889 137.609L52.3877 138.076C52.7971 136.13 53.036 133.989 53.3431 131.994L52.2239 131.644Z" fill="#FFBA16"/>
</svg>
