<svg width="34" height="34" viewBox="0 0 34 34" fill="none" xmlns="http://www.w3.org/2000/svg">
<path d="M23.8748 18.2662H20.1898C18.6911 18.2662 17.5223 17.0974 17.5223 15.5986V13.5498C17.5223 12.0511 18.6911 10.8823 20.1898 10.8823H22.2386C23.7098 10.8823 24.9061 12.0786 24.9061 13.5498V17.2211C24.9061 17.7986 24.4386 18.2662 23.8748 18.2662ZM20.1898 12.9448C19.7498 12.9448 19.5848 13.2748 19.5848 13.5498V15.5986C19.5848 15.8736 19.7361 16.2037 20.1898 16.2037H22.8436V13.5636C22.8436 13.2336 22.5686 12.9586 22.2386 12.9586H20.1898V12.9448Z" fill="#137AD4"/>
<path d="M21.0012 24.0274C20.6437 24.0274 20.2999 23.8485 20.1074 23.5185C19.8187 23.0235 19.9837 22.3911 20.465 22.1023C22.335 20.9886 22.8437 20.6999 22.8437 17.2349C22.8437 16.6711 23.3112 16.2036 23.8749 16.2036C24.4387 16.2036 24.9062 16.6711 24.9062 17.2349C24.9062 21.4699 23.9849 22.4186 21.5237 23.8761C21.3587 23.9723 21.1799 24.0274 21.0012 24.0274Z" fill="#137AD4"/>
<path d="M15.4328 18.2662H11.7478C10.2491 18.2662 9.08032 17.0974 9.08032 15.5986V13.5498C9.08032 12.0511 10.2491 10.8823 11.7478 10.8823H13.7966C15.2678 10.8823 16.4641 12.0786 16.4641 13.5498V17.2211C16.4641 17.7986 16.0103 18.2662 15.4328 18.2662ZM11.7616 12.9448C11.3216 12.9448 11.1566 13.2748 11.1566 13.5498V15.5986C11.1566 15.8736 11.3078 16.2037 11.7616 16.2037H14.4153V13.5636C14.4153 13.2336 14.1403 12.9586 13.8103 12.9586H11.7616V12.9448Z" fill="#137AD4"/>
<path d="M12.5585 24.0274C12.201 24.0274 11.8572 23.8485 11.6647 23.5185C11.376 23.0235 11.541 22.3911 12.0223 22.1023C13.8923 20.9886 14.401 20.6999 14.401 17.2349C14.401 16.6711 14.8685 16.2036 15.4323 16.2036C15.996 16.2036 16.4635 16.6711 16.4635 17.2349C16.4635 21.4699 15.5422 22.4186 13.081 23.8761C12.916 23.9723 12.7373 24.0274 12.5585 24.0274Z" fill="#137AD4"/>
<path d="M17 32.2361C8.84625 32.2361 2.21875 25.6086 2.21875 17.4548C2.21875 9.30108 8.84625 2.67358 17 2.67358C25.1537 2.67358 31.7812 9.30108 31.7812 17.4548C31.7812 25.6086 25.1537 32.2361 17 32.2361ZM17 4.73608C9.9875 4.73608 4.28125 10.4423 4.28125 17.4548C4.28125 24.4673 9.9875 30.1736 17 30.1736C24.0125 30.1736 29.7188 24.4673 29.7188 17.4548C29.7188 10.4423 24.0125 4.73608 17 4.73608Z" fill="#137AD4"/>
</svg>
