<svg width="773" height="596" viewBox="0 0 773 596" fill="none" xmlns="http://www.w3.org/2000/svg">
<path opacity="0.1" d="M150.525 379.974C173.573 392.364 203.246 400.025 236.141 401.429C236.155 401.54 236.163 401.65 236.178 401.761C246.234 478.853 356.874 528.008 483.3 511.553C603.71 495.88 695.009 426.343 694.737 353.158C745.711 329.216 777.57 290.495 772.46 251.324C769.214 226.44 751.589 205.553 724.963 191.035C738.809 169.688 745.211 146.657 742.192 123.51C732.136 46.4177 621.496 -2.73779 495.07 13.718C414.907 24.1522 347.658 58.4643 311.73 101.829C280.826 97.0608 246.877 96.554 211.702 101.132C85.2767 117.588 -9.05962 193.424 0.996222 270.516C8.32743 326.72 69.1283 368.066 150.525 379.974Z" fill="#FCB006"/>
<path d="M269.152 305.444C241.332 340.161 261.982 384.634 261.982 384.634C282.919 350.491 271.741 326.876 269.152 305.444Z" fill="#1AB995"/>
<mask id="mask0_1165_928" style="mask-type:luminance" maskUnits="userSpaceOnUse" x="254" y="305" width="21" height="80">
<path fill-rule="evenodd" clip-rule="evenodd" d="M269.152 305.444C241.332 340.161 261.982 384.634 261.982 384.634C282.919 350.491 271.741 326.876 269.152 305.444Z" fill="white"/>
</mask>
<g mask="url(#mask0_1165_928)">
<path d="M277.573 299.857L269.152 305.444C269.152 305.444 269.718 364.59 261.982 384.634C254.246 404.678 288.663 350.355 288.663 350.355L293.04 328.167" fill="#0FA379"/>
</g>
<path fill-rule="evenodd" clip-rule="evenodd" d="M269.152 305.444C241.332 340.161 261.982 384.634 261.982 384.634C282.919 350.491 271.741 326.876 269.152 305.444Z" stroke="black" stroke-width="0.5"/>
<path d="M303.952 352.739C266.727 390.798 285.812 421.024 285.812 421.024C306.749 386.881 306.541 374.17 303.952 352.739Z" fill="#1AB995"/>
<mask id="mask1_1165_928" style="mask-type:luminance" maskUnits="userSpaceOnUse" x="280" y="352" width="26" height="70">
<path fill-rule="evenodd" clip-rule="evenodd" d="M303.952 352.739C266.727 390.798 285.812 421.024 285.812 421.024C306.749 386.881 306.541 374.17 303.952 352.739Z" fill="white"/>
</mask>
<g mask="url(#mask1_1165_928)">
<path d="M309.689 341.939L303.952 352.739C303.952 352.739 284.109 394.142 285.812 421.024C287.516 447.907 312.37 384.634 312.37 384.634L315.814 355.711" fill="#0FA379"/>
</g>
<path fill-rule="evenodd" clip-rule="evenodd" d="M303.952 352.739C266.727 390.798 285.812 421.024 285.812 421.024C306.749 386.881 306.541 374.17 303.952 352.739Z" stroke="black" stroke-width="0.5"/>
<path d="M325.749 384.634C292.208 425.357 299.011 452.919 299.011 452.919C331.486 429.948 328.338 406.065 325.749 384.634Z" fill="#1AB995"/>
<mask id="mask2_1165_928" style="mask-type:luminance" maskUnits="userSpaceOnUse" x="298" y="384" width="30" height="69">
<path fill-rule="evenodd" clip-rule="evenodd" d="M325.749 384.634C292.208 425.357 299.011 452.919 299.011 452.919C331.486 429.948 328.338 406.065 325.749 384.634Z" fill="white"/>
</mask>
<g mask="url(#mask2_1165_928)">
<path d="M329.963 377.134L325.749 384.634C325.749 384.634 314.331 435.36 299.011 452.919C283.691 470.478 342.201 425.271 342.201 425.271L341.436 379.429" fill="#0FA379"/>
</g>
<path fill-rule="evenodd" clip-rule="evenodd" d="M325.749 384.634C292.208 425.357 299.011 452.919 299.011 452.919C331.486 429.948 328.338 406.065 325.749 384.634Z" stroke="black" stroke-width="0.5"/>
<path d="M356.941 435.088C312.853 458.448 309.689 491.158 309.689 491.158C347.819 479.844 356.941 452.919 356.941 435.088Z" fill="#1AB995"/>
<mask id="mask3_1165_928" style="mask-type:luminance" maskUnits="userSpaceOnUse" x="309" y="435" width="48" height="57">
<path fill-rule="evenodd" clip-rule="evenodd" d="M356.941 435.088C312.853 458.448 309.689 491.158 309.689 491.158C347.819 479.844 356.941 452.919 356.941 435.088Z" fill="white"/>
</mask>
<g mask="url(#mask3_1165_928)">
<path d="M364.381 416.447L356.941 435.088C356.941 435.088 336.833 473.583 309.689 491.158C282.544 508.734 347.554 491.158 347.554 491.158L369.352 468.851L377.383 433.37" fill="#0FA379"/>
</g>
<path fill-rule="evenodd" clip-rule="evenodd" d="M356.941 435.088C312.853 458.448 309.689 491.158 309.689 491.158C347.819 479.844 356.941 452.919 356.941 435.088Z" stroke="black" stroke-width="0.5"/>
<path d="M192.919 395.969C233.359 413.881 262.511 385.485 262.511 385.485C223.375 377.02 212.278 386.433 192.919 395.969Z" fill="#1AB995"/>
<mask id="mask4_1165_928" style="mask-type:luminance" maskUnits="userSpaceOnUse" x="192" y="382" width="71" height="20">
<path fill-rule="evenodd" clip-rule="evenodd" d="M192.919 395.969C233.359 413.881 262.511 385.485 262.511 385.485C223.375 377.02 212.278 386.433 192.919 395.969Z" fill="white"/>
</mask>
<g mask="url(#mask4_1165_928)">
<path d="M166.482 416.447L192.919 395.969C192.919 395.969 239.317 396.916 261.982 384.634C284.648 372.352 267.46 398.748 267.46 398.748L212.945 418.776L176.234 414.882" fill="#0FA379"/>
</g>
<path fill-rule="evenodd" clip-rule="evenodd" d="M192.919 395.969C233.359 413.881 262.511 385.485 262.511 385.485C223.375 377.02 212.278 386.433 192.919 395.969Z" stroke="black" stroke-width="0.5"/>
<path d="M215.97 425.893C254.213 448.115 286.29 423.075 286.29 423.075C248.312 410.384 236.255 418.529 215.97 425.893Z" fill="#1AB995"/>
<mask id="mask5_1165_928" style="mask-type:luminance" maskUnits="userSpaceOnUse" x="215" y="416" width="72" height="20">
<path fill-rule="evenodd" clip-rule="evenodd" d="M215.97 425.893C254.213 448.115 286.29 423.075 286.29 423.075C248.312 410.384 236.255 418.529 215.97 425.893Z" fill="white"/>
</mask>
<g mask="url(#mask5_1165_928)">
<path d="M202.62 435.125L215.97 425.893C215.97 425.893 281.554 429.127 288.075 421.338L258.835 407.356C258.835 407.356 236.177 408.79 233.595 409.364C231.014 409.938 210.077 414.816 210.077 414.816" fill="#0FA379"/>
</g>
<path fill-rule="evenodd" clip-rule="evenodd" d="M215.97 425.893C254.213 448.115 286.29 423.075 286.29 423.075C248.312 410.384 236.255 418.529 215.97 425.893Z" stroke="black" stroke-width="0.5"/>
<path d="M235.23 454.341C273.473 476.563 299.69 453.729 299.69 453.729C261.712 441.038 255.514 446.977 235.23 454.341Z" fill="#1AB995"/>
<mask id="mask6_1165_928" style="mask-type:luminance" maskUnits="userSpaceOnUse" x="235" y="446" width="65" height="19">
<path fill-rule="evenodd" clip-rule="evenodd" d="M235.23 454.341C273.473 476.563 299.69 453.729 299.69 453.729C261.712 441.038 255.514 446.977 235.23 454.341Z" fill="white"/>
</mask>
<g mask="url(#mask6_1165_928)">
<path d="M219.446 463.123L235.23 454.341C235.23 454.341 275.153 460.699 299.69 453.729C324.227 446.759 299.69 461.679 299.69 461.679L238.949 473.538" fill="#0FA379"/>
</g>
<path fill-rule="evenodd" clip-rule="evenodd" d="M235.23 454.341C273.473 476.563 299.69 453.729 299.69 453.729C261.712 441.038 255.514 446.977 235.23 454.341Z" stroke="black" stroke-width="0.5"/>
<path d="M249.471 480.175C283.577 508.341 312.37 494.915 312.37 494.915C290.089 474.994 270.685 476.22 249.471 480.175Z" fill="#1AB995"/>
<mask id="mask7_1165_928" style="mask-type:luminance" maskUnits="userSpaceOnUse" x="249" y="477" width="64" height="22">
<path fill-rule="evenodd" clip-rule="evenodd" d="M249.471 480.175C283.577 508.341 312.37 494.915 312.37 494.915C290.089 474.994 270.685 476.22 249.471 480.175Z" fill="white"/>
</mask>
<g mask="url(#mask7_1165_928)">
<path d="M226.783 489.405L249.471 480.175C249.471 480.175 291.398 495.14 312.37 494.915C333.342 494.69 290.193 509.499 290.193 509.499L254.61 502.995" fill="#0FA379"/>
</g>
<path fill-rule="evenodd" clip-rule="evenodd" d="M249.471 480.175C283.577 508.341 312.37 494.915 312.37 494.915C290.089 474.994 270.685 476.22 249.471 480.175Z" stroke="black" stroke-width="0.5"/>
<path d="M247.648 371.677C254.078 376.471 259.871 382.086 265.11 388.164L267.049 390.468C267.697 391.235 268.354 391.996 268.94 392.811L272.564 397.624C274.831 400.936 277.145 404.227 279.19 407.685C283.373 414.547 287.146 421.65 290.489 428.957C293.858 436.248 296.949 443.671 299.672 451.226C305.207 466.302 309.816 481.738 313.129 497.451C314.773 505.309 316.211 513.208 317.32 521.155C317.886 525.126 318.374 529.108 318.827 533.091C319.208 537.085 319.607 541.073 319.783 545.083C319.783 545.083 315.302 549.448 315.464 542.828C315.942 523.366 312.285 507.21 310.146 498.118C306.468 482.605 302.554 467.129 297.368 452.045C294.809 444.494 291.883 437.073 288.68 429.777C285.503 422.468 281.896 415.352 277.878 408.468C275.937 404.986 273.728 401.67 271.562 398.324L268.089 393.46C267.528 392.635 266.896 391.865 266.273 391.088L264.407 388.753C259.361 382.589 253.75 376.862 247.464 371.921L247.648 371.677Z" fill="#1AB995" stroke="black" stroke-width="0.5"/>
<path d="M247.987 372.364C243.491 329.269 205.579 317.714 205.579 317.714C219.265 363.072 230.617 368.368 247.987 372.364Z" fill="#1AB995"/>
<mask id="mask8_1165_928" style="mask-type:luminance" maskUnits="userSpaceOnUse" x="205" y="317" width="43" height="56">
<path fill-rule="evenodd" clip-rule="evenodd" d="M247.987 372.364C243.491 329.269 205.579 317.714 205.579 317.714C219.265 363.072 230.617 368.368 247.987 372.364Z" fill="white"/>
</mask>
<g mask="url(#mask8_1165_928)">
<path d="M167.629 317.714H205.579C205.579 317.714 229.41 354.114 247.987 372.364C266.564 390.614 200.326 372.364 200.326 372.364L183.691 342.512" fill="#0FA379"/>
</g>
<path fill-rule="evenodd" clip-rule="evenodd" d="M247.987 372.364C243.491 329.269 205.579 317.714 205.579 317.714C219.265 363.072 230.617 368.368 247.987 372.364Z" stroke="black" stroke-width="0.5"/>
<path d="M232.959 348.651V350.667" stroke="black" stroke-width="0.5"/>
<path d="M293.204 388.011L292.548 390.033" stroke="black" stroke-width="0.5"/>
<path d="M250.098 427.625L257.483 428.373" stroke="black" stroke-width="0.5"/>
<path d="M222.543 391.341H224.559" stroke="black" stroke-width="0.5"/>
<path d="M315.284 422.939V423.611" stroke="black" stroke-width="0.5"/>
<path d="M265.553 454.537H266.897" stroke="black" stroke-width="0.5"/>
<path d="M280.308 488.197L284.349 490.873" stroke="black" stroke-width="0.5"/>
<path d="M336.118 464.621L335.445 465.294" stroke="black" stroke-width="0.5"/>
<path d="M509.499 286.592C495.265 288.458 480.156 292.507 465.321 300.043C459.404 323.637 453.512 350.838 440.5 316.518C402.666 348.398 371.471 410.517 368.898 527.838C428.217 421.151 483.425 409.024 526.668 376.595C510.76 360.854 484.38 350.474 484.38 350.474C484.38 350.474 511.556 352.887 537.599 367.663C547.145 359.137 555.467 349.334 562.328 338.534C551.35 328.095 537.163 321.843 537.163 321.843C537.163 321.843 552.043 322.927 568.555 327.939C573.83 318.162 578.74 306.86 583.252 293.576C583.252 293.576 562.297 285.86 533.487 285.298C518.814 299.695 499.662 311.377 509.499 286.592Z" fill="#1AB995"/>
<mask id="mask9_1165_928" style="mask-type:luminance" maskUnits="userSpaceOnUse" x="368" y="285" width="216" height="243">
<path fill-rule="evenodd" clip-rule="evenodd" d="M509.499 286.592C495.265 288.458 480.156 292.507 465.321 300.043C459.404 323.637 453.512 350.838 440.5 316.518C402.666 348.398 371.471 410.517 368.898 527.838C428.217 421.151 483.425 409.025 526.668 376.595C510.759 360.854 484.38 350.474 484.38 350.474C484.38 350.474 511.556 352.887 537.599 367.663C547.145 359.137 555.467 349.335 562.328 338.534C551.35 328.095 537.163 321.843 537.163 321.843C537.163 321.843 552.043 322.927 568.555 327.939C573.83 318.162 578.74 306.86 583.252 293.576C583.252 293.576 562.297 285.86 533.486 285.298C518.814 299.695 499.662 311.377 509.499 286.592Z" fill="white"/>
</mask>
<g mask="url(#mask9_1165_928)">
<path d="M627.937 310.975L583.252 293.576C583.252 293.576 423.472 302.355 368.898 527.838C314.324 753.322 474.653 559.029 474.653 559.029L516.877 445.219L594.09 318.752" fill="#0FA379"/>
</g>
<path fill-rule="evenodd" clip-rule="evenodd" d="M509.499 286.592C495.265 288.458 480.156 292.507 465.321 300.043C459.404 323.637 453.512 350.838 440.5 316.518C402.666 348.398 371.471 410.517 368.898 527.838C428.217 421.151 483.425 409.024 526.668 376.595C510.76 360.854 484.38 350.474 484.38 350.474C484.38 350.474 511.556 352.887 537.599 367.663C547.145 359.137 555.467 349.334 562.328 338.534C551.35 328.095 537.163 321.843 537.163 321.843C537.163 321.843 552.043 322.927 568.555 327.939C573.83 318.162 578.74 306.86 583.252 293.576C583.252 293.576 562.297 285.86 533.487 285.298C518.814 299.695 499.662 311.377 509.499 286.592Z" stroke="black" stroke-width="0.5"/>
<path d="M401.449 421.175C402.591 414.021 405.659 407.312 410.326 401.766" stroke="black" stroke-width="0.5"/>
<path d="M516.075 324.052L520.999 323.323" stroke="black" stroke-width="0.5"/>
<path d="M416.331 460.797C422.068 459.9 426.513 480.402 444.331 489.573C453.965 485.245 464.015 479.319 473.823 472.291C450.584 467.838 429.855 452.43 433.934 450.875C438.551 449.116 447.656 464.126 479.737 467.896C498.966 453.095 516.707 434.356 527.796 415.597C508.335 423.768 453.157 432.17 467.654 418.135C474.914 411.107 486.823 434.821 530.521 410.736C533.732 404.662 536.198 398.621 537.739 392.747C521.992 397.265 499.132 405.11 500.135 398.292C502.047 385.284 517.573 397.268 538.808 387.848C539.756 382.431 539.851 377.194 538.938 372.249C526.82 365.567 515.144 360.326 503.945 356.331C479.163 369.563 481.552 397.577 473.853 394.076C465.107 390.098 482.338 366.354 499.098 354.666C494.09 353.02 489.184 351.623 484.38 350.474C463.8 364.135 460.608 396.445 450.547 401.021C439.099 406.226 434.259 385.675 480.228 349.071C473.816 347.866 463.171 346.644 457.169 346.246C418.713 359.841 427.944 403.928 423.025 404.431C417.763 404.969 419.659 359.521 453.855 346.067C444.326 345.624 434.778 346.215 425.377 347.83C390.855 371 408.73 411.327 403.19 413.174C397.441 415.091 377.585 376.476 416.492 349.726C398.981 354.182 384.492 362.2 373.495 371.855C362.704 396.694 397.963 418.726 387.817 421.662C375.527 425.219 366.498 394.797 366.764 378.428C360.646 385.091 356.039 392.262 353.072 399.419C353.19 420.044 373.562 418.834 373.562 430.249C373.562 432.409 357.978 427.963 349.236 420.518C350.418 436.818 362.417 449.79 387.198 451.496C381.016 497.498 406.863 504.427 438.942 491.844C423.517 479.628 411.06 461.621 416.331 460.797Z" fill="#1AB995"/>
<path d="M448.442 421.662C450.7 421.662 452.53 422.557 452.53 423.662C452.53 424.767 450.7 425.663 448.442 425.663C446.184 425.663 444.354 424.767 444.354 423.662C444.354 422.558 446.184 421.662 448.442 421.662Z" fill="#1AB995"/>
<path d="M417.216 417.499C417.582 415.27 419.158 413.673 420.738 413.932C422.317 414.191 423.302 416.208 422.937 418.437C422.572 420.666 420.995 422.263 419.416 422.004C417.836 421.745 416.851 419.728 417.216 417.499Z" fill="#1AB995"/>
<path d="M409.02 428.861C408.655 431.09 407.327 432.728 406.054 432.519C404.781 432.31 404.045 430.334 404.411 428.105C404.776 425.876 406.104 424.239 407.377 424.447C408.649 424.656 409.385 426.632 409.02 428.861Z" fill="#1AB995"/>
<path d="M339.332 373.477C401.101 335.42 439.731 363.229 401.007 417.478C362.283 471.726 429.81 418.197 450.189 410C450.189 410 368.909 471.043 451.118 450.574C533.326 430.105 468.042 500.186 468.042 500.186C468.042 500.186 350.703 522.441 344.312 521.525C337.921 520.609 336.586 392.657 336.586 392.657" fill="#0FA379"/>
<path d="M321.374 503.544L361.975 475.547C361.975 475.547 420.638 408.283 535.784 373.455L566.221 368.182L584.813 457.258L506.233 510.414L406.853 518.83L359.097 518.249" fill="#1AB995"/>
<path d="M321.374 503.544L361.975 475.547C361.975 475.547 420.638 408.283 535.784 373.455V373.455L566.221 368.182L584.813 457.258L506.233 510.414L406.853 518.83L359.097 518.249" stroke="black" stroke-width="0.5"/>
<path d="M465.057 477.346C493.548 410.606 541.138 411.015 540.809 477.674C540.479 544.334 564.746 461.634 576.661 443.174C576.661 443.174 545.497 539.951 600.825 475.774C656.154 411.597 643.268 506.519 643.268 506.519C643.268 506.519 560.279 592.437 554.531 595.378C548.783 598.32 473.879 494.596 473.879 494.596" fill="#0FA379"/>
<path fill-rule="evenodd" clip-rule="evenodd" d="M416.331 460.797C422.068 459.9 426.513 480.401 444.331 489.573C453.965 485.245 464.015 479.319 473.823 472.291C450.584 467.838 429.855 452.43 433.934 450.875C438.551 449.116 447.656 464.126 479.737 467.896C498.966 453.095 516.707 434.356 527.796 415.597C508.335 423.768 453.157 432.17 467.654 418.135C474.914 411.107 486.823 434.821 530.521 410.736C533.732 404.662 536.198 398.621 537.739 392.747C521.992 397.265 499.132 405.11 500.135 398.292C502.047 385.284 517.573 397.268 538.808 387.848C539.756 382.431 539.851 377.194 538.938 372.249C526.82 365.567 515.144 360.326 503.945 356.331C479.163 369.563 481.552 397.577 473.853 394.076C465.107 390.098 482.338 366.354 499.098 354.666C494.09 353.02 489.184 351.623 484.38 350.474C463.8 364.135 460.608 396.445 450.547 401.021C439.099 406.226 434.259 385.675 480.228 349.071C473.816 347.866 463.171 346.644 457.169 346.246C418.713 359.841 427.944 403.928 423.025 404.431C417.763 404.969 419.659 359.521 453.855 346.067C444.326 345.624 434.778 346.215 425.377 347.83C390.855 371 408.73 411.327 403.19 413.174C397.441 415.091 377.585 376.476 416.492 349.726C398.981 354.182 384.492 362.2 373.495 371.855C362.704 396.694 397.963 418.726 387.817 421.662C375.527 425.219 366.498 394.797 366.764 378.428C360.646 385.091 356.039 392.262 353.072 399.419C353.19 420.044 373.562 418.834 373.562 430.249C373.562 432.409 357.978 427.963 349.236 420.518C350.418 436.818 362.417 449.79 387.198 451.496C381.016 497.498 406.863 504.427 438.942 491.844C423.517 479.628 411.06 461.621 416.331 460.797Z" stroke="black" stroke-width="0.5"/>
<path fill-rule="evenodd" clip-rule="evenodd" d="M448.442 421.662C450.7 421.662 452.53 422.557 452.53 423.662C452.53 424.767 450.7 425.663 448.442 425.663C446.184 425.663 444.354 424.767 444.354 423.662C444.354 422.558 446.184 421.662 448.442 421.662Z" stroke="black" stroke-width="0.5"/>
<path fill-rule="evenodd" clip-rule="evenodd" d="M417.216 417.499C417.582 415.27 419.158 413.673 420.738 413.932C422.317 414.191 423.302 416.208 422.937 418.437C422.572 420.666 420.995 422.263 419.416 422.004C417.836 421.745 416.851 419.728 417.216 417.499Z" stroke="black" stroke-width="0.5"/>
<path fill-rule="evenodd" clip-rule="evenodd" d="M409.02 428.861C408.655 431.09 407.327 432.728 406.054 432.519C404.781 432.31 404.045 430.334 404.411 428.105C404.776 425.876 406.104 424.239 407.377 424.447C408.649 424.656 409.385 426.632 409.02 428.861Z" stroke="black" stroke-width="0.5"/>
<path d="M460.598 445.844C462.523 447.372 464.826 448.35 467.262 448.674" stroke="black" stroke-width="0.5"/>
<path d="M502.528 369.337C500.334 370.744 498.524 372.673 497.261 374.952" stroke="black" stroke-width="0.5"/>
<path d="M419.237 373.884C418.173 376.019 417.708 378.402 417.891 380.781" stroke="black" stroke-width="0.5"/>
<path d="M391.427 458.823L390.83 460.615" stroke="black" stroke-width="0.5"/>
<path d="M328.211 478.055L316.417 434.076C303.826 424.978 290.168 415.675 275.666 406.61L286.168 443.999L263.788 399.361C248.398 390.188 232.185 381.396 215.396 373.472L223.794 403.371L206.827 369.53C185.897 360.139 164.163 352.191 142.092 346.602L154.17 389.598L131.35 344.084C105.772 338.543 79.8522 336.339 54.3156 338.869L61.0251 362.756L49.3253 339.421C36.4281 340.995 23.7225 343.863 11.4012 347.983C11.4012 347.983 23.8272 365.879 47.6181 389.875L82.3408 386.468L57.9881 400.007C72.694 413.937 88.3115 426.876 104.737 438.735L132.172 424.301L113.112 444.623C122.538 451.09 132.584 457.435 143.235 463.495L161.285 453.998L149.239 466.842C163.849 474.847 178.958 481.908 194.473 487.982L234.901 469.333L206.968 492.607C223.094 498.259 239.602 502.759 256.367 506.073L287.397 491.759L267.753 508.126C308.089 514.724 352.74 514.864 401.396 504.95C401.396 504.95 372.907 476.327 328.222 442.772L328.211 478.055Z" fill="#1AB995"/>
<mask id="mask10_1165_928" style="mask-type:luminance" maskUnits="userSpaceOnUse" x="11" y="337" width="391" height="176">
<path fill-rule="evenodd" clip-rule="evenodd" d="M328.211 478.055L316.417 434.076C303.826 424.978 290.168 415.675 275.666 406.61L286.168 443.999L263.788 399.361C248.398 390.188 232.185 381.396 215.396 373.472L223.794 403.371L206.827 369.53C185.897 360.139 164.163 352.191 142.092 346.602L154.17 389.598L131.35 344.084C105.772 338.543 79.8522 336.339 54.3156 338.869L61.0251 362.756L49.3253 339.421C36.4281 340.995 23.7225 343.863 11.4012 347.983C11.4012 347.983 23.8272 365.879 47.6181 389.875L82.3408 386.468L57.9881 400.007C72.694 413.937 88.3115 426.876 104.737 438.735L132.172 424.301L113.112 444.623C122.538 451.09 132.584 457.435 143.235 463.495L161.285 453.998L149.239 466.842C163.849 474.847 178.958 481.908 194.473 487.982L234.901 469.333L206.968 492.607C223.094 498.259 239.602 502.759 256.367 506.073L287.397 491.759L267.753 508.126C308.089 514.724 352.74 514.864 401.396 504.95C401.396 504.95 372.907 476.327 328.222 442.772L328.211 478.055Z" fill="white"/>
</mask>
<g mask="url(#mask10_1165_928)">
<path d="M137.596 233.929L11.4012 347.983C11.4012 347.983 240.402 475.119 401.396 504.95C562.39 534.781 466.39 380.1 466.39 380.1L175.038 293.037L132.04 288.038" fill="#1AB995"/>
<mask id="mask11_1165_928" style="mask-type:luminance" maskUnits="userSpaceOnUse" x="11" y="233" width="484" height="276">
<path fill-rule="evenodd" clip-rule="evenodd" d="M137.596 233.929L11.4012 347.983C11.4012 347.983 240.402 475.119 401.396 504.95C562.39 534.781 466.39 380.1 466.39 380.1L175.038 293.037L132.04 288.038" fill="white"/>
</mask>
<g mask="url(#mask11_1165_928)">
<path d="M234.901 469.333C351.158 498.658 189.645 362.519 238.668 379.166C287.692 395.813 428.635 480.92 428.635 480.92L425.233 534.484L262.756 503.126" fill="#0FA379"/>
</g>
<path d="M137.596 233.929L11.4012 347.983C11.4012 347.983 240.402 475.119 401.396 504.95C562.39 534.781 466.39 380.1 466.39 380.1L175.038 293.037L132.04 288.038" stroke="black" stroke-width="0.5"/>
<path d="M-34.1205 640.933C-63.8525 525.525 -1.50245 478.38 64.8004 565.468C131.103 652.557 79.8968 520.61 76.9243 484.647C76.9243 484.647 133.246 641.825 141.01 502.867C148.774 363.909 227.028 500.362 227.028 500.362C227.028 500.362 205.028 695.327 200.492 704.914C195.956 714.501 -5.36964 654.545 -5.36964 654.545" fill="#0FA379"/>
</g>
<path fill-rule="evenodd" clip-rule="evenodd" d="M328.211 478.055L316.417 434.076C303.826 424.978 290.168 415.675 275.666 406.61L286.168 443.999L263.788 399.361C248.398 390.188 232.185 381.396 215.396 373.472L223.794 403.371L206.827 369.53C185.897 360.139 164.163 352.191 142.092 346.602L154.17 389.598L131.35 344.084C105.772 338.543 79.8522 336.339 54.3156 338.869L61.0251 362.756L49.3253 339.421C36.4281 340.995 23.7225 343.863 11.4012 347.983C11.4012 347.983 23.8272 365.879 47.6181 389.875L82.3407 386.468L57.9881 400.007C72.694 413.937 88.3115 426.876 104.737 438.735L132.172 424.301L113.112 444.623C122.538 451.09 132.584 457.435 143.235 463.495L161.285 453.998L149.239 466.842C163.849 474.847 178.958 481.908 194.473 487.982L234.901 469.333L206.968 492.607C223.094 498.259 239.602 502.759 256.367 506.073L287.397 491.759L267.753 508.126C308.089 514.724 352.74 514.864 401.396 504.95C401.396 504.95 372.907 476.327 328.222 442.772L328.211 478.055Z" stroke="black" stroke-width="0.5"/>
<path d="M254.098 436.118C253.698 430.558 252.533 425.079 250.634 419.837" stroke="black" stroke-width="0.5"/>
<path d="M147.148 438.957L150.592 438.262" stroke="black" stroke-width="0.5"/>
<path d="M106.613 373.956C106.038 369.203 104.003 364.743 100.789 361.19" stroke="black" stroke-width="0.5"/>
<path d="M404.551 504.297L438.223 518.613C450.218 515.146 462.871 511.105 475.79 506.411L446.928 494.542L486.261 502.479C499.69 497.277 513.285 491.364 526.616 484.657L503.535 475.165L533.355 481.183C549.665 472.58 565.461 462.753 579.93 451.544L546.739 437.895L586.844 445.988C603.021 432.534 617.255 417.212 628.303 399.786L609.864 392.203L630.426 396.353C635.819 387.405 640.298 377.938 643.794 368.094C643.794 368.094 626.313 367.098 599.344 370.279L584.3 393.956L587.795 371.828C571.693 374.241 555.769 377.722 540.13 382.249L535.675 406.774L532.256 384.637C523.494 387.403 514.503 390.621 505.392 394.366L502.461 410.5L500.3 396.51C487.995 401.798 476.043 407.869 464.516 414.684L456.291 449.525L455.4 420.306C443.833 427.721 432.808 435.946 422.408 444.92L416.096 471.661L415.469 451.114C391.313 473.39 369.107 501.598 351.279 537.322C351.279 537.322 383.504 533.459 426.873 521.781L404.551 504.297Z" fill="#1AB995"/>
<mask id="mask12_1165_928" style="mask-type:luminance" maskUnits="userSpaceOnUse" x="351" y="367" width="293" height="171">
<path fill-rule="evenodd" clip-rule="evenodd" d="M404.551 504.297L438.223 518.613C450.218 515.146 462.871 511.105 475.79 506.411L446.928 494.542L486.261 502.479C499.69 497.277 513.285 491.364 526.616 484.657L503.535 475.165L533.355 481.183C549.665 472.58 565.461 462.753 579.93 451.544L546.739 437.895L586.844 445.988C603.021 432.535 617.255 417.212 628.303 399.786L609.864 392.203L630.426 396.353C635.819 387.405 640.298 377.938 643.794 368.094C643.794 368.094 626.313 367.098 599.344 370.279L584.3 393.957L587.795 371.828C571.693 374.241 555.769 377.722 540.13 382.249L535.675 406.774L532.256 384.637C523.494 387.403 514.503 390.621 505.392 394.366L502.461 410.5L500.3 396.51C487.995 401.798 476.043 407.869 464.516 414.684L456.291 449.525L455.4 420.306C443.833 427.721 432.808 435.946 422.408 444.921L416.096 471.661L415.469 451.114C391.313 473.39 369.107 501.598 351.279 537.322C351.279 537.322 383.504 533.459 426.873 521.781L404.551 504.297Z" fill="white"/>
</mask>
<g mask="url(#mask12_1165_928)">
<path d="M653.459 504.509L643.794 368.094C643.794 368.094 449.905 450.143 351.279 537.322C252.654 624.502 398.092 640.327 398.092 640.327L597.508 498.942L621.97 474.188" fill="#1AB995"/>
<mask id="mask13_1165_928" style="mask-type:luminance" maskUnits="userSpaceOnUse" x="316" y="368" width="338" height="273">
<path fill-rule="evenodd" clip-rule="evenodd" d="M653.459 504.509L643.794 368.094C643.794 368.094 449.905 450.143 351.279 537.322C252.654 624.502 398.092 640.327 398.092 640.327L597.508 498.942L621.97 474.188" fill="white"/>
</mask>
<g mask="url(#mask13_1165_928)">
<path d="M456.291 449.525C380.146 508.624 546.303 473.774 511.484 496.575C476.666 519.375 352.993 566.477 352.993 566.477L320.782 537.789L421.109 450.426" fill="#0FA379"/>
</g>
<path d="M653.459 504.509L643.794 368.094C643.794 368.094 449.905 450.143 351.279 537.322C252.654 624.502 398.092 640.327 398.092 640.327L597.508 498.942L621.97 474.188" stroke="black" stroke-width="0.5"/>
<path d="M480.959 194.154C568.719 232.491 567.668 295.331 479.714 294.181C391.76 293.031 500.623 325.962 524.854 341.893C524.854 341.893 397.49 299.704 481.579 373.454C565.668 447.203 440.555 429.169 440.555 429.169C440.555 429.169 328.076 318.661 324.256 311.039C320.436 303.418 458.104 205.619 458.104 205.619" fill="#0FA379"/>
</g>
<path fill-rule="evenodd" clip-rule="evenodd" d="M404.551 504.297L438.223 518.613C450.218 515.146 462.871 511.105 475.79 506.411L446.928 494.542L486.261 502.479C499.69 497.277 513.285 491.364 526.616 484.657L503.535 475.165L533.355 481.183C549.665 472.58 565.461 462.753 579.93 451.544L546.739 437.895L586.844 445.988C603.021 432.534 617.255 417.212 628.303 399.786L609.864 392.203L630.426 396.353C635.819 387.405 640.298 377.938 643.794 368.094C643.794 368.094 626.313 367.098 599.344 370.279L584.3 393.956L587.795 371.828C571.693 374.241 555.769 377.722 540.13 382.249L535.675 406.774L532.256 384.637C523.494 387.403 514.503 390.621 505.392 394.366L502.461 410.5L500.3 396.51C487.995 401.798 476.043 407.869 464.516 414.684L456.291 449.525L455.4 420.306C443.833 427.721 432.808 435.946 422.408 444.92L416.096 471.661L415.469 451.114C391.313 473.39 369.107 501.598 351.279 537.322C351.279 537.322 383.504 533.459 426.873 521.781L404.551 504.297Z" stroke="black" stroke-width="0.5"/>
<path d="M467.801 478.135C471.517 480.636 475.562 482.612 479.82 484.006" stroke="black" stroke-width="0.5"/>
<path d="M518.981 408.998L517.716 411.524" stroke="black" stroke-width="0.5"/>
<path d="M580.195 415.525C583.488 417.516 587.318 418.437 591.158 418.161" stroke="black" stroke-width="0.5"/>
<rect x="67.1073" y="507.042" width="626.688" height="38.1606" fill="url(#paint0_linear_1165_928)"/>
<rect x="319.826" y="498.865" width="121.251" height="50.4266" fill="#7A24EA" stroke="black" stroke-width="0.5"/>
<path d="M96.5692 518.587L56.3037 491.935L123.211 412.585C201.926 422.277 248.422 351.434 382.842 428.967L380.65 513.97L169.834 493.698L96.5692 518.587Z" fill="white" stroke="black" stroke-width="0.5"/>
<path d="M31.5103 545.987L43.3175 515.7H48.1614L56.9411 492.077C146.857 493.84 292.885 402.658 381.287 514.112C381.287 514.112 340.011 529.632 336.983 545.987C232.838 522.969 124.454 552.65 31.5103 545.987Z" fill="white"/>
<mask id="mask14_1165_928" style="mask-type:luminance" maskUnits="userSpaceOnUse" x="31" y="458" width="351" height="89">
<path fill-rule="evenodd" clip-rule="evenodd" d="M31.5103 545.987L43.3175 515.7H48.1614L56.9411 492.077C146.857 493.84 292.885 402.658 381.287 514.112C381.287 514.112 340.011 529.632 336.983 545.987C232.838 522.969 124.454 552.65 31.5103 545.987Z" fill="white"/>
</mask>
<g mask="url(#mask14_1165_928)">
<path d="M31.5103 524.078C30.5702 539.787 246.641 534.423 241.804 537.105C236.967 539.787 114.656 560.271 112.84 561.593C111.023 562.916 41.9967 554.325 41.9967 554.325L26.2538 518.587" fill="#D6DCF2"/>
</g>
<path fill-rule="evenodd" clip-rule="evenodd" d="M31.5103 545.987L43.3175 515.7H48.1614L56.9411 492.077C146.857 493.84 292.885 402.658 381.287 514.112C381.287 514.112 340.011 529.632 336.983 545.987C232.838 522.969 124.454 552.65 31.5103 545.987Z" stroke="black" stroke-width="0.5"/>
<path d="M132.899 423.488L95.9637 474.975C277.007 424.094 346.034 449.534 373.886 487.089L376.308 438.631C269.741 379.876 205.71 425.911 132.899 423.488Z" fill="#D6DCF2"/>
<path d="M119.578 501.758C185.577 476.923 306.071 451.008 358.749 501.758C358.749 501.758 294.869 444.194 119.578 501.758Z" fill="#D6DCF2"/>
<path d="M100.959 523.716C166.958 513.213 287.452 502.253 340.13 523.716C340.13 523.716 276.25 499.371 100.959 523.716Z" fill="#D6DCF2"/>
<path d="M664.334 518.587L704.599 491.935L637.692 412.585C558.977 422.277 512.481 351.434 378.061 428.967L380.253 513.97L591.069 493.698L664.334 518.587Z" fill="white"/>
<mask id="mask15_1165_928" style="mask-type:luminance" maskUnits="userSpaceOnUse" x="378" y="392" width="327" height="127">
<path fill-rule="evenodd" clip-rule="evenodd" d="M664.334 518.587L704.599 491.935L637.692 412.585C558.977 422.277 512.481 351.434 378.061 428.967L380.253 513.97L591.069 493.698L664.334 518.587Z" fill="white"/>
</mask>
<g mask="url(#mask15_1165_928)">
<path d="M456.712 463.454C465.967 450.402 400.258 523.716 400.258 523.716H340.13L365.424 477.413" fill="white"/>
<path d="M456.712 463.454C465.967 450.402 400.258 523.716 400.258 523.716H340.13L365.424 477.413" stroke="black" stroke-width="0.5"/>
</g>
<path fill-rule="evenodd" clip-rule="evenodd" d="M664.334 518.587L704.599 491.935L637.692 412.585C558.977 422.277 512.481 351.434 378.061 428.967L380.253 513.97L591.069 493.698L664.334 518.587Z" stroke="black" stroke-width="0.5"/>
<path d="M729.393 545.987L717.585 515.7H712.741L703.962 492.077C614.046 493.84 468.018 402.658 379.616 514.112C379.616 514.112 420.892 529.632 423.92 545.987C528.065 522.969 636.449 552.65 729.393 545.987Z" fill="white" stroke="black" stroke-width="0.5"/>
<path d="M628.004 423.488L664.939 474.975C483.896 424.094 414.869 449.534 387.016 487.089L384.595 438.631C491.162 379.876 555.193 425.911 628.004 423.488Z" fill="#D6DCF2"/>
<path d="M641.325 501.758C575.326 476.923 454.832 451.008 402.154 501.758C402.154 501.758 466.034 444.194 641.325 501.758Z" fill="#D6DCF2"/>
<path d="M659.944 523.716C593.945 513.213 473.451 502.253 420.773 523.716C420.773 523.716 484.653 499.371 659.944 523.716Z" fill="#D6DCF2"/>
<path d="M307.259 258.522L243.682 303.952C243.682 303.952 379.895 408.648 378.987 518.587L379.918 437.514C379.918 437.514 398.083 329.392 307.259 258.522Z" fill="white" stroke="black" stroke-width="0.5"/>
<path d="M309.53 278.057L263.411 311.544C263.411 311.544 350.855 392.085 374.469 456.594L377.648 409.348C377.648 409.348 344.043 304.86 309.53 278.057Z" fill="#D6DCF2"/>
<path d="M730.333 539.787H428.039C425.516 539.792 423.178 541.108 421.868 543.262H339.035C337.725 541.108 335.387 539.792 332.864 539.787H30.5702C26.5565 539.795 23.3067 543.047 23.3067 547.056C23.3067 551.065 26.5565 554.318 30.5702 554.325H330.407C331.55 558.607 335.429 561.588 339.865 561.594H421.038C425.474 561.588 429.353 558.607 430.496 554.325H730.333C734.346 554.318 737.596 551.065 737.596 547.056C737.596 543.047 734.346 539.795 730.333 539.787V539.787Z" fill="#E43334" stroke="black" stroke-width="0.5"/>
<path d="M423.302 557.601C420.95 557.596 418.981 555.818 418.741 553.481C416.903 535.751 400.399 522.382 380.35 522.382C361.109 522.382 344.681 535.151 342.135 552.083C341.895 553.707 340.804 555.078 339.275 555.68C337.746 556.281 336.012 556.021 334.728 554.997C333.444 553.973 332.805 552.341 333.054 550.718C336.268 529.326 356.601 513.192 380.35 513.192C405.12 513.192 425.552 530.105 427.876 552.532C428.139 555.054 426.307 557.311 423.783 557.576C423.623 557.593 423.463 557.601 423.302 557.601Z" fill="#E43334" stroke="black" stroke-width="0.5"/>
<path d="M202.107 434.524L200.607 436.024" stroke="black" stroke-width="0.5"/>
<path d="M500.477 501.57L512.567 498.998" stroke="black" stroke-width="0.5"/>
<path d="M484.006 428.212C498.442 424.821 513.516 425.283 527.717 429.553" stroke="black" stroke-width="0.5"/>
<ellipse cx="299.437" cy="68.0383" rx="10.9945" ry="10.9986" fill="#485065" stroke="black" stroke-width="0.5"/>
<ellipse cx="282.439" cy="84.4894" rx="21.9613" ry="16.0821" fill="#485065" stroke="black" stroke-width="0.5"/>
<path d="M194.802 40.0418C192.385 40.8583 190.51 52.6287 191.201 54.8657C191.943 57.2673 218.953 92.8587 218.953 92.8587C218.953 92.8587 251.957 127.524 251.862 126.766C251.767 126.008 257.583 108.34 257.583 108.34L227.002 82.9492L198.342 52.7894C198.342 52.7894 202.636 31.7705 200.722 30.3168C198.807 28.863 196.912 43.2676 195.884 43.8584C194.856 44.4492 196.492 39.4963 194.802 40.0418Z" fill="#F9C1BB"/>
<mask id="mask16_1165_928" style="mask-type:luminance" maskUnits="userSpaceOnUse" x="191" y="30" width="67" height="97">
<path fill-rule="evenodd" clip-rule="evenodd" d="M194.802 40.0418C192.385 40.8583 190.51 52.6287 191.201 54.8657C191.943 57.2673 218.953 92.8587 218.953 92.8587C218.953 92.8587 251.957 127.524 251.862 126.766C251.767 126.008 257.583 108.34 257.583 108.34L227.002 82.9492L198.342 52.7894C198.342 52.7894 202.636 31.7705 200.722 30.3168C198.807 28.863 196.912 43.2676 195.884 43.8584C194.856 44.4492 196.492 39.4963 194.802 40.0418Z" fill="white"/>
</mask>
<g mask="url(#mask16_1165_928)">
<path d="M222.904 111.028C221.81 103.896 233.388 89.1548 233.388 89.1548L241.918 97.4642L235.762 107.481L225.503 111.028" fill="#ED707B"/>
</g>
<path fill-rule="evenodd" clip-rule="evenodd" d="M194.802 40.0418C192.385 40.8583 190.51 52.6287 191.201 54.8657C191.943 57.2673 218.953 92.8587 218.953 92.8587C218.953 92.8587 251.957 127.524 251.862 126.766C251.767 126.008 257.583 108.34 257.583 108.34L227.002 82.9492L198.342 52.7894C198.342 52.7894 202.636 31.7705 200.722 30.3168C198.807 28.863 196.912 43.2676 195.884 43.8584C194.856 44.4492 196.492 39.4963 194.802 40.0418Z" stroke="black" stroke-width="0.5"/>
<path d="M234.561 88.4654C227.61 91.1208 228.045 114.079 228.045 114.079C228.045 114.079 252.607 134.668 262.436 139.539L276.77 118.452C276.77 118.452 250.241 105.232 234.561 88.4654Z" fill="#1A80FD"/>
<mask id="mask17_1165_928" style="mask-type:luminance" maskUnits="userSpaceOnUse" x="228" y="88" width="49" height="52">
<path fill-rule="evenodd" clip-rule="evenodd" d="M234.561 88.4654C227.61 91.1208 228.045 114.08 228.045 114.08C228.045 114.08 252.607 134.668 262.436 139.539L276.77 118.452C276.77 118.452 250.241 105.232 234.561 88.4654Z" fill="white"/>
</mask>
<g mask="url(#mask17_1165_928)">
<path d="M258.606 124.579C251.263 131.356 237.677 121.685 237.677 121.685L255.349 137.702L258.606 124.579Z" fill="#1D62FC"/>
<path d="M244.68 87.3107C227.002 82.9492 232.095 126.785 232.095 126.785L211.303 107.604L227.002 82.9492L237.02 79.2721" fill="white"/>
<path d="M244.68 87.3107C227.002 82.9492 232.095 126.785 232.095 126.785L211.303 107.604L227.002 82.9492L237.02 79.2721" stroke="black" stroke-width="0.5"/>
<path d="M249.331 93.8184C234.01 94.3122 242.765 137.377 242.765 137.377" stroke="white" stroke-width="0.5"/>
</g>
<path fill-rule="evenodd" clip-rule="evenodd" d="M234.561 88.4654C227.61 91.1208 228.045 114.079 228.045 114.079C228.045 114.079 252.607 134.668 262.436 139.539L276.77 118.452C276.77 118.452 250.241 105.232 234.561 88.4654Z" stroke="black" stroke-width="0.5"/>
<path d="M248.879 233.24L297.47 232.882L302.094 246.686L250.984 249.489L248.879 233.24Z" fill="#F9C1BB"/>
<mask id="mask18_1165_928" style="mask-type:luminance" maskUnits="userSpaceOnUse" x="248" y="232" width="55" height="18">
<path fill-rule="evenodd" clip-rule="evenodd" d="M248.879 233.24L297.47 232.882L302.094 246.686L250.984 249.489L248.879 233.24Z" fill="white"/>
</mask>
<g mask="url(#mask18_1165_928)">
<path d="M298.797 251.151C273.871 252.303 288.32 239.178 282.352 233.473C276.384 227.769 272.062 251.049 272.062 251.049L273.168 255.746L291.761 253.704" fill="#ED707B"/>
</g>
<path fill-rule="evenodd" clip-rule="evenodd" d="M248.879 233.24L297.47 232.882L302.094 246.686L250.984 249.489L248.879 233.24V233.24Z" stroke="black" stroke-width="0.5"/>
<path d="M334.748 265.14C334.748 265.14 318.742 269.129 315.371 259.077C312 249.025 299.038 248.399 299.038 248.399L287.163 232.481L301.986 230.65C303.833 230.581 305.609 231.367 306.8 232.78L334.748 265.14Z" fill="#485065" stroke="black" stroke-width="0.5"/>
<path d="M282.145 231.195C283.981 245.259 275.412 258.721 275.412 258.721L191.758 262.478C181.578 262.935 172.547 256.003 170.369 246.059C168.923 239.459 170.757 232.568 175.293 227.557L229.025 168.214L264.395 184.112L240.525 232.419L282.145 231.195Z" fill="#2F387E"/>
<mask id="mask19_1165_928" style="mask-type:luminance" maskUnits="userSpaceOnUse" x="169" y="168" width="114" height="95">
<path fill-rule="evenodd" clip-rule="evenodd" d="M282.145 231.195C283.981 245.259 275.412 258.721 275.412 258.721L191.758 262.478C181.578 262.935 172.547 256.003 170.369 246.059C168.923 239.459 170.757 232.568 175.293 227.557L229.025 168.214L264.395 184.112L240.525 232.419L282.145 231.195Z" fill="white"/>
</mask>
<g mask="url(#mask19_1165_928)">
<path d="M267.468 220.307C283.141 230.752 256.455 265.921 256.455 265.921" stroke="white" stroke-width="0.5"/>
<path d="M266.837 245.026L203.474 245.315C197.186 245.344 193.907 237.841 198.197 233.243L237.932 190.654" stroke="white" stroke-width="0.5"/>
</g>
<path fill-rule="evenodd" clip-rule="evenodd" d="M282.145 231.195C283.981 245.259 275.412 258.721 275.412 258.721L191.758 262.478C181.578 262.935 172.547 256.003 170.369 246.059V246.059C168.923 239.459 170.757 232.568 175.293 227.557L229.025 168.214L264.395 184.112L240.525 232.419L282.145 231.195Z" stroke="black" stroke-width="0.5"/>
<path d="M210.192 324.76L206.984 373.199L192.864 376.793L193.817 325.664L210.192 324.76Z" fill="#F9C1BB"/>
<mask id="mask20_1165_928" style="mask-type:luminance" maskUnits="userSpaceOnUse" x="192" y="324" width="19" height="53">
<path fill-rule="evenodd" clip-rule="evenodd" d="M210.192 324.76L206.984 373.199L192.864 376.793L193.817 325.664L210.192 324.76Z" fill="white"/>
</mask>
<g mask="url(#mask20_1165_928)">
<path d="M179.319 360.098C200.804 361.323 195.877 343.426 208.491 339.407C221.106 335.389 184.321 335.797 184.321 335.797L182.512 347.641" fill="#ED707B"/>
</g>
<path fill-rule="evenodd" clip-rule="evenodd" d="M210.192 324.76L206.984 373.199L192.864 376.793L193.817 325.664L210.192 324.76V324.76Z" stroke="black" stroke-width="0.5"/>
<path d="M395.763 64.5313C398.131 65.9304 397.492 78.7655 396.266 80.9719C394.95 83.3407 355.854 118.693 355.854 118.693C355.854 118.693 315.799 140.229 316.067 139.451C316.336 138.672 314.344 122.622 314.344 122.622L352.253 102.637L389.194 77.193C389.194 77.193 389.336 54.0621 391.679 52.9542C394.022 51.8463 392.819 67.4651 393.773 68.3173C394.726 69.1694 394.101 63.5796 395.763 64.5313Z" fill="#F9C1BB"/>
<mask id="mask21_1165_928" style="mask-type:luminance" maskUnits="userSpaceOnUse" x="314" y="52" width="84" height="88">
<path fill-rule="evenodd" clip-rule="evenodd" d="M395.763 64.5313C398.131 65.9304 397.492 78.7655 396.266 80.9719C394.95 83.3407 355.854 118.693 355.854 118.693C355.854 118.693 315.799 140.229 316.067 139.451C316.336 138.672 314.344 122.622 314.344 122.622L352.253 102.637L389.194 77.193C389.194 77.193 389.336 54.0621 391.679 52.9542C394.022 51.8463 392.819 67.4651 393.773 68.3173C394.726 69.1694 394.101 63.5796 395.763 64.5313Z" fill="white"/>
</mask>
<g mask="url(#mask21_1165_928)">
<path d="M348.067 100.572C356.069 113.269 350.051 121.753 350.051 121.753L338.492 116.485L340.681 104.58" fill="#ED707B"/>
</g>
<path fill-rule="evenodd" clip-rule="evenodd" d="M395.763 64.5313C398.131 65.9304 397.492 78.7655 396.266 80.9719C394.95 83.3407 355.854 118.693 355.854 118.693C355.854 118.693 315.799 140.229 316.067 139.451C316.336 138.672 314.344 122.622 314.344 122.622L352.253 102.637L389.194 77.193C389.194 77.193 389.336 54.0621 391.679 52.9542C394.022 51.8463 392.819 67.4651 393.773 68.3173C394.726 69.1694 394.101 63.5796 395.763 64.5313Z" stroke="black" stroke-width="0.5"/>
<path d="M226.143 197.928L193.528 248.438C190.237 252.894 188.216 258.157 187.677 263.668L179.319 349.209C198.905 349.821 214.206 334.8 214.206 334.8L222.341 262.499C222.341 262.499 277.369 216.921 274.354 184.116C272.467 163.584 245.331 168.214 245.331 168.214" fill="#2F387E"/>
<mask id="mask22_1165_928" style="mask-type:luminance" maskUnits="userSpaceOnUse" x="179" y="167" width="96" height="183">
<path fill-rule="evenodd" clip-rule="evenodd" d="M226.143 197.928L193.528 248.438C190.237 252.894 188.216 258.157 187.677 263.668L179.319 349.209C198.905 349.821 214.206 334.8 214.206 334.8L222.341 262.499C222.341 262.499 277.369 216.921 274.354 184.116C272.467 163.584 245.331 168.214 245.331 168.214" fill="white"/>
</mask>
<g mask="url(#mask22_1165_928)">
<path d="M245.331 168.214C193.09 172.626 282.608 181.031 256.279 227.271C229.95 273.512 286.905 215.357 286.905 215.357L281.933 173.653L245.331 168.214Z" fill="#111944"/>
<ellipse cx="195.708" cy="254.118" rx="7.24986" ry="3.35806" fill="#F9C1BB" stroke="black" stroke-width="0.5"/>
<path d="M169.884 329.503C208.491 339.407 219.802 314.724 219.802 314.724" stroke="white" stroke-width="0.5"/>
<path d="M201.528 329.566L208.507 258.01C208.729 255.738 209.485 253.552 210.715 251.629L244.762 198.411" stroke="white" stroke-width="0.5"/>
<path d="M241.67 187.461C239.755 201.145 257.583 207.166 257.583 207.166L241.67 187.461Z" fill="#2F387E"/>
<path d="M241.67 187.461C239.755 201.145 257.583 207.166 257.583 207.166" stroke="black" stroke-width="0.5"/>
</g>
<path d="M226.143 197.928L193.528 248.438C190.237 252.894 188.216 258.157 187.677 263.668L179.319 349.209C198.905 349.821 214.206 334.8 214.206 334.8L222.341 262.499C222.341 262.499 277.369 216.921 274.354 184.116C272.467 163.584 245.331 168.214 245.331 168.214" stroke="black" stroke-width="0.5"/>
<path d="M172.37 407.153C172.37 407.153 170.661 388.769 180.943 386.147C191.224 383.526 190.418 374.365 190.418 374.365L208.491 362.866L207.909 378.895C207.848 380.557 207.025 382.098 205.676 383.073L172.37 407.153Z" fill="#485065" stroke="black" stroke-width="0.5"/>
<path d="M258.614 124.585C254.796 129.966 251.215 137.381 251.249 146.241L219.802 170.022C240.53 184.914 277.587 192.679 277.587 192.679L315.635 122.862C315.635 122.862 287.914 112.451 267.6 114.981" fill="#1A80FD"/>
<mask id="mask23_1165_928" style="mask-type:luminance" maskUnits="userSpaceOnUse" x="219" y="114" width="97" height="79">
<path fill-rule="evenodd" clip-rule="evenodd" d="M258.614 124.585C254.796 129.966 251.215 137.381 251.249 146.241L219.802 170.022C240.53 184.914 277.587 192.679 277.587 192.679L315.635 122.862C315.635 122.862 287.914 112.451 267.6 114.981" fill="white"/>
</mask>
<g mask="url(#mask23_1165_928)">
<path d="M287.88 146.411C306.778 159.548 267.651 196.486 248.834 184.333C230.017 172.18 259.331 213.649 259.331 213.649L311.271 196.811L311.818 168.074L309.629 136.875" fill="#1D62FC"/>
<path d="M273.679 111.833C254.255 126.687 269.253 141.607 294.515 116.913L273.679 111.833Z" fill="white"/>
<path d="M273.679 111.833C254.255 126.687 269.253 141.607 294.515 116.913" stroke="black" stroke-width="0.5"/>
<path d="M221.881 158.177C195.618 162.556 274.299 190.069 283.838 189.632" stroke="black" stroke-width="0.5"/>
</g>
<path d="M258.614 124.585C254.796 129.966 251.215 137.381 251.249 146.241L219.802 170.022C240.53 184.914 277.587 192.679 277.587 192.679L315.635 122.862C315.635 122.862 287.914 112.451 267.6 114.981" stroke="black" stroke-width="0.5"/>
<path d="M299.823 118.118C299.823 118.118 319.598 119.478 347.352 103.579C353.702 114.772 351.034 124.831 351.034 124.831C351.034 124.831 310.405 149.873 293.79 147.482C292.063 147.263 290.368 146.841 288.74 146.224" fill="#1A80FD"/>
<mask id="mask24_1165_928" style="mask-type:luminance" maskUnits="userSpaceOnUse" x="288" y="103" width="64" height="45">
<path fill-rule="evenodd" clip-rule="evenodd" d="M299.823 118.118C299.823 118.118 319.598 119.478 347.352 103.579C353.702 114.772 351.034 124.831 351.034 124.831C351.034 124.831 310.405 149.873 293.79 147.482C292.063 147.263 290.368 146.841 288.74 146.224" fill="white"/>
</mask>
<g mask="url(#mask24_1165_928)">
<path d="M336.603 99.0612C348.307 100.965 349.188 123.419 347.272 131.356C345.357 139.293 356.848 126.785 356.848 126.785L354.386 93.8184" fill="white"/>
<path d="M336.603 99.0612C348.307 100.965 349.188 123.419 347.272 131.356C345.357 139.293 356.848 126.785 356.848 126.785L354.386 93.8184" stroke="black" stroke-width="0.5"/>
<path d="M326.48 96.9062C339.834 109.184 333.593 145.314 333.593 145.314" stroke="white" stroke-width="0.5"/>
</g>
<path d="M299.823 118.118C299.823 118.118 319.598 119.478 347.352 103.579C353.702 114.772 351.034 124.831 351.034 124.831C351.034 124.831 310.405 149.873 293.79 147.482C292.063 147.263 290.368 146.841 288.74 146.224" stroke="black" stroke-width="0.5"/>
<path d="M275.742 102.2L274.27 114.57C274.27 114.57 262.893 124.699 270.173 126.573C277.713 128.514 290.995 116.47 290.995 116.47V94.8593L275.742 102.2Z" fill="#F9C1BB"/>
<mask id="mask25_1165_928" style="mask-type:luminance" maskUnits="userSpaceOnUse" x="267" y="94" width="24" height="33">
<path fill-rule="evenodd" clip-rule="evenodd" d="M275.742 102.2L274.27 114.57C274.27 114.57 262.893 124.699 270.173 126.573C277.713 128.514 290.995 116.47 290.995 116.47V94.8593L275.742 102.2Z" fill="white"/>
</mask>
<g mask="url(#mask25_1165_928)">
<path d="M272.436 115.792C283.127 114.137 281.615 106.741 281.615 106.741L273.043 104.423L272.436 115.792Z" fill="#ED707B"/>
</g>
<path fill-rule="evenodd" clip-rule="evenodd" d="M275.742 102.2L274.27 114.57C274.27 114.57 262.893 124.699 270.173 126.573C277.713 128.514 290.995 116.47 290.995 116.47V94.8593L275.742 102.2Z" stroke="black" stroke-width="0.5"/>
<path d="M290.246 88.9238L290.719 79.2721L271.105 82.2264C268.201 82.6639 266.042 85.3115 266.042 88.4357V99.3851C266.042 105.219 271.186 109.503 276.502 108.095L281.615 106.742" fill="#F9C1BB"/>
<mask id="mask26_1165_928" style="mask-type:luminance" maskUnits="userSpaceOnUse" x="266" y="79" width="25" height="30">
<path fill-rule="evenodd" clip-rule="evenodd" d="M290.246 88.9238L290.719 79.2721L271.105 82.2264C268.201 82.6639 266.042 85.3115 266.042 88.4357V99.3851C266.042 105.219 271.186 109.503 276.502 108.095L281.615 106.742" fill="white"/>
</mask>
<g mask="url(#mask26_1165_928)">
<ellipse opacity="0.27" cx="2.62253" cy="1.34233" rx="2.62253" ry="1.34233" transform="matrix(0.97106 -0.238837 0.239318 0.970941 274.877 95.6284)" fill="#ED707B"/>
<ellipse opacity="0.27" cx="2.62253" cy="1.34233" rx="2.62253" ry="1.34233" transform="matrix(0.97106 -0.238837 0.239318 0.970941 265.741 97.6754)" fill="#ED707B"/>
<rect width="2.14886" height="3.96495" rx="0.45868" transform="matrix(0.991228 -0.132162 0.132438 0.991191 267.557 92.2136)" fill="black"/>
<rect width="2.14888" height="3.96495" rx="0.45868" transform="matrix(0.991228 -0.132162 0.132441 0.991191 274.855 90.6207)" fill="black"/>
<path d="M268.022 89.5956C265.933 90.5196 266.69 91.6249 268.033 91.1325C269.377 90.6401 269.387 88.9919 268.022 89.5956Z" fill="black"/>
<path d="M275.511 87.8923C277.769 88.2367 277.48 89.3887 276.055 89.2655C274.629 89.1423 274.035 87.6673 275.511 87.8923Z" fill="black"/>
<path d="M274.107 95.0801C274.312 95.8991 273.471 95.7651 272.533 96.0004C271.595 96.2358 270.916 96.7512 270.71 95.9323C270.505 95.1133 271.099 94.2588 272.037 94.0234C272.975 93.7881 273.902 94.2612 274.107 95.0801Z" fill="#ED707B"/>
<path d="M271.459 100.524C273.576 105.413 277.903 102.181 277.266 98.9876C277.23 98.8231 277.095 98.6982 276.928 98.6752C276.223 98.5702 274.218 98.4675 271.627 100.013C271.452 100.118 271.38 100.336 271.459 100.524Z" fill="#C1525F"/>
<mask id="mask27_1165_928" style="mask-type:luminance" maskUnits="userSpaceOnUse" x="271" y="98" width="7" height="6">
<path fill-rule="evenodd" clip-rule="evenodd" d="M271.459 100.524C273.576 105.413 277.903 102.181 277.266 98.9876C277.23 98.8231 277.095 98.6982 276.928 98.6752C276.223 98.5702 274.218 98.4675 271.627 100.013C271.452 100.118 271.38 100.336 271.459 100.524Z" fill="white"/>
</mask>
<g mask="url(#mask27_1165_928)">
<ellipse cx="2.67034" cy="2.38378" rx="2.67034" ry="2.38378" transform="matrix(0.845058 -0.534675 0.53549 0.844541 272.22 101.921)" fill="#993443"/>
<path d="M272.167 99.4968C272.253 99.8326 272.4 100.281 272.509 100.342C273.178 100.718 275.739 99.8317 276.023 99.4493C276.102 99.3429 275.843 98.2561 275.843 98.2561L272.52 99.214" fill="white"/>
</g>
</g>
<path d="M290.246 88.9238L290.719 79.2721L271.105 82.2264C268.201 82.6639 266.042 85.3115 266.042 88.4357V99.3851C266.042 105.219 271.186 109.503 276.502 108.095L281.615 106.742" stroke="black" stroke-width="0.5"/>
<path d="M285.858 96.127C293.875 96.127 300.374 90.2083 300.374 82.9077C300.374 75.6068 293.875 69.6883 285.858 69.6883C282.315 69.6672 278.875 70.8791 276.13 73.1158C275.913 73.0994 275.706 73.0526 275.485 73.0526C271.646 73.0216 268.275 75.5987 267.302 79.3092" fill="#485065"/>
<path d="M267.302 78.4944C266.22 82.918 268.787 87.4154 273.149 88.7378C275.637 93.1305 280.572 96.127 286.262 96.127" fill="#485065"/>
<path d="M267.302 78.4944C266.22 82.918 268.787 87.4154 273.149 88.7378C275.637 93.1305 280.572 96.127 286.262 96.127" stroke="black" stroke-width="0.5"/>
<path d="M281.406 96.127C293.717 85.197 295.07 98.1857 287.41 101.969L281.406 96.127Z" fill="#F9C1BB"/>
<path d="M281.406 96.127C293.717 85.197 295.07 98.1857 287.41 101.969" stroke="black" stroke-width="0.5"/>
<path d="M258.892 136.479L254.793 161.669L279.599 152.478L258.892 136.479Z" fill="white" stroke="black" stroke-width="0.5"/>
<ellipse cx="257.346" cy="159.394" rx="9.83519" ry="9.42847" fill="#FDD504" stroke="black" stroke-width="0.5"/>
<path d="M284.576 159.904L270.841 163.743L266.837 150.576L280.572 146.738L284.576 159.904Z" fill="#1A80FD" stroke="black" stroke-width="0.5"/>
<path d="M280.398 76.429C279.858 78.5341 281.552 80.9172 283.718 81.0969" stroke="black" stroke-width="0.5"/>
<path d="M287.04 96.4589C287.444 96.5184 287.82 96.7021 288.114 96.9845C288.233 97.0835 288.314 97.22 288.345 97.3715C288.338 97.6131 288.213 97.8362 288.011 97.9689C287.664 98.2441 287.292 98.4864 286.9 98.6928" stroke="black" stroke-width="0.5"/>
<path d="M221.569 86.3063L221.214 87.404" stroke="black" stroke-width="0.5"/>
<path d="M365.551 102.002L366.61 104.571" stroke="black" stroke-width="0.5"/>
<path d="M217.201 259.941C218.387 261.508 220.289 262.364 222.249 262.213" stroke="black" stroke-width="0.5"/>
<path d="M182.874 375.965L189.393 378.284" stroke="black" stroke-width="0.5"/>
<path d="M190.239 377.396C188.345 375.408 186.69 373.205 185.308 370.832" stroke="black" stroke-width="0.5"/>
<path d="M303.182 247.925L300.699 253.389" stroke="black" stroke-width="0.5"/>
<path d="M304.392 247.353C305.413 249.011 305.945 250.924 305.925 252.871" stroke="black" stroke-width="0.5"/>
<path d="M502.648 148.609C481.616 129.297 518.857 109.998 484.965 101.686C460.849 95.7717 461.836 126.694 452.495 128.693C443.154 130.692 423.914 141.629 434.898 163.382C445.882 185.134 453.521 184.731 453.521 184.731C503.947 241.724 533.391 176.837 502.648 148.609Z" fill="#1A80FD" stroke="black" stroke-width="0.5"/>
<path d="M491.171 372.643L495.536 401.261L487.315 416.969L484.898 409.197L477.898 377.243L491.171 372.643Z" fill="#F9C1BB"/>
<mask id="mask28_1165_928" style="mask-type:luminance" maskUnits="userSpaceOnUse" x="477" y="372" width="19" height="45">
<path fill-rule="evenodd" clip-rule="evenodd" d="M491.171 372.643L495.536 401.261L487.315 416.969L484.898 409.197L477.898 377.243L491.171 372.643Z" fill="white"/>
</mask>
<g mask="url(#mask28_1165_928)">
<path d="M473.469 398.862C487.744 398.574 495.306 386.055 494.852 384.904C494.397 383.753 477.898 383.465 477.898 383.465L474.578 386.343" fill="#ED707B"/>
</g>
<path fill-rule="evenodd" clip-rule="evenodd" d="M491.171 372.643L495.536 401.261L487.315 416.969L484.898 409.197L477.898 377.243L491.171 372.643V372.643Z" stroke="black" stroke-width="0.5"/>
<path d="M483.863 405.995C483.863 405.995 493.477 408.762 494.383 393.7L500.272 407.464C500.809 408.718 500.761 410.145 500.14 411.36L483.66 443.652C480.194 442.274 478.322 438.282 479.401 434.528C481.245 428.118 486.247 414.637 483.863 405.995Z" fill="#485065" stroke="black" stroke-width="0.5"/>
<path d="M518.945 305.087L545.869 310.066L557.127 323.433H548.912L518.966 318.659L518.945 305.087Z" fill="#F9C1BB"/>
<mask id="mask29_1165_928" style="mask-type:luminance" maskUnits="userSpaceOnUse" x="518" y="305" width="40" height="19">
<path fill-rule="evenodd" clip-rule="evenodd" d="M518.945 305.087L545.869 310.066L557.127 323.433H548.912L518.966 318.659L518.945 305.087Z" fill="white"/>
</mask>
<g mask="url(#mask29_1165_928)">
<path d="M536.39 330.658C536.667 314.542 534.225 302.603 530.041 303.68C525.857 304.758 520.59 324.902 520.59 324.902L531.397 328.552" fill="#ED707B"/>
</g>
<path fill-rule="evenodd" clip-rule="evenodd" d="M518.945 305.087L545.869 310.066L557.127 323.433H548.912L518.966 318.659L518.945 305.087V305.087Z" stroke="black" stroke-width="0.5"/>
<path d="M546.214 323.304C546.214 323.304 551.132 314.097 538.023 308.268L549.222 306.021C550.31 305.801 551.435 306.154 552.201 306.956L579.669 335.81C577.293 338.832 573.119 339.404 570.135 337.096C565.04 333.155 554.697 323.741 546.214 323.304Z" fill="#485065" stroke="black" stroke-width="0.5"/>
<path d="M474.221 391.363C481.833 395.236 503.253 376.819 503.253 376.819L480.615 309.702L482.029 199.689L444.379 209.321L448.549 305.932C448.611 307.363 448.855 308.781 449.276 310.151L474.221 391.363Z" fill="#1A80FD"/>
<mask id="mask30_1165_928" style="mask-type:luminance" maskUnits="userSpaceOnUse" x="444" y="199" width="60" height="193">
<path fill-rule="evenodd" clip-rule="evenodd" d="M474.221 391.363C481.833 395.236 503.253 376.819 503.253 376.819L480.615 309.702L482.029 199.689L444.379 209.321L448.549 305.932C448.611 307.363 448.855 308.781 449.276 310.151L474.221 391.363Z" fill="white"/>
</mask>
<g mask="url(#mask30_1165_928)">
<path d="M448.202 378.815C480.461 388.94 503.253 360.058 503.253 360.058" stroke="white" stroke-width="0.5"/>
<path d="M464.917 282.638L462.962 310.972L482.11 375.223" stroke="white" stroke-width="0.5"/>
</g>
<path fill-rule="evenodd" clip-rule="evenodd" d="M474.221 391.363C481.833 395.236 503.253 376.819 503.253 376.819L480.615 309.702L482.029 199.689L444.379 209.321L448.549 305.932C448.611 307.363 448.855 308.781 449.276 310.151L474.221 391.363Z" stroke="black" stroke-width="0.5"/>
<path d="M455.872 209.476L477.938 198.408C488.499 201.999 500.879 214.761 499.223 236.809L486.999 297.977L532.886 298.567C532.886 298.567 535.949 317.758 531.397 328.552L467.629 325.567C459.194 325.248 452.769 317.833 453.592 309.366L454.868 253.475" fill="#1A80FD"/>
<mask id="mask31_1165_928" style="mask-type:luminance" maskUnits="userSpaceOnUse" x="453" y="198" width="81" height="131">
<path fill-rule="evenodd" clip-rule="evenodd" d="M455.872 209.476L477.938 198.408C488.499 201.999 500.879 214.761 499.223 236.809L486.999 297.977L532.886 298.567C532.886 298.567 535.949 317.758 531.397 328.552L467.629 325.567C459.194 325.248 452.769 317.833 453.592 309.366L454.868 253.475" fill="white"/>
</mask>
<g mask="url(#mask31_1165_928)">
<path d="M448.663 218.674C534.576 225.803 469.713 281.843 500.007 292.98C506.223 295.265 518.945 233.24 518.945 233.24L495.536 184.862L456.031 204.515" fill="#1D62FC"/>
<path d="M520.143 289.023C533.887 311.462 515.177 341.402 515.177 341.402" stroke="white" stroke-width="0.5"/>
<path d="M523.698 311.471L479.633 309.998C476.875 309.903 474.277 308.68 472.448 306.615C470.619 304.551 469.721 301.825 469.963 299.079L475.171 239.583" stroke="white" stroke-width="0.5"/>
<path d="M468.048 227.068C470.741 244.727 486.717 242.033 486.717 242.033" stroke="white" stroke-width="0.5"/>
</g>
<path d="M455.872 209.476L477.938 198.408C488.499 201.999 500.879 214.761 499.223 236.809L486.999 297.977L532.886 298.567C532.886 298.567 535.949 317.758 531.397 328.552L467.629 325.567C459.194 325.248 452.769 317.833 453.592 309.366L454.868 253.475" stroke="black" stroke-width="0.5"/>
<path d="M439.527 94.6135C439.527 94.6135 449.316 80.8865 450.791 80.2135C452.266 79.5405 463.431 71.8464 464.449 71.6928C465.466 71.5392 462.721 68.4753 456.108 72.9172C456.108 72.9172 450.613 70.5323 462.739 61.0595C466.568 58.0686 456.743 54.9646 445.362 69.8935C437.339 80.4181 427.928 87.4669 427.928 87.4669L439.527 94.6135Z" fill="#F9C1BB"/>
<mask id="mask32_1165_928" style="mask-type:luminance" maskUnits="userSpaceOnUse" x="427" y="58" width="38" height="37">
<path fill-rule="evenodd" clip-rule="evenodd" d="M439.527 94.6135C439.527 94.6135 449.316 80.8865 450.791 80.2135C452.266 79.5405 463.431 71.8464 464.449 71.6928C465.466 71.5392 462.721 68.4753 456.108 72.9172C456.108 72.9172 450.613 70.5323 462.739 61.0595C466.568 58.0686 456.743 54.9646 445.362 69.8935C437.339 80.4181 427.928 87.4669 427.928 87.4669L439.527 94.6135Z" fill="white"/>
</mask>
<g mask="url(#mask32_1165_928)">
<path d="M438.302 75.7577C442.494 74.3019 446.375 82.9672 449.216 82.4819C452.057 81.9966 448.869 85.8094 448.869 85.8094L440.311 84.5962L440.103 81.7194" fill="#ED707B"/>
</g>
<path fill-rule="evenodd" clip-rule="evenodd" d="M439.527 94.6135C439.527 94.6135 449.316 80.8865 450.791 80.2135C452.266 79.5405 463.431 71.8464 464.449 71.6928C465.466 71.5392 462.721 68.4753 456.108 72.9172C456.108 72.9172 450.613 70.5323 462.739 61.0595C466.568 58.0686 456.743 54.9646 445.362 69.8935C437.339 80.4181 427.928 87.4669 427.928 87.4669L439.527 94.6135Z" stroke="black" stroke-width="0.5"/>
<path d="M547.47 143.782C547.47 143.782 562.981 133.445 563.534 132.181C564.086 130.918 570.879 121.099 570.948 120.258C571.017 119.416 574.326 121.352 570.418 127.156C570.418 127.156 576.983 127.831 582.7 116.103C584.579 112.249 588.404 124.914 574.359 135.602C564.458 143.138 558.165 151.467 558.165 151.467L547.47 143.782Z" fill="#F9C1BB"/>
<mask id="mask33_1165_928" style="mask-type:luminance" maskUnits="userSpaceOnUse" x="547" y="115" width="38" height="37">
<path fill-rule="evenodd" clip-rule="evenodd" d="M547.47 143.782C547.47 143.782 562.981 133.445 563.534 132.181C564.086 130.918 570.879 121.099 570.948 120.258C571.017 119.416 574.326 121.352 570.418 127.156C570.418 127.156 576.983 127.831 582.7 116.103C584.579 112.249 588.404 124.914 574.359 135.602C564.458 143.138 558.165 151.467 558.165 151.467L547.47 143.782Z" fill="white"/>
</mask>
<g mask="url(#mask33_1165_928)">
<path d="M566.88 154.935C569.882 137.399 556.347 135.742 556.347 135.742L554.268 149.62L560.921 152.809L568.266 152.532" fill="#ED707B"/>
</g>
<path fill-rule="evenodd" clip-rule="evenodd" d="M547.47 143.782C547.47 143.782 562.981 133.445 563.534 132.181C564.086 130.918 570.879 121.099 570.948 120.258C571.017 119.416 574.326 121.352 570.418 127.156C570.418 127.156 576.983 127.831 582.7 116.103C584.579 112.249 588.404 124.914 574.359 135.602C564.458 143.138 558.165 151.467 558.165 151.467L547.47 143.782Z" stroke="black" stroke-width="0.5"/>
<path d="M438.605 74.4055C441.852 74.4055 448.939 90.1296 448.939 90.1296L433.188 114.643L458.253 144.851L443.385 169.769L410.222 120.205C407.289 116.323 407.442 111.259 410.606 107.518L438.605 74.4055Z" fill="#1AB995"/>
<mask id="mask34_1165_928" style="mask-type:luminance" maskUnits="userSpaceOnUse" x="408" y="74" width="51" height="96">
<path fill-rule="evenodd" clip-rule="evenodd" d="M438.605 74.4055C441.852 74.4055 448.939 90.1296 448.939 90.1296L433.188 114.643L458.253 144.851L443.385 169.769L410.222 120.205C407.289 116.323 407.442 111.259 410.606 107.518L438.605 74.4055Z" fill="white"/>
</mask>
<g mask="url(#mask34_1165_928)">
<path opacity="0.1" d="M445.259 151.124C429.826 164.579 421.228 174.958 421.228 174.958L443.385 169.769L445.259 151.124Z" fill="#1E216E"/>
<path d="M448.262 145.125C438.55 155.863 420.618 135.742 420.618 135.742L423.601 163.615L444.849 174.127L448.262 145.125Z" fill="#0FA379"/>
</g>
<path fill-rule="evenodd" clip-rule="evenodd" d="M438.605 74.4055C441.852 74.4055 448.939 90.1296 448.939 90.1296L433.188 114.643L458.253 144.851L443.385 169.769L410.222 120.205C407.289 116.323 407.442 111.259 410.606 107.518L438.605 74.4055Z" stroke="black" stroke-width="0.5"/>
<path d="M446.216 146.731L437.001 153.967C428.831 160.175 430.057 172.617 439.514 176.842C439.728 176.938 439.942 177.027 440.158 177.11C455.555 183.034 430.871 213.725 433.188 214.45C471.513 226.453 493.279 209.117 493.279 209.117C493.279 209.117 482.163 177.107 495.488 164.33L498.261 153.79C497.705 150.483 495.062 147.851 491.626 147.184L454.449 140.266" fill="#1AB995"/>
<mask id="mask35_1165_928" style="mask-type:luminance" maskUnits="userSpaceOnUse" x="431" y="140" width="68" height="79">
<path fill-rule="evenodd" clip-rule="evenodd" d="M446.216 146.731L437.001 153.967C428.831 160.175 430.057 172.617 439.514 176.842C439.728 176.938 439.942 177.027 440.158 177.11C455.555 183.034 430.871 213.725 433.188 214.45C471.513 226.453 493.279 209.117 493.279 209.117C493.279 209.117 482.163 177.107 495.488 164.33L498.261 153.79C497.705 150.483 495.062 147.851 491.626 147.184L454.449 140.266" fill="white"/>
</mask>
<g mask="url(#mask35_1165_928)">
<path d="M475.3 167.506C505.475 196.511 460.286 226.318 433.188 214.45C406.09 202.582 412.497 236.448 412.497 236.448L505.178 235.224L493.101 176.06L490.015 162.187L481.775 162.799" fill="#0FA379"/>
<path d="M458.028 137.89C445.035 151.274 451.698 155.248 483.269 145.821L484.67 142.379" fill="#F9C1BB"/>
<path d="M458.028 137.89C445.035 151.274 451.698 155.248 483.269 145.821V145.821L484.67 142.379" stroke="black" stroke-width="0.5"/>
</g>
<path d="M446.216 146.731L437.001 153.967C428.831 160.175 430.057 172.617 439.514 176.842C439.728 176.938 439.942 177.027 440.158 177.11C455.555 183.034 430.871 213.725 433.188 214.45C471.513 226.453 493.279 209.117 493.279 209.117C493.279 209.117 482.163 177.107 495.488 164.33L498.261 153.79C497.705 150.483 495.062 147.851 491.626 147.184L454.449 140.266" stroke="black" stroke-width="0.5"/>
<path d="M492.881 147.526L526.36 151.979L557.857 135.742C557.857 135.742 562.26 137.651 564.986 151.766L537.058 171.358C533.889 173.562 530.009 174.503 526.181 173.996L475.3 167.506" fill="#1AB995"/>
<mask id="mask36_1165_928" style="mask-type:luminance" maskUnits="userSpaceOnUse" x="475" y="135" width="90" height="40">
<path fill-rule="evenodd" clip-rule="evenodd" d="M492.881 147.526L526.36 151.979L557.857 135.742C557.857 135.742 562.26 137.651 564.986 151.766L537.058 171.358C533.889 173.562 530.009 174.503 526.181 173.996L475.3 167.506" fill="white"/>
</mask>
<g mask="url(#mask36_1165_928)">
<path d="M532.648 116.023L534.549 119.877C534.875 120.539 535.507 120.998 536.238 121.105L540.489 121.723C541.334 121.847 542.036 122.439 542.3 123.251C542.564 124.063 542.344 124.954 541.732 125.55L538.656 128.55C538.127 129.066 537.886 129.808 538.011 130.536L538.737 134.771C538.882 135.612 538.537 136.463 537.846 136.965C537.155 137.467 536.239 137.534 535.482 137.137L531.68 135.137C531.027 134.793 530.246 134.793 529.592 135.137L525.79 137.137C525.034 137.534 524.117 137.467 523.426 136.965C522.736 136.463 522.39 135.612 522.535 134.771L523.262 130.536C523.387 129.808 523.145 129.065 522.617 128.55L519.54 125.55C518.929 124.954 518.709 124.063 518.972 123.251C519.236 122.439 519.938 121.847 520.783 121.723L525.035 121.105C525.766 120.998 526.397 120.539 526.724 119.877L528.625 116.023C529.002 115.258 529.782 114.773 530.636 114.773C531.491 114.773 532.271 115.258 532.648 116.023Z" fill="#1A80FD" stroke="black" stroke-width="0.5"/>
</g>
<path d="M492.881 147.526L526.36 151.979L557.857 135.742C557.857 135.742 562.26 137.651 564.986 151.766L537.058 171.358C533.889 173.562 530.009 174.503 526.181 173.996L475.3 167.506" stroke="black" stroke-width="0.5"/>
<path d="M457.363 142.417L474.142 120.637L483.494 129.454L476.245 145.671" fill="#F9C1BB"/>
<mask id="mask37_1165_928" style="mask-type:luminance" maskUnits="userSpaceOnUse" x="457" y="120" width="27" height="26">
<path fill-rule="evenodd" clip-rule="evenodd" d="M457.363 142.417L474.143 120.637L483.494 129.454L476.245 145.671" fill="white"/>
</mask>
<g mask="url(#mask37_1165_928)">
<path d="M474.468 134.314C474.468 134.314 461.934 135.782 455.928 143.234C451.394 148.858 464.052 118.825 464.052 118.825L474.468 134.314Z" fill="#ED707B"/>
</g>
<path d="M457.363 142.417L474.142 120.637L483.494 129.454L476.245 145.671" stroke="black" stroke-width="0.5"/>
<path d="M483.568 129.512L484.894 127.829C480.843 120.721 478.239 109.31 479.584 103.921C475.607 104.014 468.419 106.452 462.61 120.907C459.187 129.424 468.451 132.951 474.468 134.314" fill="#F9C1BB"/>
<mask id="mask38_1165_928" style="mask-type:luminance" maskUnits="userSpaceOnUse" x="461" y="103" width="24" height="32">
<path fill-rule="evenodd" clip-rule="evenodd" d="M483.568 129.512L484.894 127.829C480.843 120.721 478.239 109.31 479.584 103.921C475.607 104.014 468.419 106.452 462.61 120.907C459.187 129.424 468.451 132.951 474.468 134.314" fill="white"/>
</mask>
<g mask="url(#mask38_1165_928)">
<ellipse opacity="0.27" cx="1.90037" cy="2.98074" rx="1.90037" ry="2.98074" transform="matrix(0.197085 -0.980386 0.980468 0.19668 474.949 124.172)" fill="#ED707B"/>
<ellipse opacity="0.27" cx="1.90037" cy="2.98072" rx="1.90037" ry="2.98072" transform="matrix(0.197083 -0.980387 0.980467 0.196681 460.812 119.96)" fill="#ED707B"/>
<path d="M469.965 112.326C470.61 112.571 470.933 113.293 470.687 113.937L469.934 115.911C469.688 116.555 468.966 116.878 468.321 116.633C467.676 116.387 467.353 115.666 467.599 115.022L468.352 113.047C468.598 112.403 469.32 112.08 469.965 112.326L469.965 112.326Z" fill="black"/>
<path d="M478.891 114.974C479.536 115.22 479.859 115.941 479.613 116.585L478.859 118.56C478.614 119.204 477.891 119.527 477.247 119.281C476.602 119.036 476.278 118.314 476.524 117.67L477.278 115.696C477.396 115.386 477.632 115.137 477.935 115.001C478.237 114.866 478.581 114.856 478.891 114.974V114.974Z" fill="black"/>
<path d="M470.719 109.461C468.072 109.249 468.234 110.798 469.88 111.039C471.526 111.28 472.449 109.6 470.719 109.461Z" fill="black"/>
<path d="M479.901 112.102C482.019 113.705 481.087 114.723 479.697 113.808C478.308 112.892 478.517 111.055 479.901 112.102Z" fill="black"/>
<path d="M473.517 118.421C473.308 119.24 472.69 118.736 471.826 118.514C470.962 118.293 470.178 118.438 470.388 117.62C470.645 116.8 471.5 116.325 472.333 116.538C473.166 116.752 473.686 117.579 473.517 118.421Z" fill="#ED707B"/>
<path d="M467.457 121.488C466.915 127.659 473.128 126.751 474.244 123.133C474.299 122.945 474.23 122.742 474.072 122.626C473.408 122.128 471.415 120.912 467.911 121.058C467.673 121.068 467.48 121.251 467.457 121.488Z" fill="#C1525F"/>
<mask id="mask39_1165_928" style="mask-type:luminance" maskUnits="userSpaceOnUse" x="467" y="121" width="8" height="5">
<path fill-rule="evenodd" clip-rule="evenodd" d="M467.457 121.488C466.915 127.659 473.128 126.751 474.244 123.133C474.299 122.945 474.23 122.742 474.072 122.626C473.408 122.128 471.415 120.912 467.911 121.058C467.673 121.068 467.48 121.251 467.457 121.488Z" fill="white"/>
</mask>
<g mask="url(#mask39_1165_928)">
<ellipse cx="3.10472" cy="2.77215" rx="3.10472" ry="2.77215" transform="matrix(0.998 -0.0632079 0.0633417 0.997992 467.476 123.323)" fill="#993443"/>
<path d="M468.749 120.829C468.651 121.22 468.553 121.76 468.631 121.883C469.106 122.637 472.215 123.15 472.718 122.917C472.858 122.852 473.194 121.597 473.194 121.597L469.266 120.735" fill="white"/>
</g>
</g>
<path d="M483.568 129.512L484.894 127.829C480.843 120.721 478.239 109.31 479.584 103.921C475.607 104.014 468.419 106.452 462.61 120.907C459.187 129.424 468.451 132.951 474.468 134.314" stroke="black" stroke-width="0.5"/>
<path d="M480.723 132.148C482.119 133.276 484.143 133.774 486.195 133.321C489.478 132.596 491.588 129.712 490.909 126.879C490.23 124.046 487.018 122.337 483.735 123.061C482.948 123.233 482.197 123.542 481.518 123.976" fill="#F9C1BB"/>
<path d="M480.723 132.148C482.119 133.276 484.143 133.774 486.195 133.321C489.478 132.596 491.588 129.712 490.909 126.879C490.23 124.046 487.018 122.337 483.735 123.061C482.948 123.233 482.197 123.542 481.518 123.976" stroke="black" stroke-width="0.5"/>
<path d="M501.334 176.202C500.692 179.305 499.648 182.312 498.228 185.146" stroke="black" stroke-width="0.5"/>
<path d="M485.343 126.33C485.848 126.181 486.393 126.353 486.721 126.763" stroke="black" stroke-width="0.5"/>
<path d="M487.774 109.448L488.372 111.244" stroke="black" stroke-width="0.5"/>
<path d="M427.945 114.878C429.623 115.269 431.371 115.243 433.036 114.803" stroke="black" stroke-width="0.5"/>
<path d="M526.346 152.549L527.019 156.127" stroke="black" stroke-width="0.5"/>
<path d="M486.914 298.044L483.925 299.248" stroke="black" stroke-width="0.5"/>
<path d="M479.124 407.571C480.351 407.305 481.634 407.495 482.733 408.103" stroke="black" stroke-width="0.5"/>
<path d="M477.889 412.877L482.088 410.501" stroke="black" stroke-width="0.5"/>
<path d="M549.727 324.94V329.429" stroke="black" stroke-width="0.5"/>
<path d="M549.125 324.636L541.368 331.545" stroke="black" stroke-width="0.5"/>
<path d="M165.412 239.08C165.112 230.785 163.064 222.646 159.403 215.195C158.012 212.367 156.395 209.656 154.567 207.088C140.923 187.896 116.458 178.015 92.2526 184.109C68.0478 190.203 51.1739 210.493 48.2373 233.86C47.8418 236.987 47.7 240.141 47.8133 243.291C48.1132 251.586 50.1609 259.725 53.8226 267.176C68.183 266.714 87.4696 264.207 110.919 258.303C134.369 252.399 152.544 245.473 165.412 239.08Z" fill="#1B80FD"/>
<mask id="mask40_1165_928" style="mask-type:luminance" maskUnits="userSpaceOnUse" x="47" y="182" width="119" height="86">
<path fill-rule="evenodd" clip-rule="evenodd" d="M165.412 239.08C165.112 230.785 163.064 222.646 159.403 215.195C158.012 212.367 156.395 209.656 154.567 207.088C140.923 187.896 116.458 178.015 92.2526 184.109C68.0478 190.203 51.1739 210.493 48.2373 233.86C47.8418 236.987 47.7 240.141 47.8133 243.291C48.1132 251.586 50.1609 259.725 53.8226 267.176C68.183 266.714 87.4696 264.207 110.919 258.303C134.369 252.399 152.544 245.473 165.412 239.08Z" fill="white"/>
</mask>
<g mask="url(#mask40_1165_928)">
<path d="M68.7403 174.406C193.961 181.823 168.252 250.53 78.9625 264.78C-10.3266 279.031 196.968 255.376 196.968 255.376L193.583 187.181L98.6268 168.733L73.28 181.542" fill="#1D62FC"/>
</g>
<path fill-rule="evenodd" clip-rule="evenodd" d="M165.412 239.08C165.112 230.785 163.064 222.646 159.403 215.195C158.012 212.367 156.395 209.656 154.567 207.088C140.923 187.896 116.458 178.015 92.2526 184.109C68.0478 190.203 51.1739 210.493 48.2373 233.86C47.8418 236.987 47.7 240.141 47.8133 243.291C48.1132 251.586 50.1609 259.725 53.8226 267.176C68.183 266.714 87.4696 264.207 110.919 258.303C134.369 252.399 152.544 245.473 165.412 239.08Z" stroke="black" stroke-width="0.5"/>
<path d="M58.6586 275.283C72.3027 294.475 96.7679 304.356 120.973 298.262C145.178 292.168 162.052 271.877 164.988 248.511C150.497 255.226 132.394 261.45 112.943 266.347C93.4928 271.245 74.6005 274.335 58.6586 275.283Z" fill="#1B80FD"/>
<path fill-rule="evenodd" clip-rule="evenodd" d="M58.6586 275.283C72.3027 294.475 96.7679 304.356 120.973 298.262C145.178 292.168 162.052 271.877 164.988 248.511C150.497 255.226 132.394 261.45 112.943 266.347C93.4928 271.245 74.6005 274.335 58.6586 275.283Z" stroke="black" stroke-width="0.5"/>
<path d="M196.668 218.511C194.68 210.608 183.576 206.658 163.664 206.773C160.764 206.789 157.717 206.901 154.567 207.088C156.395 209.656 158.012 212.367 159.403 215.195C177.539 214.612 187.811 217.293 188.627 220.536C189.443 223.779 181.663 231.004 165.412 239.08C152.544 245.473 134.369 252.399 110.919 258.303C87.4697 264.207 68.1831 266.714 53.8227 267.176C35.6867 267.759 25.4144 265.078 24.5981 261.835C23.7827 258.593 31.5622 251.366 47.8134 243.291C47.7001 240.141 47.8419 236.987 48.2374 233.86C45.3736 235.187 42.637 236.531 40.0745 237.891C22.4807 247.219 14.5689 255.957 16.5573 263.86C18.5457 271.763 29.65 275.713 49.5614 275.598C52.462 275.582 55.5083 275.47 58.6587 275.283C74.6006 274.335 93.4928 271.245 112.943 266.347C132.394 261.45 150.497 255.225 164.988 248.511C167.852 247.184 170.588 245.839 173.151 244.48C190.745 235.152 198.656 226.414 196.668 218.511Z" fill="#FACCC4"/>
<mask id="mask41_1165_928" style="mask-type:luminance" maskUnits="userSpaceOnUse" x="16" y="206" width="181" height="70">
<path fill-rule="evenodd" clip-rule="evenodd" d="M196.668 218.511C194.68 210.608 183.576 206.658 163.664 206.773C160.764 206.789 157.717 206.901 154.567 207.088C156.395 209.656 158.012 212.367 159.403 215.195C177.539 214.612 187.811 217.293 188.627 220.536C189.443 223.779 181.663 231.004 165.412 239.08C152.544 245.473 134.369 252.399 110.919 258.303C87.4697 264.207 68.1831 266.714 53.8227 267.176C35.6867 267.759 25.4144 265.078 24.5981 261.835C23.7827 258.593 31.5622 251.366 47.8134 243.291C47.7001 240.141 47.8419 236.987 48.2374 233.86C45.3736 235.187 42.637 236.531 40.0745 237.891C22.4807 247.219 14.5689 255.957 16.5573 263.86C18.5457 271.763 29.65 275.713 49.5614 275.598C52.462 275.581 55.5083 275.47 58.6587 275.282C74.6006 274.335 93.4928 271.245 112.943 266.347C132.394 261.45 150.497 255.225 164.988 248.511C167.852 247.184 170.588 245.839 173.151 244.48C190.745 235.152 198.656 226.414 196.668 218.511Z" fill="white"/>
</mask>
<g mask="url(#mask41_1165_928)">
<path d="M2.91425 241.185C58.1477 232.481 52.8513 257.299 52.8513 257.299L66.4706 226.477L44.5284 221.93" fill="#ED707B"/>
<path d="M139.484 198.434C167.101 202.205 170.128 221.93 170.128 221.93L146.672 226.477L139.106 219.235" fill="#ED707B"/>
</g>
<path fill-rule="evenodd" clip-rule="evenodd" d="M196.668 218.511C194.68 210.608 183.576 206.658 163.664 206.773C160.764 206.789 157.717 206.901 154.567 207.088C156.395 209.656 158.012 212.367 159.403 215.195C177.539 214.612 187.811 217.293 188.627 220.536C189.443 223.779 181.663 231.004 165.412 239.08C152.544 245.473 134.369 252.399 110.919 258.303C87.4697 264.207 68.1831 266.714 53.8227 267.176C35.6867 267.759 25.4144 265.078 24.5981 261.835C23.7827 258.593 31.5622 251.366 47.8134 243.291C47.7001 240.141 47.8419 236.987 48.2374 233.86C45.3736 235.187 42.637 236.531 40.0745 237.891C22.4807 247.219 14.5689 255.957 16.5573 263.86C18.5457 271.763 29.65 275.713 49.5614 275.598C52.462 275.582 55.5083 275.47 58.6587 275.283C74.6006 274.335 93.4928 271.245 112.943 266.347C132.394 261.45 150.497 255.225 164.988 248.511C167.852 247.184 170.588 245.839 173.151 244.48C190.745 235.152 198.656 226.414 196.668 218.511Z" stroke="black" stroke-width="0.5"/>
<path d="M99.6608 210.902C99.2011 214.269 97.9868 217.49 96.1083 220.323" stroke="black" stroke-width="0.5"/>
<path d="M134.007 273.753L127.511 278.2" stroke="black" stroke-width="0.5"/>
<path d="M592.22 286.786H616.13V303.402C616.13 309.447 611.225 314.346 605.175 314.346H603.176C600.27 314.346 597.484 313.193 595.429 311.141C593.375 309.089 592.22 306.305 592.22 303.402V286.786L592.22 286.786Z" fill="#E43334" stroke="black" stroke-width="0.5"/>
<path d="M613.808 308.801H594.542C590.214 308.801 586.705 305.295 586.705 300.971V281.24H621.646V300.971C621.646 305.295 618.137 308.801 613.808 308.801Z" fill="#E43334"/>
<mask id="mask42_1165_928" style="mask-type:luminance" maskUnits="userSpaceOnUse" x="586" y="281" width="36" height="28">
<path fill-rule="evenodd" clip-rule="evenodd" d="M613.808 308.801H594.542C590.214 308.801 586.705 305.295 586.705 300.971V281.24H621.646V300.971C621.646 305.295 618.137 308.801 613.808 308.801Z" fill="white"/>
</mask>
<g mask="url(#mask42_1165_928)">
<path d="M589.909 310.09C580.747 282.593 605.667 287.862 626.556 286.786C647.445 285.71 613.73 278.927 613.73 278.927L586.704 281.24L583.862 293.409L585.376 307.89" fill="#C11F27"/>
</g>
<path fill-rule="evenodd" clip-rule="evenodd" d="M613.808 308.801H594.542C590.214 308.801 586.705 305.295 586.705 300.971V281.24H621.646V300.971C621.646 305.295 618.137 308.801 613.808 308.801V308.801Z" stroke="black" stroke-width="0.5"/>
<path d="M638.445 235.026C638.445 216.281 623.406 201.05 604.74 200.748C592.356 200.568 580.834 207.064 574.589 217.749C568.344 228.434 568.344 241.651 574.59 252.336C580.225 261.951 583.345 272.833 583.345 283.979C583.345 284.277 583.463 284.564 583.674 284.775C583.885 284.986 584.172 285.105 584.471 285.105H623.88C624.179 285.105 624.465 284.986 624.676 284.775C624.888 284.564 625.006 284.277 625.006 283.979C625.006 272.966 627.884 262.109 633.561 252.672C636.766 247.344 638.455 241.243 638.445 235.026Z" fill="#FDD504"/>
<mask id="mask43_1165_928" style="mask-type:luminance" maskUnits="userSpaceOnUse" x="569" y="200" width="70" height="86">
<path fill-rule="evenodd" clip-rule="evenodd" d="M638.445 235.026C638.445 216.281 623.406 201.05 604.74 200.748C592.356 200.568 580.834 207.064 574.589 217.749C568.344 228.434 568.344 241.651 574.59 252.336C580.225 261.951 583.345 272.833 583.345 283.979C583.345 284.277 583.463 284.564 583.674 284.775C583.885 284.986 584.172 285.105 584.471 285.105H623.88C624.179 285.105 624.465 284.986 624.676 284.775C624.888 284.564 625.006 284.277 625.006 283.979C625.006 272.966 627.884 262.109 633.561 252.672C636.766 247.344 638.455 241.243 638.445 235.026Z" fill="white"/>
</mask>
<g mask="url(#mask43_1165_928)">
<path d="M581.113 205.971C544.832 245.565 603.102 288.397 633.153 284.762C663.204 281.127 589.909 310.09 589.909 310.09L558.801 295.02L547.031 238.937" fill="#FCB006"/>
</g>
<path fill-rule="evenodd" clip-rule="evenodd" d="M638.445 235.026C638.445 216.281 623.406 201.05 604.74 200.748C592.356 200.568 580.834 207.064 574.589 217.749C568.344 228.434 568.344 241.651 574.59 252.336C580.225 261.951 583.345 272.833 583.345 283.979V283.979C583.345 284.277 583.463 284.564 583.674 284.775C583.885 284.986 584.172 285.105 584.471 285.105H623.88C624.179 285.105 624.465 284.986 624.676 284.775C624.888 284.564 625.006 284.277 625.006 283.979V283.979C625.006 272.966 627.884 262.109 633.561 252.672C636.766 247.344 638.455 241.243 638.445 235.026Z" stroke="black" stroke-width="0.5"/>
<rect x="585.376" y="289.643" width="37.5987" height="5.37766" rx="1.05148" fill="white" stroke="black" stroke-width="0.5"/>
<rect x="585.376" y="297.877" width="37.5987" height="5.37766" rx="1.05148" fill="white" stroke="black" stroke-width="0.5"/>
<rect x="600.36" y="155.501" width="7.63153" height="31.8652" rx="1.49273" fill="#FCB006" stroke="black" stroke-width="0.5"/>
<rect x="526.948" y="236.574" width="7.63437" height="31.8531" rx="1.49273" transform="rotate(-90 526.948 236.574)" fill="#FCB006" stroke="black" stroke-width="0.5"/>
<rect x="649.55" y="236.574" width="7.63437" height="31.8531" rx="1.49273" transform="rotate(-90 649.55 236.574)" fill="#FCB006" stroke="black" stroke-width="0.5"/>
<path d="M572.318 200.433L571.864 200.888C571.209 201.544 570.32 201.912 569.393 201.912C568.466 201.912 567.577 201.544 566.922 200.888L549.34 183.299C547.975 181.934 547.975 179.722 549.34 178.356L549.795 177.901C550.45 177.246 551.339 176.877 552.266 176.877C553.193 176.877 554.081 177.246 554.736 177.901L572.318 195.49C573.683 196.856 573.683 199.067 572.318 200.433Z" fill="#FCB006" stroke="black" stroke-width="0.5"/>
<path d="M658.556 177.901L659.011 178.356C660.375 179.722 660.375 181.934 659.011 183.299L641.429 200.888C640.774 201.544 639.885 201.912 638.958 201.912C638.031 201.912 637.142 201.544 636.487 200.888L636.032 200.433C634.668 199.067 634.668 196.856 636.032 195.49L653.614 177.901C654.269 177.246 655.158 176.877 656.085 176.877C657.012 176.877 657.901 177.246 658.556 177.901Z" fill="#FCB006" stroke="black" stroke-width="0.5"/>
<path d="M624.142 234.134C620.551 238.126 616.601 241.781 612.342 245.052" stroke="black" stroke-width="0.5"/>
<path d="M169.559 130.125L163.884 137.168L148.461 124.731L154.136 117.688L169.559 130.125Z" fill="#1AB995"/>
<mask id="mask44_1165_928" style="mask-type:luminance" maskUnits="userSpaceOnUse" x="148" y="117" width="22" height="21">
<path fill-rule="evenodd" clip-rule="evenodd" d="M169.559 130.125L163.884 137.168L148.461 124.731L154.136 117.688L169.559 130.125Z" fill="white"/>
</mask>
<g mask="url(#mask44_1165_928)">
<path d="M157.642 118.139C161.536 124.329 152.526 126.745 156.196 129.969C159.867 133.194 165.098 128.066 166.974 124.373C168.851 120.68 171.347 131.567 171.347 131.567L157.881 140.876L148.561 128.587L153.012 123.556" fill="#0FA379"/>
</g>
<path fill-rule="evenodd" clip-rule="evenodd" d="M169.559 130.125L163.884 137.168L148.461 124.731L154.136 117.688L169.559 130.125V130.125Z" stroke="black" stroke-width="0.5"/>
<path d="M187.231 150.184C185.892 151.847 183.937 152.9 181.811 153.103C179.684 153.307 177.565 152.644 175.934 151.265L157.717 135.863L166.974 124.373L185.888 138.911C187.582 140.215 188.679 142.145 188.932 144.266C189.184 146.386 188.571 148.52 187.231 150.184Z" fill="#FCB006"/>
<mask id="mask45_1165_928" style="mask-type:luminance" maskUnits="userSpaceOnUse" x="157" y="124" width="32" height="30">
<path fill-rule="evenodd" clip-rule="evenodd" d="M187.231 150.184C185.892 151.847 183.937 152.9 181.811 153.103C179.684 153.307 177.565 152.644 175.934 151.265L157.717 135.863L166.974 124.373L185.888 138.911C187.582 140.215 188.679 142.145 188.932 144.266C189.184 146.386 188.571 148.52 187.231 150.184Z" fill="white"/>
</mask>
<g mask="url(#mask45_1165_928)">
<path d="M163.943 122.822C193.238 145.002 181.499 149.046 177.825 155.101C174.151 161.157 193.501 155.239 193.501 155.239L204.774 144.209L183.592 124.103L169.469 123.432" fill="#FDD504"/>
</g>
<path fill-rule="evenodd" clip-rule="evenodd" d="M187.231 150.184V150.184C185.892 151.847 183.937 152.9 181.811 153.103C179.684 153.307 177.565 152.644 175.934 151.265L157.717 135.863L166.974 124.373L185.888 138.911C187.582 140.215 188.679 142.145 188.932 144.266C189.184 146.386 188.571 148.52 187.231 150.184V150.184Z" stroke="black" stroke-width="0.5"/>
<ellipse cx="24.822" cy="24.8313" rx="24.822" ry="24.8313" transform="matrix(0.999998 -0.00174521 0.00174894 0.999998 112.154 85.1397)" fill="#1AB995"/>
<ellipse cx="137.019" cy="109.928" rx="18.1946" ry="18.2015" fill="#1AB995"/>
<ellipse cx="24.822" cy="24.8313" rx="24.822" ry="24.8313" transform="matrix(0.999998 -0.00174521 0.00174894 0.999998 112.154 85.1397)" stroke="black" stroke-width="0.5"/>
<ellipse cx="137.019" cy="109.928" rx="18.1946" ry="18.2015" stroke="black" stroke-width="0.5"/>
<path d="M115.818 106.327C116.032 107.872 115.983 109.443 115.671 110.971" stroke="black" stroke-width="0.5"/>
<path d="M175.814 137.99L176.196 139.491" stroke="black" stroke-width="0.5"/>
<ellipse cx="376.308" cy="245.052" rx="20.2983" ry="20.3059" fill="#FDD504" stroke="black" stroke-width="0.5"/>
<ellipse cx="545.247" cy="44.6982" rx="44.2752" ry="44.2919" fill="#E43334" stroke="black" stroke-width="0.5"/>
<defs>
<linearGradient id="paint0_linear_1165_928" x1="355.955" y1="746.15" x2="355.985" y2="733.038" gradientUnits="userSpaceOnUse">
<stop offset="0.1011" stop-color="#CB541D"/>
<stop offset="0.8855" stop-color="#CB1F11"/>
</linearGradient>
</defs>
</svg>
