<svg width="34" height="34" viewBox="0 0 34 34" fill="none" xmlns="http://www.w3.org/2000/svg">
<path d="M30.3375 9.74097H20.3412C19.7775 9.74097 19.31 9.27347 19.31 8.70972C19.31 8.14597 19.7775 7.67847 20.3412 7.67847H30.3375C30.9012 7.67847 31.3687 8.14597 31.3687 8.70972C31.3687 9.27347 30.9012 9.74097 30.3375 9.74097Z" fill="#22C55E"/>
<path d="M13.6725 9.74097H3.66251C3.09876 9.74097 2.63126 9.27347 2.63126 8.70972C2.63126 8.14597 3.09876 7.67847 3.66251 7.67847H13.6588C14.2225 7.67847 14.69 8.14597 14.69 8.70972C14.69 9.27347 14.2363 9.74097 13.6725 9.74097Z" fill="#22C55E"/>
<path d="M30.3375 23.0649H20.3412C19.7775 23.0649 19.31 22.5974 19.31 22.0337C19.31 21.4699 19.7775 21.0024 20.3412 21.0024H30.3375C30.9012 21.0024 31.3687 21.4699 31.3687 22.0337C31.3687 22.5974 30.9012 23.0649 30.3375 23.0649Z" fill="#22C55E"/>
<path d="M30.3375 31.3972H20.3412C19.7775 31.3972 19.31 30.9297 19.31 30.366C19.31 29.8022 19.7775 29.3347 20.3412 29.3347H30.3375C30.9012 29.3347 31.3687 29.8022 31.3687 30.366C31.3687 30.9297 30.9012 31.3972 30.3375 31.3972Z" fill="#22C55E"/>
<path d="M25.3737 14.7323C24.81 14.7323 24.3425 14.2648 24.3425 13.7011V3.70483C24.3425 3.14108 24.81 2.67358 25.3737 2.67358C25.9375 2.67358 26.405 3.14108 26.405 3.70483V13.7011C26.405 14.2786 25.9512 14.7323 25.3737 14.7323Z" fill="#22C55E"/>
<path d="M3.66249 32.236C3.40124 32.236 3.13999 32.1397 2.93374 31.9335C2.53499 31.5347 2.53499 30.8747 2.93374 30.476L12.93 20.4797C13.3287 20.081 13.9887 20.081 14.3875 20.4797C14.7862 20.8785 14.7862 21.5385 14.3875 21.9372L4.39124 31.9335C4.19874 32.1397 3.93749 32.236 3.66249 32.236Z" fill="#22C55E"/>
<path d="M13.6725 32.236C13.4113 32.236 13.15 32.1397 12.9438 31.9335L2.9475 21.9372C2.54875 21.5385 2.54875 20.8785 2.9475 20.4797C3.34625 20.081 4.00625 20.081 4.405 20.4797L14.4012 30.476C14.8 30.8747 14.8 31.5347 14.4012 31.9335C14.195 32.1397 13.9338 32.236 13.6725 32.236Z" fill="#22C55E"/>
</svg>
