<svg width="62" height="71" viewBox="0 0 62 71" fill="none" xmlns="http://www.w3.org/2000/svg">
<path d="M52.5466 5.56271L34.4067 1.42681C32.9297 1.09004 31.3972 1.07746 29.9148 1.38994L9.62182 5.66756C4.77273 6.68971 1.3021 10.9682 1.3021 15.9238L1.3021 43.1962C1.3021 46.1592 2.55616 48.9837 4.75396 50.971L22.6236 67.1284C26.4433 70.582 32.206 70.7496 36.2198 67.5236L56.7829 50.9967C59.2583 49.0071 60.6982 46.0025 60.6982 42.8267L60.6982 15.7821C60.6982 10.891 57.3154 6.65 52.5466 5.56271Z" fill="#16A34A"/>
<path fill-rule="evenodd" clip-rule="evenodd" d="M24.8414 2.45942L29.9147 1.39002C31.3971 1.07754 32.9296 1.09012 34.4067 1.42689L38.9416 2.46087L39.2005 1.32538L34.6656 0.291402C33.0244 -0.0827905 31.3216 -0.0967677 29.6745 0.250432L24.6012 1.31984L24.8414 2.45942ZM48.0116 4.52882L48.2704 3.39333L52.8054 4.4273C58.1041 5.6354 61.8628 10.3476 61.8628 15.7822L61.8628 22.5433L60.6982 22.5433L60.6982 15.7822C60.6982 10.891 57.3153 6.65008 52.5465 5.56279L48.0116 4.52882ZM60.6982 36.0656L61.8628 36.0656L61.8628 42.8267C61.8628 46.3555 60.2629 49.6939 57.5124 51.9045L52.3717 56.0362L51.6421 55.1285L56.7828 50.9967C59.2583 49.0072 60.6982 46.0026 60.6982 42.8267L60.6982 36.0656ZM41.3605 63.3919L42.0901 64.2997L36.9493 68.4314C32.4895 72.0158 26.0866 71.8297 21.8425 67.9923L17.3751 63.953L18.1561 63.0891L22.6236 67.1285C26.4432 70.5821 32.2059 70.7496 36.2197 67.5236L41.3605 63.3919ZM9.2213 55.0104L8.44021 55.8742L3.97279 51.8349C1.5308 49.6269 0.13739 46.4885 0.13739 43.1962L0.13739 36.3782L1.30202 36.3782L1.30202 43.1962C1.30202 46.1592 2.55608 48.9838 4.75388 50.971L9.2213 55.0104ZM1.30202 22.742L0.137388 22.742L0.137388 15.9239C0.137387 10.4177 3.99365 5.66378 9.38152 4.52805L14.4548 3.45864L14.695 4.59823L9.62174 5.66764C4.77265 6.68979 1.30202 10.9683 1.30202 15.9239L1.30202 22.742Z" fill="#292D32"/>
<path d="M17.6071 24.7907C17.6071 32.1876 23.6034 38.1839 31.0003 38.1839C38.3972 38.1839 44.3936 32.1876 44.3936 24.7907C44.3936 17.3938 38.3972 11.3974 31.0003 11.3974C23.6034 11.3974 17.6071 17.3938 17.6071 24.7907Z" fill="#22C55E"/>
<path fill-rule="evenodd" clip-rule="evenodd" d="M16.4423 24.7908C16.4423 32.8309 22.9601 39.3487 31.0002 39.3486C39.0403 39.3486 45.5581 32.8309 45.5581 24.7908C45.5581 16.7507 39.0403 10.2329 31.0002 10.2329C22.9601 10.2329 16.4423 16.7507 16.4423 24.7908ZM31.0002 38.184C23.6033 38.184 17.607 32.1877 17.607 24.7908C17.607 17.3939 23.6033 11.3975 31.0002 11.3975C38.3971 11.3975 44.3935 17.3939 44.3935 24.7908C44.3935 32.1877 38.3971 38.184 31.0002 38.184Z" fill="#292D32"/>
</svg>
