<svg width="468" height="405" viewBox="0 0 468 405" fill="none" xmlns="http://www.w3.org/2000/svg">
<path fill-rule="evenodd" clip-rule="evenodd" d="M24.2558 67.9906C35.4506 49.2197 53.5032 34.9867 72.175 23.9717C88.0857 15.1102 105.761 9.86984 123.936 8.62504C138.583 7.07197 153.386 7.90788 167.764 11.1002C275.664 35.358 194.904 152.934 267.733 206.565C281.86 217.002 299.582 218.735 316.478 220.592C337.628 222.902 360.1 224.717 380.301 231.978C423.138 247.077 480.89 295.593 447.181 345.181C395.545 421.089 220.309 362.095 179.826 296.541C147.564 244.354 179.827 208.009 120.548 159.452C76.1405 123.148 43.5881 186.02 10.4167 166.754C-14.4928 152.274 11.4499 87.2152 24.2558 67.9906Z" fill="#ECFFC6"/>
<path fill-rule="evenodd" clip-rule="evenodd" d="M417.52 83.9149C427.476 102.975 435.035 123.56 445.445 142.331L440.654 144.972C430.203 126.201 422.643 105.574 412.646 86.4313L417.52 83.9149Z" fill="#F56C2C"/>
<path fill-rule="evenodd" clip-rule="evenodd" d="M451.559 97.4465C443.793 102.273 437.307 108.462 429.996 113.948C423.551 118.693 415.951 122.199 409.879 127.604L406.284 123.478C412.439 118.156 420.164 114.361 426.732 109.534C434.127 104.047 440.778 97.8178 448.626 93.0322L451.559 97.4465Z" fill="#292D32"/>
<path fill-rule="evenodd" clip-rule="evenodd" d="M436.399 89.9381C433.92 105.574 430.078 120.838 427.145 136.35L421.734 135.318C424.667 119.848 428.467 104.625 430.946 89.0717L436.399 89.9381Z" fill="#292D32"/>
<path fill-rule="evenodd" clip-rule="evenodd" d="M9.92139 281.937C20.1661 291.055 26.4446 303.101 33.1367 314.941L28.3452 317.664C21.9009 306.484 15.952 294.932 6.28564 286.228L9.92139 281.937Z" fill="#F56C2C"/>
<path fill-rule="evenodd" clip-rule="evenodd" d="M29.3364 292.829C22.0207 298.52 15.2327 304.858 9.05391 311.764L4.92297 308.216C11.3189 301.058 18.3564 294.499 25.9488 288.62L29.3364 292.829Z" fill="#F56C2C"/>
<path fill-rule="evenodd" clip-rule="evenodd" d="M29.7914 302.565C21.1577 301.162 13.5974 300.007 5.29422 298.15L6.451 292.787C14.7129 294.602 22.1903 295.758 30.6587 297.119L29.7914 302.565Z" fill="#F56C2C"/>
<path fill-rule="evenodd" clip-rule="evenodd" d="M23.3054 286.393C23.3054 295.758 22.19 304.999 21.1986 314.281L15.7455 313.703C16.6956 304.586 17.6044 295.469 17.811 286.31L23.3054 286.393Z" fill="#F56C2C"/>
<path fill-rule="evenodd" clip-rule="evenodd" d="M392.57 402.03C403.723 385.033 387.82 364.9 369.726 363.457C363.496 362.92 357.227 363.003 351.013 363.704C336.555 365.272 316.065 369.438 298.261 367.829C279.383 366.221 263.478 358.424 259.636 335.94L265.048 335.032C268.394 354.463 282.356 360.981 298.715 362.343C316.147 363.828 336.265 359.702 350.434 358.217C356.991 357.481 363.604 357.385 370.18 357.928C392.115 359.826 410.663 384.455 397.155 405L392.57 402.03Z" fill="#279FF2"/>
<path fill-rule="evenodd" clip-rule="evenodd" d="M278.143 330.123C285.082 336.431 293.848 340.374 303.176 341.385L302.309 346.789C291.809 345.59 281.96 341.098 274.177 333.959L278.143 330.123Z" fill="#279FF2"/>
<path fill-rule="evenodd" clip-rule="evenodd" d="M241.378 66.0102C224.234 79.1704 208 75.0864 192.715 65.4328C178.463 56.398 165.203 42.4125 152.975 34.8217C130.999 21.1664 115.467 22.4454 91.8795 29.7474L90.2679 24.467C115.59 16.7111 132.28 15.4732 155.868 30.1599C168.26 37.7507 181.396 51.7775 195.689 60.771C208.95 69.0219 223.119 73.1473 237.99 61.6785L241.378 66.0102Z" fill="#279FF2"/>
<path fill-rule="evenodd" clip-rule="evenodd" d="M159.626 13.3281C149.928 7.77376 138.848 5.08834 127.679 5.58505C116.51 6.08177 105.712 9.74011 96.5467 16.1334L93.4899 11.5542C103.487 4.58889 115.26 0.603858 127.437 0.0633654C139.614 -0.477127 151.694 2.44897 162.27 8.50113L159.626 13.3281Z" fill="#279FF2"/>
<path fill-rule="evenodd" clip-rule="evenodd" d="M140.582 53.9227C123.728 44.3103 104.602 53.9228 90.2678 63.8239L87.1282 59.286C103.115 48.2297 124.514 38.6586 143.309 49.1785L140.582 53.9227Z" fill="#A14DF6"/>
<path fill-rule="evenodd" clip-rule="evenodd" d="M253.894 343.572C253.357 360.94 255.795 375.998 270.418 387.384L267.072 391.757C250.796 379.133 247.698 362.59 248.317 343.407L253.894 343.572Z" fill="#A14DF6"/>
<path fill-rule="evenodd" clip-rule="evenodd" d="M464.943 322.284C448.626 311.476 431.359 301.245 414.463 291.343L417.232 286.599C434.21 296.583 451.6 306.855 468 317.664L464.943 322.284Z" fill="#FFBA16"/>
<path fill-rule="evenodd" clip-rule="evenodd" d="M435.697 286.063C430.74 284.949 425.824 283.959 420.949 282.597L422.477 277.317C427.228 278.678 432.103 279.627 436.895 280.741L435.697 286.063Z" fill="#FFBA16"/>
<path fill-rule="evenodd" clip-rule="evenodd" d="M139.756 317.004C132.279 334.331 122.572 350.833 114.186 367.747L109.271 365.313C117.532 348.481 127.281 332.062 134.717 314.817L139.756 317.004Z" fill="#FFBA16"/>
<path fill-rule="evenodd" clip-rule="evenodd" d="M125.381 312.094C117.521 323.525 110.52 335.522 104.437 347.986L99.4382 345.676C105.649 332.937 112.802 320.678 120.837 309L125.381 312.094Z" fill="#FFBA16"/>
<path fill-rule="evenodd" clip-rule="evenodd" d="M318.584 83.9149C328.829 61.6373 335.975 37.6272 345.187 14.8546L350.268 16.9173C341.056 39.7724 333.745 63.865 323.583 86.1838L318.584 83.9149Z" fill="#FFBA16"/>
<path fill-rule="evenodd" clip-rule="evenodd" d="M303.754 73.1475C308.133 61.4311 311.768 49.6322 315.528 37.7096L320.774 39.3599C316.973 51.365 313.338 63.2875 308.918 75.0863L303.754 73.1475Z" fill="#FFBA16"/>
<path fill-rule="evenodd" clip-rule="evenodd" d="M53.048 116.424C42.6794 107.141 31.7737 98.7666 21.0333 89.9381L24.5036 85.8127C35.3267 94.6824 46.2738 103.098 56.7251 112.422L53.048 116.424Z" fill="#FFBA16"/>
<path fill-rule="evenodd" clip-rule="evenodd" d="M44.9929 201.367C44.9929 176.366 54.9377 152.389 72.6396 134.71C90.3416 117.032 114.351 107.1 139.385 107.1H320.733C333.126 107.1 345.399 109.539 356.849 114.276C368.299 119.014 378.701 125.959 387.463 134.713C396.225 143.467 403.174 153.859 407.913 165.296C412.652 176.732 415.089 188.989 415.083 201.367C415.089 213.742 412.651 225.997 407.912 237.432C403.172 248.866 396.223 259.256 387.461 268.007C378.699 276.757 368.295 283.698 356.845 288.431C345.395 293.164 333.124 295.598 320.733 295.593H139.385C126.991 295.598 114.718 293.165 103.266 288.432C91.8138 283.699 81.4073 276.759 72.6417 268.009C63.876 259.259 56.9228 248.87 52.1786 237.435C47.4345 226 44.9929 213.744 44.9929 201.367Z" fill="#858694"/>
<path fill-rule="evenodd" clip-rule="evenodd" d="M57.9636 195.302C57.9582 185.397 59.9082 175.589 63.7011 166.437C67.4941 157.285 73.0564 148.969 80.0695 141.965C87.0827 134.961 95.4096 129.406 104.574 125.619C113.738 121.831 123.559 119.883 133.477 119.889H311.893C321.811 119.883 331.632 121.831 340.796 125.619C349.961 129.406 358.287 134.961 365.301 141.965C372.314 148.969 377.876 157.285 381.669 166.437C385.462 175.589 387.411 185.397 387.406 195.302C387.406 215.303 379.45 234.485 365.288 248.628C351.127 262.771 331.92 270.716 311.893 270.716H133.477C113.45 270.716 94.2432 262.771 80.0817 248.628C65.9201 234.485 57.9636 215.303 57.9636 195.302Z" fill="white"/>
<path d="M132.321 259.247C96.9582 259.247 68.2912 230.618 68.2912 195.302C68.2912 159.987 96.9582 131.358 132.321 131.358C167.683 131.358 196.35 159.987 196.35 195.302C196.35 230.618 167.683 259.247 132.321 259.247Z" fill="#2FD055"/>
<path fill-rule="evenodd" clip-rule="evenodd" d="M175.283 244.808C152.521 268.323 109.394 265.765 85.8474 244.519C74.7954 233.573 67.5551 219.372 65.1927 204.007C63.8589 195.326 64.3693 186.461 66.6894 177.989C69.0095 169.517 73.0874 161.627 78.6596 154.832C83.8646 148.396 90.0611 142.084 98.4056 140.228L99.6037 145.591C92.4985 147.158 87.2109 152.769 83.08 158.256C77.983 164.462 74.2469 171.668 72.1123 179.406C69.9776 187.145 69.4918 195.244 70.6872 203.182C72.8291 217.252 79.4315 230.265 89.5245 240.311C111.005 259.742 150.497 262.341 171.317 240.848L175.283 244.808Z" fill="black"/>
<path fill-rule="evenodd" clip-rule="evenodd" d="M233.735 300.13C203.62 298.315 169.168 301.657 137.525 297.944C105.097 294.149 75.5618 283.051 56.4356 252.564C50.8975 244.176 46.9746 234.83 44.8687 225.006L50.2805 224.016C52.2666 233.159 55.9513 241.848 61.1444 249.635C79.3618 278.761 107.411 289.074 138.187 292.663C169.706 296.335 204.034 292.993 234.066 294.809L233.735 300.13Z" fill="black"/>
<path fill-rule="evenodd" clip-rule="evenodd" d="M411.365 206.771C412.132 196.1 410.814 185.38 407.483 175.211C404.75 166.963 400.885 159.132 395.998 151.944C381.086 129.831 359.646 118.94 336.017 113.536C312.388 108.131 285.702 108.75 261.66 109.864L261.371 104.377C286.157 103.222 312.802 102.727 337.298 108.173C361.795 113.618 384.887 125.5 400.667 148.891C405.845 156.54 409.932 164.87 412.812 173.644C416.342 184.453 417.745 195.842 416.943 207.184L411.365 206.771Z" fill="black"/>
</svg>
