<svg width="662" height="728" viewBox="0 0 662 728" fill="none" xmlns="http://www.w3.org/2000/svg">
<path fill-rule="evenodd" clip-rule="evenodd" d="M260.12 223.354C211.756 217.87 125.014 278.862 106.208 339.022C99.0046 362.128 99.0356 393.392 109.562 417.271C120.841 442.522 155.078 462.007 173.37 491.259C193.27 523.08 202.002 578.059 240.562 600.603C263.153 613.646 303.86 605.293 317.92 574.529C334.619 537.979 314.711 490.836 316.679 446.859C317.678 431.455 322.083 416.465 329.575 402.968C337.067 389.472 347.46 377.807 360.005 368.812C423.052 325.902 500.096 404.956 563.619 362.601C632.117 316.982 580.133 229.817 520.463 206.188C443.337 175.713 414.768 250.756 356.982 259.321C322.893 264.327 316.349 229.818 260.12 223.354Z" fill="#F9E0E0"/>
<path fill-rule="evenodd" clip-rule="evenodd" d="M496.747 280.613C499.221 276.293 500.374 271.343 500.062 266.374C499.749 261.406 497.986 256.638 494.99 252.662L401.884 128.404C397.133 122.102 390.163 117.843 382.388 116.492L375.136 115.257C372.948 114.871 370.695 115.171 368.683 116.114C366.672 117.057 365 118.598 363.896 120.526L171.372 453.988C169.887 456.584 169.198 459.56 169.391 462.544C169.583 465.529 170.648 468.391 172.455 470.775L273.478 603.633C275.412 606.164 277.851 608.266 280.64 609.804C283.43 611.342 286.509 612.283 289.682 612.566L297.111 613.248C299.992 613.497 302.885 612.916 305.447 611.571C308.008 610.227 310.13 608.177 311.562 605.664C337.888 559.823 463.162 339.596 496.747 280.613Z" fill="#282C4C"/>
<path fill-rule="evenodd" clip-rule="evenodd" d="M475.152 273.392C476.543 270.98 477.19 268.209 477.011 265.43C476.832 262.651 475.835 259.987 474.145 257.773L373.662 125.602C373.218 125.05 372.65 124.61 372.005 124.319C371.359 124.027 370.654 123.892 369.946 123.925C369.208 123.969 368.493 124.196 367.866 124.587C367.24 124.978 366.721 125.52 366.357 126.163L176.125 455.655C175.265 457.163 174.868 458.892 174.983 460.625C175.099 462.358 175.723 464.019 176.776 465.4L275.268 595.016C276.16 596.145 277.313 597.042 278.627 597.627C279.941 598.213 281.378 598.47 282.814 598.378C284.25 598.285 285.642 597.845 286.87 597.095C288.098 596.346 289.126 595.309 289.865 594.074L475.152 273.392Z" fill="#ECEDF5"/>
<path fill-rule="evenodd" clip-rule="evenodd" d="M452.194 228.61L394.927 152.542L390.241 160.658C389.541 161.877 389.216 163.274 389.306 164.676C389.397 166.079 389.899 167.423 390.75 168.541L441.553 236.005C441.96 236.51 442.481 236.909 443.074 237.171C443.667 237.433 444.313 237.548 444.959 237.509C445.606 237.469 446.234 237.276 446.79 236.944C447.347 236.612 447.816 236.152 448.158 235.602L452.194 228.61Z" fill="#282C4C"/>
<path fill-rule="evenodd" clip-rule="evenodd" d="M475.384 445.732C459.501 455.067 444.085 464.811 428.573 474.64L431.461 479.212C446.918 469.397 462.339 459.563 478.085 450.384L475.384 445.732Z" fill="#F56C2C"/>
<path fill-rule="evenodd" clip-rule="evenodd" d="M445.754 439.119C449.535 453.341 451.763 468.307 454.567 482.761L459.845 481.733C457.032 467.132 454.81 452.077 450.999 437.744L445.754 439.119Z" fill="#F56C2C"/>
<path fill-rule="evenodd" clip-rule="evenodd" d="M309.456 132.709C294.966 139.146 281.145 146.532 266.53 152.616L268.61 157.612C283.246 151.493 297.123 144.092 311.613 137.655L309.456 132.709Z" fill="#F56C2C"/>
<path fill-rule="evenodd" clip-rule="evenodd" d="M282.253 130.494C286.171 142.126 290.02 153.717 292.885 165.631L298.244 164.462C295.369 152.402 291.476 140.645 287.493 128.882L282.253 130.494Z" fill="#F56C2C"/>
<path fill-rule="evenodd" clip-rule="evenodd" d="M296.7 123.564C288.708 137.407 284.243 152.443 277 166.531L281.815 168.983C288.998 155.001 293.422 140.035 301.409 126.282L296.7 123.564Z" fill="#F56C2C"/>
<path fill-rule="evenodd" clip-rule="evenodd" d="M133.724 375.989C126.981 371.441 127.227 363.712 130.362 356.903C131.805 353.36 134.039 350.192 136.891 347.642C139.743 345.092 143.139 343.226 146.822 342.187C148.446 341.93 150.107 342.052 151.676 342.544C153.245 343.035 154.679 343.882 155.867 345.02C158.814 347.826 161.466 350.927 163.781 354.274C168.034 359.727 172.552 364.397 178.754 364.933C182.056 365.122 185.345 364.395 188.259 362.831C191.468 361.131 194.353 358.88 196.783 356.181C199.771 352.769 201.946 348.723 203.146 344.349C204.435 339.586 205.287 334.715 205.691 329.797L200.321 329.039C199.989 333.629 199.229 338.177 198.051 342.625C197.105 346.218 195.358 349.55 192.94 352.37C190.899 354.628 188.479 356.513 185.79 357.939C183.76 359.066 181.455 359.602 179.136 359.484C174.377 359.126 171.301 354.961 167.998 350.946C165.424 347.305 162.49 343.932 159.241 340.878C157.461 339.229 155.329 338.008 153.005 337.308C150.682 336.607 148.229 336.447 145.835 336.838C137.777 338.136 129.431 345.778 125.335 354.657C121.24 363.535 121.518 374.33 130.619 380.474L133.724 375.989Z" fill="#279FF2"/>
<path fill-rule="evenodd" clip-rule="evenodd" d="M195.924 320.832C194.36 326.3 189.831 331.79 183.675 328.985L181.399 333.902C190.97 338.257 198.688 330.813 201.106 322.325L195.924 320.832Z" fill="#279FF2"/>
<path fill-rule="evenodd" clip-rule="evenodd" d="M528.963 222.948C534.029 223.474 539.01 224.634 543.787 226.4C549.253 227.925 554.03 231.278 557.321 235.9C559.788 240.58 560.365 246.027 558.933 251.119C557.391 257.761 555.219 264.24 552.446 270.469C549.021 277.806 546.275 285.441 544.243 293.279C542.876 298.585 543.253 304.19 545.319 309.265C546.786 312.035 548.784 314.49 551.2 316.487C553.615 318.485 556.401 319.987 559.397 320.907C563.657 322.303 568.076 323.154 572.549 323.441L573.197 318.1C569.153 317.881 565.154 317.146 561.296 315.913C558.945 315.242 556.752 314.109 554.844 312.581C552.935 311.053 551.349 309.16 550.18 307.012C548.588 303.005 548.343 298.588 549.481 294.429C551.435 286.944 554.075 279.655 557.368 272.655C561.02 264.959 563.59 256.795 565.005 248.394C565.753 243.164 564.723 237.834 562.078 233.26C558.177 227.543 552.394 223.375 545.736 221.482C540.526 219.575 535.102 218.315 529.585 217.732L528.963 222.948Z" fill="#279FF2"/>
<path fill-rule="evenodd" clip-rule="evenodd" d="M530.238 267.719C531.159 273.256 530.42 278.942 528.112 284.059C525.872 289.886 522.585 295.578 519.757 301.206C513.522 313.628 509.715 325.577 520.494 336.766L524.391 333.02C515.46 323.741 519.449 313.911 524.592 303.623C527.481 297.889 530.833 292.001 533.155 286.033C535.84 279.937 536.675 273.187 535.556 266.62L530.238 267.719Z" fill="#279FF2"/>
<path fill-rule="evenodd" clip-rule="evenodd" d="M574.635 258.733C568.311 267.496 559.986 279.319 561.252 290.919L566.594 290.349C566.319 285.228 567.533 280.136 570.091 275.691C572.689 270.929 575.648 266.373 578.943 262.063L574.635 258.733Z" fill="#A14DF6"/>
<path fill-rule="evenodd" clip-rule="evenodd" d="M155.237 381.243C161.995 380.085 168.516 382.585 174.547 384.147C179.5 385.871 184.85 386.111 189.938 384.834C194.886 383.241 199.725 379.242 204.142 370.455L199.327 368.003C195.798 375.007 192.231 378.429 188.3 379.719C184.181 380.634 179.886 380.363 175.914 378.939C169.018 376.342 161.639 375.279 154.29 375.824L155.237 381.243Z" fill="#A14DF6"/>
<path fill-rule="evenodd" clip-rule="evenodd" d="M281.266 626.493C280.239 643.608 277.68 661.103 277.795 678.268L283.194 678.247C283.074 661.172 285.663 643.788 286.665 626.799L281.266 626.493Z" fill="#FFBA16"/>
<path fill-rule="evenodd" clip-rule="evenodd" d="M294.196 624.87C294.713 630.79 295.064 636.754 295.399 642.663L300.78 642.35C300.45 636.351 300.12 630.351 299.588 624.376L294.196 624.87Z" fill="#FFBA16"/>
<path fill-rule="evenodd" clip-rule="evenodd" d="M306.867 623.613L307.862 627.326L313.072 625.93L312.041 622.196L306.867 623.613Z" fill="#FFBA16"/>
<path fill-rule="evenodd" clip-rule="evenodd" d="M374.445 98.93C371.004 80.5476 371.776 61.0367 372.282 42.3095L366.873 42.1845C366.38 61.2942 365.447 81.0865 369.111 99.9731L374.445 98.93Z" fill="#FFBA16"/>
<path fill-rule="evenodd" clip-rule="evenodd" d="M387.64 98.6314C388.914 90.4362 389.376 82.1353 389.019 73.8494L383.579 73.9412C383.942 81.8692 383.513 89.8135 382.3 97.6566L387.64 98.6314Z" fill="#FFBA16"/>
<path fill-rule="evenodd" clip-rule="evenodd" d="M463.759 388.38C473.088 389.503 482.406 391.135 491.677 392.927L492.722 387.628C483.325 385.81 473.882 384.153 464.427 383.004L463.759 388.38Z" fill="#FFBA16"/>
<path fill-rule="evenodd" clip-rule="evenodd" d="M241.582 279.641C230.457 276.772 219.148 274.672 207.735 273.356L207.429 278.755C218.535 280.01 229.54 282.043 240.362 284.839L241.582 279.641Z" fill="#FFBA16"/>
<path fill-rule="evenodd" clip-rule="evenodd" d="M281.968 614.812C287.046 615.361 292.149 615.649 297.256 615.675C301.009 615.625 304.667 614.48 307.778 612.38C313.91 607.415 318.916 601.204 322.467 594.159C326.321 587.483 329.443 580.291 333.143 574.37C354.781 539.407 373.853 502.073 393.403 465.859L388.73 463.161C369.205 499.25 350.229 536.498 328.597 571.37C324.912 577.347 321.625 584.584 317.835 591.391C314.65 597.761 310.156 603.388 304.648 607.903C301.638 609.759 298.103 610.581 294.583 610.243C290.316 610.169 285.921 609.505 282.224 609.338L281.968 614.812Z" fill="#292D32"/>
<path fill-rule="evenodd" clip-rule="evenodd" d="M351.473 148.535C355.53 141.508 359.972 135.031 364.179 128.231C364.97 126.861 366.005 125.069 367.019 123.313C367.699 122.02 368.654 120.893 369.817 120.009C372.248 118.771 375.017 118.363 377.702 118.846C382.519 119.576 387.186 121.083 391.52 123.311C400.909 127.982 404.839 136.997 410.452 145.531C416.92 155.262 424.524 164.243 430.922 173.933L435.443 170.968C429.045 161.278 421.407 152.278 414.994 142.532C408.582 132.787 404.21 123.564 393.937 118.476C388.996 115.901 383.654 114.18 378.139 113.384C374.252 112.778 370.273 113.458 366.808 115.321C365.266 116.343 363.955 117.676 362.957 119.234C361.74 121.342 360.421 123.626 359.447 125.312C355.18 132.217 350.701 139.001 346.701 145.686L351.473 148.535Z" fill="#292D32"/>
</svg>
