<svg width="418" height="423" viewBox="0 0 418 423" fill="none" xmlns="http://www.w3.org/2000/svg">
<path fill-rule="evenodd" clip-rule="evenodd" d="M235.718 60.574C189.13 99.3252 151.08 87.5543 108.959 94.0349C81.0326 98.3663 65.6136 122.602 52.7093 144.954C48.5493 151.761 45.143 159.001 42.5511 166.545C19.3895 238.062 142.014 213.43 172.62 221.696C181.554 224.142 197.965 244.841 204.417 251.288C213.582 260.744 211.498 277.74 208.752 288.948C196.939 338.379 143.271 378.222 208.752 416.874C213.267 419.764 218.332 421.688 223.628 422.524C228.925 423.361 234.337 423.092 239.524 421.734C290.942 407.979 337.331 338.379 309.736 287.89C296.501 263.654 260.997 234.756 266.457 203.907C275.192 154.311 413.136 132.885 364.033 65.9966C359.031 59.3934 353.089 53.5565 346.397 48.671C336.058 41.1262 324.168 35.9757 311.589 33.5935C295.277 30.221 253.685 45.629 235.718 60.574Z" fill="#FFF3E4"/>
<path fill-rule="evenodd" clip-rule="evenodd" d="M358.805 113.113C358.805 110.763 357.871 108.509 356.208 106.847C354.545 105.185 352.289 104.252 349.938 104.252H121.631C119.279 104.252 117.024 105.185 115.361 106.847C113.698 108.509 112.764 110.763 112.764 113.113V255.289C112.764 257.639 113.698 259.893 115.361 261.555C117.024 263.216 119.279 264.15 121.631 264.15H349.938C352.289 264.15 354.545 263.216 356.208 261.555C357.871 259.893 358.805 257.639 358.805 255.289V113.113Z" fill="#E5E6EA"/>
<path fill-rule="evenodd" clip-rule="evenodd" d="M297.461 241.699C297.469 233.619 295.885 225.616 292.799 218.147C289.712 210.678 285.183 203.89 279.472 198.17C273.76 192.45 266.976 187.91 259.509 184.81C252.041 181.71 244.036 180.11 235.95 180.101C227.855 180.097 219.839 181.687 212.36 184.782C204.881 187.876 198.086 192.414 192.364 198.135C186.641 203.856 182.104 210.649 179.011 218.124C175.919 225.599 174.331 233.611 174.34 241.699V264.051H297.592L297.461 241.699Z" fill="#292D32"/>
<path d="M235.851 170.182C249.063 170.182 259.773 159.479 259.773 146.276C259.773 133.074 249.063 122.371 235.851 122.371C222.639 122.371 211.928 133.074 211.928 146.276C211.928 159.479 222.639 170.182 235.851 170.182Z" fill="#292D32"/>
<path d="M93.2422 175.869C108.463 160.13 120.473 140.953 135.859 125.38C135.859 125.38 137.977 127.397 138.274 127.727C139.859 129.411 141.562 130.98 143.37 132.422C148.896 136.787 155.05 140.226 160.576 144.59C162.098 145.78 163.62 146.938 165.076 148.227C165.738 148.855 166.432 150.872 166.994 150.145C172.52 142.937 176.921 134.439 182.612 127C197.369 107.426 213.351 88.7777 228.406 69.4352" stroke="#F56C2C" stroke-width="0.53" stroke-linejoin="round"/>
<path fill-rule="evenodd" clip-rule="evenodd" d="M397.519 225.101H263.645C261.293 225.101 259.037 226.035 257.374 227.697C255.711 229.358 254.777 231.612 254.777 233.963V294.073C254.777 296.423 255.711 298.677 257.374 300.339C259.037 302.001 261.293 302.934 263.645 302.934H379.188C380.361 302.947 381.524 302.728 382.611 302.289C383.699 301.849 384.689 301.199 385.523 300.374C386.357 299.55 387.018 298.569 387.47 297.487C387.922 296.406 388.155 295.245 388.154 294.073V238.624L397.519 225.101Z" fill="#A14DF6"/>
<path d="M235.553 276.219H93.1099V286.138H235.553V276.219Z" fill="#6E6F7C"/>
<path d="M235.686 297.512H93.2422V307.431H235.686V297.512Z" fill="#6E6F7C"/>
<path d="M235.686 319.83H93.2422V329.749H235.686V319.83Z" fill="#6E6F7C"/>
<path fill-rule="evenodd" clip-rule="evenodd" d="M343.056 343.24C339.748 351.076 336.141 358.912 332.6 366.682L336.604 368.501C340.144 360.731 343.586 352.861 347.06 345.058L343.056 343.24Z" fill="#F56C2C"/>
<path fill-rule="evenodd" clip-rule="evenodd" d="M329.688 348.629C336.381 352.362 342.716 356.7 348.615 361.59L351.46 358.284C345.357 353.207 338.801 348.702 331.872 344.827L329.688 348.629Z" fill="#F56C2C"/>
<path fill-rule="evenodd" clip-rule="evenodd" d="M336.57 342.843C337.456 352.29 339.027 361.661 341.269 370.881L345.538 369.724C343.344 360.721 341.807 351.572 340.938 342.347L336.57 342.843Z" fill="#F56C2C"/>
<path fill-rule="evenodd" clip-rule="evenodd" d="M84.5728 63.5499C77.3265 72.7748 72.7938 83.6857 65.8784 93.109L69.4182 95.7212C76.3005 86.331 80.834 75.4528 88.0472 66.2609L84.5728 63.5499Z" fill="#F56C2C"/>
<path fill-rule="evenodd" clip-rule="evenodd" d="M63.8931 73.4029C70.5107 78.2303 77.7567 82.6608 84.4074 87.6205L87.0215 84.0826C80.4039 79.123 73.257 74.6593 66.474 69.8319L63.8931 73.4029Z" fill="#F56C2C"/>
<path fill-rule="evenodd" clip-rule="evenodd" d="M73.8194 68.7408C73.8194 77.0729 73.1247 87.5212 75.6394 95.6219L79.8417 94.3326C77.4593 86.6286 78.1873 76.6762 78.2204 68.7738L73.8194 68.7408Z" fill="#F56C2C"/>
<path fill-rule="evenodd" clip-rule="evenodd" d="M346.199 328.262C347.369 326.833 348.794 325.633 350.402 324.724C351.149 324.284 352.027 324.12 352.883 324.261C354.362 324.762 355.616 325.769 356.423 327.104C357.937 329.208 359.297 331.418 360.493 333.717C365.82 343.14 372.074 353.093 384.68 346.381L382.596 342.479C380.48 343.812 377.955 344.34 375.482 343.967C373.462 343.423 371.659 342.268 370.321 340.661C367.001 336.239 364.035 331.563 361.453 326.674C359.858 323.577 357.133 321.21 353.842 320.062C350.93 319.433 347.225 320.558 342.924 325.385L346.199 328.262Z" fill="#279FF2"/>
<path fill-rule="evenodd" clip-rule="evenodd" d="M41.0959 301.314C38.7071 295.942 37.2307 290.209 36.7281 284.352C36.1492 280.384 36.1492 276.352 36.7281 272.383C38.1509 265.241 40.4339 261.472 43.3457 259.719C46.7064 258.204 50.4688 257.821 54.0661 258.628C63.6616 259.687 74.3493 261.935 82.4558 250.693L78.8821 248.147C71.9998 257.703 62.7348 255.157 54.5621 254.231C50.0219 253.349 45.3194 253.927 41.129 255.884C37.2909 258.099 34.0146 262.497 32.2609 271.523C31.5992 275.907 31.5992 280.365 32.2609 284.749C32.7974 291.073 34.3859 297.264 36.9599 303.067L41.0959 301.314Z" fill="#279FF2"/>
<path fill-rule="evenodd" clip-rule="evenodd" d="M66.8376 234.558C67.9295 238.922 67.4666 241.799 65.5144 243.32C64.2445 244.23 62.7086 244.695 61.1466 244.642C57.5552 244.544 54.0394 243.592 50.8898 241.865L48.8711 245.766C52.6728 247.87 56.9342 249.005 61.2791 249.073C63.7954 249.109 66.2524 248.307 68.261 246.791C71.2058 244.444 72.7936 240.179 71.1061 233.566L66.8376 234.558Z" fill="#279FF2"/>
<path fill-rule="evenodd" clip-rule="evenodd" d="M293.523 21.1284C294.705 17.9613 296.556 15.0857 298.95 12.6971C304.674 7.01008 309.042 4.59633 312.979 4.36488C316.796 4.42112 320.472 5.81349 323.368 8.29953C328.925 12.9753 335.148 16.7976 341.832 19.6405C352.155 23.2776 361.685 19.6406 371.082 15.1769L369.129 11.2092C360.857 15.2761 352.42 18.7147 343.287 15.5075C337.038 12.7645 331.211 9.14626 325.982 4.76164C322.274 1.6579 317.584 -0.0294136 312.747 0.000388117C308.082 0.297966 302.821 2.84399 295.873 9.58908C293.044 12.396 290.854 15.7793 289.453 19.5083L293.523 21.1284Z" fill="#279FF2"/>
<path fill-rule="evenodd" clip-rule="evenodd" d="M299.148 32.1388C309.075 27.5099 323.005 27.113 331.938 34.3541L334.718 31.0477C324.527 22.8147 308.611 22.9799 297.262 28.2702L299.148 32.1388Z" fill="#A14DF6"/>
<path fill-rule="evenodd" clip-rule="evenodd" d="M363.007 317.813C366.548 325.484 371.512 330.774 380.214 331.832L380.743 327.468C373.728 326.608 369.89 322.178 367.012 315.962L363.007 317.813Z" fill="#A14DF6"/>
<path fill-rule="evenodd" clip-rule="evenodd" d="M52.9074 264.547C50.3321 266.472 48.4072 269.138 47.39 272.187C46.3729 275.237 46.3123 278.523 47.2164 281.608C48.7354 287.447 51.6412 292.835 55.6871 297.313L58.9959 294.371C55.439 290.467 52.8842 285.758 51.5511 280.649C50.8648 278.388 50.8833 275.972 51.6044 273.722C52.3255 271.471 53.7148 269.494 55.5877 268.052L52.9074 264.547Z" fill="#A14DF6"/>
<path fill-rule="evenodd" clip-rule="evenodd" d="M167.392 359.573C166.366 369.493 165.705 379.61 165.175 389.629L169.575 389.86C170.105 379.941 170.767 370.021 171.793 360.102L167.392 359.573Z" fill="#FFBA16"/>
<path fill-rule="evenodd" clip-rule="evenodd" d="M187.079 369.658C188.204 373.89 188.965 378.089 189.892 382.355L194.193 381.363C193.233 377.064 192.473 372.799 191.348 368.501L187.079 369.658Z" fill="#FFBA16"/>
<path fill-rule="evenodd" clip-rule="evenodd" d="M190.653 60.012C188.37 47.9105 186.285 35.7759 184.3 23.6414L179.966 24.3356C181.929 36.5693 184.046 48.759 186.318 60.9046L190.653 60.012Z" fill="#FFBA16"/>
<path fill-rule="evenodd" clip-rule="evenodd" d="M205.576 55.3167C204.748 49.0345 204.219 42.7193 203.789 36.4041L199.388 36.7346C199.851 43.116 200.347 49.5635 201.208 55.9118L205.576 55.3167Z" fill="#FFBA16"/>
<path fill-rule="evenodd" clip-rule="evenodd" d="M1.72064 226.027C16.0385 220.378 29.7965 213.404 42.8156 205.197L40.3671 201.527C27.5868 209.596 14.0709 216.437 0 221.96L1.72064 226.027Z" fill="#FFBA16"/>
<path fill-rule="evenodd" clip-rule="evenodd" d="M25.875 200.27C31.3376 197.837 36.9525 195.761 42.6839 194.054L41.2937 189.888C35.3915 191.646 29.6108 193.789 23.9888 196.302L25.875 200.27Z" fill="#FFBA16"/>
<path fill-rule="evenodd" clip-rule="evenodd" d="M380.478 146.376C392.721 146.376 406.022 146.64 418 143.73L416.941 139.432C405.327 142.309 392.357 141.879 380.544 141.978L380.478 146.376Z" fill="#FFBA16"/>
<path fill-rule="evenodd" clip-rule="evenodd" d="M397.187 129.017C401.544 127.928 405.964 127.111 410.423 126.57L409.695 122.206C405.039 122.8 400.421 123.661 395.864 124.785L397.187 129.017Z" fill="#FFBA16"/>
</svg>
