<svg width="505" height="533" viewBox="0 0 505 533" fill="none" xmlns="http://www.w3.org/2000/svg">
<g clip-path="url(#clip0_1035_7931)">
<path fill-rule="evenodd" clip-rule="evenodd" d="M45.8249 154.341C100.968 127.251 168.922 218.65 266.396 61.8973C288.847 25.7235 347.684 5.06431 387.204 34.5258C402.305 45.7799 410.016 63.505 414.916 81.1899C433.109 146.544 393.028 177.935 352.745 221.866C333.507 242.766 317.121 277.332 338.768 302.895C381.421 353.216 466.404 281.954 498.092 367.726C506.896 390.48 507.323 415.627 499.297 438.667C494.043 455.41 485.886 471.096 475.199 485.009C426.282 548.635 307.08 552.855 266.557 477.614C242.098 432.156 252.098 368.369 209.245 332.919C156.753 289.47 105.747 365.877 50.6043 351.327C-23.8967 331.271 -8.1531 180.829 45.8249 154.341Z" fill="#FFEEE1"/>
<path fill-rule="evenodd" clip-rule="evenodd" d="M369.573 206.07L324.752 215.837L315.555 175.041L299.048 101.809C295.183 85.7012 285.564 71.5649 272.003 62.0656C258.442 52.5663 241.876 48.3606 225.43 50.2413C222.727 50.5675 220.045 51.0507 217.398 51.6883C199.925 55.8742 184.829 66.8341 175.429 82.1576C166.03 97.4811 163.097 115.913 167.276 133.401L190.329 230.708L148.239 240.917L139.805 207.316L124.141 143.851C117.685 116.79 121.508 88.2933 134.867 63.8942C148.226 39.4952 170.168 20.9349 196.433 11.8168C199.887 10.611 203.422 9.60616 207.036 8.72192C235.938 1.79241 266.408 6.62918 291.749 22.1695C317.089 37.7098 335.229 62.6823 342.182 91.6L369.573 206.07Z" fill="#FFD36A"/>
<path fill-rule="evenodd" clip-rule="evenodd" d="M196.273 11.6962C186.528 15.6022 177.716 21.5184 170.408 29.0596C160.042 41.3028 152.353 55.5832 147.837 70.9809C141.634 92.0434 140.723 114.313 145.186 135.812C153.982 172.669 160.368 196.504 160.368 196.504C153.873 200.754 146.987 204.375 139.804 207.316L124.141 143.851C117.643 116.793 121.427 88.2838 134.757 63.8613C148.087 39.4388 170.012 20.8466 196.273 11.6962Z" fill="#292D32"/>
<path fill-rule="evenodd" clip-rule="evenodd" d="M337.242 165.676C336.61 166.972 335.727 168.13 334.645 169.082C333.563 170.034 332.302 170.762 330.936 171.222C325.995 173.194 320.828 174.544 315.554 175.242L299.048 102.01C295.183 85.9021 285.563 71.7658 272.002 62.2665C258.441 52.7673 241.876 48.5615 225.43 50.4423L224.466 49.6384C256.074 39.9117 290.292 49.6384 309.209 77.9745C319.249 93.0067 323.547 110.692 327.764 128.055C330.053 137.42 332.503 146.705 334.912 156.19C335.394 157.718 337.925 163.706 337.242 165.676Z" fill="#292D32"/>
<path fill-rule="evenodd" clip-rule="evenodd" d="M429.334 368.61C407.606 484.648 182.216 523.836 150.407 391.038C135.748 329.704 107.394 198.996 107.394 198.996L135.788 192.083L384.794 132.396L427.888 324.72C431.456 339.084 431.949 354.042 429.334 368.61Z" fill="#FFD36A"/>
<path fill-rule="evenodd" clip-rule="evenodd" d="M429.334 368.61C407.606 484.648 182.216 523.836 150.407 391.038C135.748 329.704 107.394 198.996 107.394 198.996L135.788 192.083L159.364 288.546C159.364 288.546 171.171 344.052 179.445 371.424C186.312 393.771 196.393 418.369 216.073 432.397C235.752 446.424 262.982 450.443 286.196 449.961C301.521 449.424 316.692 446.718 331.258 441.923C362.544 431.955 389.051 418.771 410.98 393.972C418.083 386.479 424.136 378.056 428.973 368.932C429.074 368.805 429.197 368.697 429.334 368.61Z" fill="#292D32"/>
<path d="M290.011 293.048C305.494 293.048 318.045 280.487 318.045 264.993C318.045 249.499 305.494 236.938 290.011 236.938C274.529 236.938 261.978 249.499 261.978 264.993C261.978 280.487 274.529 293.048 290.011 293.048Z" fill="#CCA343"/>
<path fill-rule="evenodd" clip-rule="evenodd" d="M302.221 275.965L285.393 279.985L286.477 348.715L330.856 338.064L302.221 275.965Z" fill="#CCA343"/>
<path fill-rule="evenodd" clip-rule="evenodd" d="M328.567 337.421L326.72 337.782L318.687 339.39C315.354 340.073 312.061 340.837 308.767 341.641C301.859 343.369 295.032 345.258 288.124 346.906L286.718 347.228L285.835 347.589L286.035 348.554C286.517 348.554 286.959 348.554 287.401 348.554C288.078 348.445 288.749 348.298 289.409 348.112C299.289 345.861 308.968 342.807 318.928 340.797L326.961 339.229C327.744 339.137 328.521 339.003 329.29 338.827C329.468 338.781 329.632 338.691 329.765 338.564C329.899 338.438 329.998 338.279 330.053 338.104C330.041 337.601 329.917 337.107 329.692 336.657C329.29 335.773 328.607 334.768 328.407 334.286L323.748 324.278C320.856 318.088 317.884 311.978 315.113 305.749C313.265 301.729 311.498 297.469 309.852 293.208C309.249 291.761 308.165 290.234 307.442 288.747C307.324 288.53 307.23 288.301 307.161 288.064L309.41 286.094C310.557 284.724 311.604 283.274 312.543 281.753C313.503 280.266 314.349 278.707 315.073 277.091C317.101 272.782 318.117 268.067 318.045 263.305C317.971 258.555 316.788 253.889 314.591 249.679C312.73 246.56 310.228 243.872 307.251 241.793C304.274 239.714 300.889 238.292 297.321 237.621C290.956 235.994 284.22 236.692 278.324 239.591C277.621 239.673 276.946 239.921 276.356 240.314C276.351 240.395 276.351 240.475 276.356 240.555L276.798 241.198H277.039C277.604 240.945 278.142 240.635 278.646 240.274C284.329 237.605 290.769 237.022 296.839 238.626C300.217 239.288 303.416 240.658 306.226 242.646C309.037 244.635 311.395 247.196 313.145 250.162C315.277 254.173 316.407 258.641 316.438 263.184C316.507 267.726 315.532 272.223 313.587 276.327C312.857 277.886 312.039 279.403 311.137 280.869C310.233 282.281 309.226 283.625 308.125 284.888L305.876 286.858C305.733 286.972 305.621 287.12 305.551 287.289C305.481 287.457 305.454 287.641 305.474 287.822C305.606 288.261 305.767 288.691 305.956 289.109C306.639 290.556 307.763 292.043 308.285 293.449C309.972 297.71 311.739 301.89 313.587 306.07C316.398 312.3 319.33 318.409 322.262 324.599L326.88 334.607C326.88 335.089 327.764 336.094 328.166 336.979L328.567 337.421Z" fill="#292D32"/>
<path fill-rule="evenodd" clip-rule="evenodd" d="M356.962 155.627L356.68 155.909L355.154 157.758C349.451 164.631 344.029 171.705 338.367 178.618C336.479 180.909 334.551 183.16 332.623 185.451L330.133 188.345L330.856 188.988L333.427 186.174C335.435 183.923 337.443 181.632 339.21 179.301C344.833 172.388 350.214 165.234 355.877 158.32C356.359 157.718 356.881 157.115 357.363 156.472L357.725 155.989L356.962 155.627Z" fill="#292D32"/>
<path fill-rule="evenodd" clip-rule="evenodd" d="M365.637 157.838C365.493 157.962 365.359 158.096 365.236 158.24C365.04 158.436 364.865 158.651 364.713 158.883C362.103 162.139 359.613 165.515 357.163 168.891C350.857 177.693 345.114 186.777 338.608 195.539L339.491 196.142C345.797 187.38 351.54 178.296 357.966 169.494C360.416 166.078 362.866 162.742 365.436 159.446C365.632 159.25 365.807 159.035 365.958 158.803C366.067 158.651 366.161 158.49 366.24 158.32L365.637 157.838Z" fill="#292D32"/>
<path fill-rule="evenodd" clip-rule="evenodd" d="M370.537 168.328C370.135 168.891 369.733 169.414 369.372 170.017C366.038 175.161 362.825 180.427 359.331 185.491C355.837 190.555 352.986 194.414 349.773 198.835L347.403 202.211L348.207 202.774L351.179 198.755C355.195 193.489 358.89 188.103 362.504 182.677C364.954 179.02 367.404 175.362 369.613 171.584L371.179 168.69L370.537 168.328Z" fill="#292D32"/>
<path fill-rule="evenodd" clip-rule="evenodd" d="M372.384 204.14L371.42 205.467L370.818 206.351C369.693 208.16 368.609 209.968 367.524 211.777L368.488 212.38C369.733 210.29 371.059 208.361 372.223 206.19C372.504 205.628 372.786 205.105 373.027 204.542L372.384 204.14Z" fill="#292D32"/>
<path fill-rule="evenodd" clip-rule="evenodd" d="M203.341 381.794C203.582 381.311 203.903 380.869 204.144 380.427L204.586 379.463C207.839 372.268 211.333 365.154 214.988 358.16C219.004 350.363 223.342 342.646 227.84 335.17L226.876 334.567C222.338 342.083 218.04 349.8 213.944 357.598C210.289 364.631 206.835 371.786 203.542 378.98C203.411 379.309 203.264 379.631 203.1 379.945L202.618 381.472L203.341 381.794Z" fill="#292D32"/>
<path fill-rule="evenodd" clip-rule="evenodd" d="M208.683 392.324L208.924 391.922C209.219 391.379 209.474 390.815 209.687 390.234C212.378 383.924 215.149 377.614 218.081 371.344C219.848 367.646 221.696 364.028 223.543 360.411C224.025 359.487 224.467 358.562 224.909 357.638L224.025 357.155L222.459 359.808C220.531 363.426 218.764 367.123 216.997 370.861C214.065 377.091 211.334 383.482 208.643 389.792C208.368 390.34 208.127 390.904 207.92 391.48C207.92 391.48 207.92 391.802 207.92 391.963L208.683 392.324Z" fill="#292D32"/>
<path fill-rule="evenodd" clip-rule="evenodd" d="M218.442 394.897L218.964 393.972C219.041 393.764 219.135 393.562 219.245 393.369C221.254 388.586 223.262 383.803 225.23 379.061L224.225 378.659C222.418 382.879 220.571 387.059 218.844 391.32C218.563 392.083 218.201 392.807 217.96 393.57L217.719 394.615L218.442 394.897Z" fill="#292D32"/>
<path fill-rule="evenodd" clip-rule="evenodd" d="M226.314 402.574C226.618 402.188 226.9 401.785 227.158 401.368C227.399 400.966 227.599 400.524 227.8 400.122C229.085 397.389 230.33 394.615 231.575 392.083C231.816 391.52 232.098 390.998 232.298 390.435C232.499 389.873 232.298 390.154 232.298 389.993L231.375 389.551L231.134 389.913C230.812 390.435 230.571 390.998 230.29 391.52C228.965 394.254 227.76 397.027 226.475 399.76C226.274 400.202 226.033 400.604 225.872 401.046C225.712 401.488 225.631 401.971 225.471 402.413L226.314 402.574Z" fill="#292D32"/>
<path fill-rule="evenodd" clip-rule="evenodd" d="M263.705 15.2332C262.661 17.0017 261.657 18.8103 260.653 20.6592C259.207 23.3522 257.761 26.1255 256.235 28.6978C255.151 30.6271 254.026 32.7171 252.821 34.3249L253.624 34.8474C254.869 33.0387 256.034 31.1496 257.159 29.2203C258.685 26.5274 260.091 23.7139 261.496 20.9808C262.46 19.1319 263.384 17.283 264.348 15.4743L263.705 15.2332Z" fill="white"/>
<path fill-rule="evenodd" clip-rule="evenodd" d="M270.693 16.6399C268.404 20.4583 266.074 24.2766 263.906 28.1753C263.143 29.5017 262.38 30.8281 261.697 32.1946L261.215 33.2397L262.018 33.6818L263.906 30.386C266.396 25.9245 268.846 21.4229 271.336 17.0419L270.693 16.6399Z" fill="white"/>
<path fill-rule="evenodd" clip-rule="evenodd" d="M275.232 19.7348L274.95 20.0965C274.187 21.1415 273.545 22.3473 272.862 23.4727C272.179 24.5981 271.496 25.7236 270.894 26.9293C270.91 27.0628 270.91 27.1978 270.894 27.3313L271.737 27.8136L276.236 20.2573L275.232 19.7348Z" fill="white"/>
<path fill-rule="evenodd" clip-rule="evenodd" d="M279.449 22.8297C279.449 22.8297 279.208 22.8297 279.127 22.8297C278.878 23.1852 278.688 23.5789 278.565 23.9953L279.408 24.4776C279.698 24.1659 279.942 23.8139 280.131 23.4326C280.172 23.3016 280.172 23.1616 280.131 23.0306L279.449 22.8297Z" fill="white"/>
<path fill-rule="evenodd" clip-rule="evenodd" d="M295.835 127.251C296.156 126.407 296.518 125.603 296.799 124.759C297.883 121.423 298.646 118.007 299.851 114.751C300.805 111.991 301.959 109.304 303.305 106.713C312.623 89.2688 321.981 84.2044 331.74 84.3652C340.817 84.3652 350.134 89.0276 359.853 92.0421C369.573 95.0566 379.332 96.5839 389.654 91.6803C397.132 88.1871 403.125 82.1467 406.562 74.6385C409.903 66.9379 412.213 58.829 413.43 50.5227C414.113 47.0259 414.715 43.5693 415.478 40.1529L413.47 39.6705C412.506 43.0468 411.663 46.5034 410.9 50.0002C409.504 58.0246 407.186 65.8607 403.992 73.3523C400.815 80.264 395.314 85.8402 388.449 89.108C377.163 94.5742 366.4 91.5196 355.958 87.9826C344.11 83.9633 332.744 79.3009 321.739 83.9633C314.872 86.7768 308.044 93.1675 301.417 105.708C299.665 109.014 298.214 112.471 297.08 116.037C296.108 118.827 295.303 121.672 294.67 124.558C294.67 125.322 294.67 126.045 294.429 126.809L295.835 127.251Z" fill="#9433F5"/>
<path fill-rule="evenodd" clip-rule="evenodd" d="M93.4975 421.505C94.0196 419.294 94.7425 417.123 95.4654 414.913C101.731 395.218 116.43 375.041 133.298 368.972C145.949 364.39 159.444 367.887 170.448 385.492C176.232 394.736 177.316 413.627 179.364 433.201C181.252 451.288 183.983 469.736 191.413 481.432C198.843 493.129 210.691 498.354 230.812 490.998C233.462 489.985 236.027 488.762 238.483 487.341C242.098 485.291 245.552 482.839 248.966 480.669L247.801 478.739C244.307 480.749 240.732 482.759 237.118 484.849C234.767 486.128 232.323 487.23 229.808 488.145C211.575 494.776 200.731 490.154 194.064 479.704C186.714 468.329 184.184 450.363 182.296 432.799C180.127 412.702 178.722 393.369 172.738 383.924C160.689 364.913 145.949 361.376 132.254 366.44C114.784 372.831 98.4375 393.45 93.1361 414.23C92.5823 416.518 92.1798 418.841 91.9312 421.183L93.4975 421.505Z" fill="#9433F5"/>
<path fill-rule="evenodd" clip-rule="evenodd" d="M359.854 56.833C360.059 56.9687 360.274 57.0895 360.496 57.1947C361.39 57.2952 362.293 57.2952 363.187 57.1947C373.411 57.7415 383.461 54.3795 391.301 47.7895C396.431 43.4154 400.672 38.0934 403.791 32.1142C405.863 28.2347 407.57 24.1712 408.892 19.9759L407.004 19.3329C405.532 23.3913 403.718 27.3175 401.582 31.0692C398.496 36.7136 394.414 41.752 389.533 45.9406C382.157 52.1591 372.699 55.3477 363.067 54.8635C362.211 54.8025 361.352 54.8025 360.496 54.8635C360.276 54.9254 360.06 55.0061 359.854 55.1047V56.833Z" fill="#279FF2"/>
<path fill-rule="evenodd" clip-rule="evenodd" d="M150.93 389.229C152.255 390.435 153.5 391.762 154.946 393.249C160.096 398.292 164.408 404.127 167.718 410.532C171.814 418.544 173.369 427.616 172.176 436.537C169.565 453.177 160.328 471.545 158.761 488.989C157.669 497.706 159.416 506.544 163.741 514.19C165.664 517.377 168.03 520.273 170.77 522.791L172.296 521.264C169.85 518.754 167.731 515.945 165.991 512.904C162.051 505.692 160.464 497.429 161.452 489.27C163.019 471.866 172.135 453.498 174.666 437.019C175.96 427.598 174.305 418.007 169.926 409.567C166.675 402.78 162.116 396.702 156.512 391.681C155.094 390.464 153.591 389.349 152.014 388.345L150.93 389.229Z" fill="#279FF2"/>
<path fill-rule="evenodd" clip-rule="evenodd" d="M97.3932 131.552C96.0188 128.364 95.493 124.875 95.867 121.423C96.1887 119.21 96.9685 117.088 98.1563 115.193C101.45 109.807 107.554 105.668 113.056 100.965C119.145 96.7178 123.44 90.3574 125.105 83.1192C126.471 74.6787 123.298 67.042 119.362 59.8073C115.195 53.2447 112.078 46.0708 110.125 38.5451C109.451 34.8112 109.658 30.9715 110.727 27.3313C112.336 22.0858 114.986 17.2192 118.519 13.0226C122.096 8.75493 126.137 4.89941 130.567 1.52734L129.403 0C124.827 3.40379 120.65 7.31391 116.952 11.656C113.161 16.0364 110.317 21.1544 108.598 26.6882C107.431 30.597 107.17 34.721 107.835 38.7461C109.79 46.5506 112.99 53.9882 117.314 60.7719C120.968 67.6851 124.141 74.6385 122.896 82.5565C121.351 89.2905 117.357 95.2079 111.691 99.1563C105.988 103.979 99.6423 108.32 96.3088 113.907C94.9371 116.111 94.0854 118.599 93.8187 121.182C93.6041 124.991 94.4376 128.787 96.2284 132.155L97.3932 131.552Z" fill="#279FF2"/>
<path fill-rule="evenodd" clip-rule="evenodd" d="M457.488 267.043C457.488 267.043 457.488 267.043 457.207 267.043C456.926 267.043 456.644 268.047 456.363 268.57C453.552 273.674 450.66 278.658 447.969 283.803C446.363 286.858 444.797 289.912 443.391 293.088C443.216 293.39 443.081 293.715 442.989 294.052C442.826 294.55 442.706 295.061 442.628 295.58L444.315 296.303C444.619 295.918 444.9 295.515 445.158 295.097C445.383 294.68 445.584 294.251 445.76 293.811C449.375 285.773 453.793 278.377 457.809 270.74C458.291 269.896 458.733 269.052 459.175 268.208L457.488 267.043Z" fill="#F56C2C"/>
<path fill-rule="evenodd" clip-rule="evenodd" d="M437.447 270.499L439.535 271.826C446.564 276.207 453.512 280.748 460.54 285.129C462.106 286.134 463.633 287.179 465.279 288.023C465.682 288.248 466.098 288.449 466.524 288.626L467.448 287.139L466.685 286.536C465.655 285.766 464.582 285.055 463.472 284.406L447.086 274.076L439.053 269.133C438.772 269.133 438.531 268.691 438.25 268.65C437.969 268.61 438.25 268.65 438.25 268.65L437.367 270.097C437.367 270.097 437.487 270.499 437.447 270.499Z" fill="#F56C2C"/>
<path fill-rule="evenodd" clip-rule="evenodd" d="M447.447 266.641C447.447 267.364 447.688 268.047 447.889 268.731C449.616 274.961 451.504 281.03 453.512 287.139C454.074 288.827 454.717 290.515 455.4 292.203L457.247 291.52C456.765 290.154 456.403 288.827 456.002 287.501C454.315 282.035 452.869 276.528 451.022 271.062C450.714 270.025 450.352 269.006 449.937 268.007C449.616 267.364 449.215 266.761 448.813 266.118L447.447 266.641Z" fill="#F56C2C"/>
<path fill-rule="evenodd" clip-rule="evenodd" d="M440.7 283.723C442.186 283.281 443.672 282.919 445.158 282.396C448.532 281.191 451.825 279.663 455.158 278.136C459.454 276.315 463.603 274.165 467.568 271.705L468.854 270.781L467.97 269.293L465.761 270.419C462.91 271.906 460.018 273.473 457.046 274.84C452.548 276.93 447.889 278.618 443.471 280.668C442.347 281.191 441.262 281.793 440.178 282.356L440.7 283.723Z" fill="#F56C2C"/>
<path fill-rule="evenodd" clip-rule="evenodd" d="M85.3846 170.901C84.742 171.665 84.0592 172.428 83.4166 173.272C80.9667 176.528 78.8783 180.025 76.6693 183.441C70.8057 192.404 64.942 201.367 59.3996 210.491C58.757 211.496 58.1947 212.541 57.5923 213.546L59.1185 214.55C59.4398 214.149 59.761 213.787 60.0823 213.345C60.4036 212.903 61.4078 211.375 62.0504 210.37C69.5607 198.875 76.7095 187.139 84.3001 175.684C84.7018 175.041 85.1837 174.438 85.5452 173.755C85.941 173.097 86.29 172.412 86.5894 171.705L85.3846 170.901Z" fill="#F56C2C"/>
<path fill-rule="evenodd" clip-rule="evenodd" d="M49.2788 180.346C50.4837 181.311 51.6886 182.316 52.9738 183.24C64.42 191.279 77.0711 197.71 88.3567 206.231L89.4813 204.743C85.7462 201.849 81.8906 199.157 77.9547 196.705C70.605 191.922 63.0545 187.46 55.7048 182.677L53.536 181.23L50.1223 179.261L49.2788 180.346Z" fill="#F56C2C"/>
<path fill-rule="evenodd" clip-rule="evenodd" d="M66.9902 173.232C66.9902 173.955 66.9902 174.639 66.9902 175.322C66.9902 176.005 66.9903 176.247 67.1911 176.689C67.7936 181.271 68.5967 185.812 69.4803 190.314C70.7655 197.107 72.0908 203.859 73.4965 210.411C73.7776 211.737 74.0186 213.104 74.4203 214.43L74.8219 215.395L76.7496 214.993C76.7496 214.55 76.7496 214.149 76.7496 213.706C76.7496 213.264 76.3882 211.737 76.1874 210.732C73.858 199.358 71.2876 188.103 69.4803 176.648C69.4803 176.005 69.4803 175.362 69.159 174.719C68.8377 174.076 68.7574 173.513 68.5566 172.87L66.9902 173.232Z" fill="#F56C2C"/>
<path fill-rule="evenodd" clip-rule="evenodd" d="M46.5477 197.629C47.5919 197.629 48.6764 197.629 49.7206 197.629C53.9376 197.629 58.1546 196.785 62.3315 196.222C73.2958 194.775 84.2601 193.047 95.1843 191.279L98.7988 190.636L98.598 188.948C96.8308 188.948 95.0637 189.229 93.3367 189.43C80.7659 190.917 68.3558 193.449 55.785 195.017C53.6162 195.258 51.4074 195.459 49.2387 195.74C48.2748 195.74 47.351 196.062 46.4272 196.222L46.5477 197.629Z" fill="#F56C2C"/>
</g>
<defs>
<clipPath id="clip0_1035_7931">
<rect width="505" height="533" fill="white"/>
</clipPath>
</defs>
</svg>
