<svg width="223" height="190" viewBox="0 0 223 190" fill="none" xmlns="http://www.w3.org/2000/svg">
<path opacity="0.11" d="M43.5276 131.578C50.1345 135.036 58.65 137.155 68.0991 137.511C68.103 137.542 68.1052 137.573 68.1092 137.605C70.9074 159.276 102.636 172.971 138.976 168.192C173.587 163.641 199.899 143.974 199.906 123.39C214.579 116.595 223.777 105.667 222.356 94.655C221.452 87.6598 216.414 81.8058 208.781 77.754C212.784 71.7333 214.651 65.2477 213.81 58.7408C211.012 37.0692 179.284 23.3746 142.944 28.1532C119.901 31.1831 100.541 40.9139 90.1679 53.1535C81.2949 51.8491 71.5424 51.7469 61.4315 53.0764C25.0911 57.8549 -2.10022 79.2969 0.697986 100.968C2.73805 116.768 20.1569 128.326 43.5276 131.578Z" fill="#1C1CB7"/>
<path d="M49.9835 61.2811C43.5974 82.3695 61.0387 99.1021 61.0387 99.1021C64.3953 79.5356 55.0372 70.6893 49.9835 61.2811Z" fill="#D6DCF2"/>
<mask id="mask0_1036_10797" style="mask-type:luminance" maskUnits="userSpaceOnUse" x="48" y="61" width="14" height="39">
<path fill-rule="evenodd" clip-rule="evenodd" d="M49.9835 61.2811C43.5974 82.3695 61.0387 99.1021 61.0387 99.1021C64.3953 79.5356 55.0372 70.6893 49.9835 61.2811Z" fill="white"/>
</mask>
<g mask="url(#mask0_1036_10797)">
<path d="M52.8062 57.167L49.9835 61.2811C49.9835 61.2811 60.9358 88.4474 61.0387 99.1021C61.1415 109.757 66.9853 78.4239 66.9853 78.4239L64.9656 67.3942" fill="#EAEEF9"/>
</g>
<path d="M74.3759 76.7306C64.3131 101.077 78.4662 111.528 78.4662 111.528C81.8228 91.9613 79.4296 86.1388 74.3759 76.7306Z" fill="#D6DCF2"/>
<mask id="mask1_1036_10797" style="mask-type:luminance" maskUnits="userSpaceOnUse" x="70" y="76" width="11" height="36">
<path fill-rule="evenodd" clip-rule="evenodd" d="M74.3759 76.7306C64.3131 101.077 78.4662 111.528 78.4662 111.528C81.8228 91.9613 79.4296 86.1388 74.3759 76.7306Z" fill="white"/>
</mask>
<g mask="url(#mask1_1036_10797)">
<path d="M75.0342 70.703L74.3759 76.7306C74.3759 76.7306 72.83 99.4442 78.4662 111.528C84.1024 123.611 83.9749 89.8984 83.9749 89.8984L80.3128 75.9339" fill="#EAEEF9"/>
</g>
<path d="M90.0651 87.4546C82.1608 112.357 90.2413 123.822 90.2413 123.822C100.87 107.3 95.1188 96.8628 90.0651 87.4546Z" fill="#D6DCF2"/>
<mask id="mask2_1036_10797" style="mask-type:luminance" maskUnits="userSpaceOnUse" x="86" y="87" width="11" height="37">
<path fill-rule="evenodd" clip-rule="evenodd" d="M90.0651 87.4546C82.1608 112.357 90.2413 123.822 90.2413 123.822C100.87 107.3 95.1188 96.8628 90.0651 87.4546Z" fill="white"/>
</mask>
<g mask="url(#mask2_1036_10797)">
<path d="M90.6272 83.2269L90.0651 87.4546C90.0651 87.4546 94.0397 112.928 90.2413 123.822C86.443 134.716 104.902 103.186 104.902 103.186L96.2644 82.1897" fill="#EAEEF9"/>
</g>
<path d="M113.387 105.02C97.5419 123.843 102.016 139.503 102.016 139.503C117.327 127.321 116.611 113.241 113.387 105.02Z" fill="#D6DCF2"/>
<mask id="mask3_1036_10797" style="mask-type:luminance" maskUnits="userSpaceOnUse" x="101" y="105" width="15" height="35">
<path fill-rule="evenodd" clip-rule="evenodd" d="M113.387 105.02C97.5419 123.843 102.016 139.503 102.016 139.503C117.327 127.321 116.611 113.241 113.387 105.02Z" fill="white"/>
</mask>
<g mask="url(#mask3_1036_10797)">
<path d="M113.402 95.0664L113.387 105.02C113.387 105.02 111.194 126.442 102.016 139.503C92.8381 152.564 119.252 132.586 119.252 132.586L125.141 118.32L122.381 100.494" fill="#EAEEF9"/>
</g>
<path d="M31.6516 116.943C53.2983 117.815 61.4333 99.3982 61.4333 99.3982C42.0881 102.643 38.7393 109.01 31.6516 116.943Z" fill="#D6DCF2"/>
<mask id="mask4_1036_10797" style="mask-type:luminance" maskUnits="userSpaceOnUse" x="31" y="99" width="31" height="18">
<path fill-rule="evenodd" clip-rule="evenodd" d="M31.6516 116.943C53.2983 117.815 61.4333 99.3982 61.4333 99.3982C42.0881 102.643 38.7393 109.01 31.6516 116.943Z" fill="white"/>
</mask>
<g mask="url(#mask4_1036_10797)">
<path d="M23.3203 131.214L31.6516 116.943C31.6516 116.943 52.9424 108.905 61.0387 99.1022C69.1351 89.2995 66.0844 104.609 66.0844 104.609L44.8912 123.801L27.4762 128.711" fill="#EAEEF9"/>
</g>
<path d="M47.5549 126.529C68.981 129.79 79.0544 112.386 79.0544 112.386C59.4725 113.471 55.4567 119.429 47.5549 126.529Z" fill="#D6DCF2"/>
<mask id="mask5_1036_10797" style="mask-type:luminance" maskUnits="userSpaceOnUse" x="47" y="112" width="33" height="15">
<path fill-rule="evenodd" clip-rule="evenodd" d="M47.5549 126.529C68.981 129.79 79.0544 112.386 79.0544 112.386C59.4725 113.471 55.4567 119.429 47.5549 126.529Z" fill="white"/>
</mask>
<g mask="url(#mask5_1036_10797)">
<path d="M43.1473 133.225L47.5549 126.53C47.5549 126.53 77.9927 116.041 79.553 111.259L63.7146 110.153C63.7146 110.153 53.6603 114.953 52.589 115.689C51.5178 116.425 42.8694 122.499 42.8694 122.499" fill="#EAEEF9"/>
</g>
<path d="M61.4656 136.128C82.8917 139.389 90.6968 124.072 90.6968 124.072C71.1148 125.157 69.3674 129.027 61.4656 136.128Z" fill="#D6DCF2"/>
<mask id="mask6_1036_10797" style="mask-type:luminance" maskUnits="userSpaceOnUse" x="61" y="124" width="30" height="13">
<path fill-rule="evenodd" clip-rule="evenodd" d="M61.4656 136.128C82.8917 139.389 90.6968 124.072 90.6968 124.072C71.1148 125.157 69.3674 129.027 61.4656 136.128Z" fill="white"/>
</mask>
<g mask="url(#mask6_1036_10797)">
<path d="M55.8691 143.06L61.4656 136.128C61.4656 136.128 80.7879 131.767 90.6968 124.072C100.606 116.376 92.1343 127.737 92.1343 127.737L66.63 144.3" fill="#EAEEF9"/>
</g>
<path d="M72.6194 145.438C93.2372 152.194 103.916 140.745 103.916 140.745C90.1718 135.63 81.5606 139.739 72.6194 145.438Z" fill="#D6DCF2"/>
<mask id="mask7_1036_10797" style="mask-type:luminance" maskUnits="userSpaceOnUse" x="72" y="138" width="32" height="10">
<path fill-rule="evenodd" clip-rule="evenodd" d="M72.6194 145.438C93.2372 152.194 103.916 140.745 103.916 140.745C90.1718 135.63 81.5606 139.739 72.6194 145.438Z" fill="white"/>
</mask>
<g mask="url(#mask7_1036_10797)">
<path d="M63.9609 153.838L72.6194 145.438C72.6194 145.438 94.4102 144.679 103.916 140.745C113.421 136.811 96.4579 151.52 96.4579 151.52L79.0848 155.021" fill="#EAEEF9"/>
</g>
<path d="M52.1711 95.7465C55.965 96.7822 59.6169 98.3131 63.1007 100.159L64.4001 100.867C64.8336 101.102 65.2702 101.333 65.6844 101.602L68.2043 103.159C69.8353 104.271 71.4834 105.366 73.0398 106.587C76.1849 108.987 79.1866 111.573 82.0292 114.331C84.881 117.077 87.6304 119.935 90.236 122.921C95.4813 128.861 100.371 135.136 104.72 141.776C106.889 145.099 108.972 148.478 110.914 151.939C111.889 153.667 112.831 155.413 113.758 157.167C114.653 158.939 115.556 160.705 116.361 162.522C116.361 162.522 115.111 165.353 113.988 162.271C110.686 153.21 106.1 146.429 103.483 142.628C99.0034 136.147 94.4236 129.727 89.3355 123.72C86.8053 120.706 84.1314 117.818 81.354 115.04C78.5867 112.25 75.6584 109.628 72.5843 107.188C71.0708 105.937 69.4659 104.811 67.8748 103.664L65.4145 102.056C65.0097 101.778 64.5829 101.539 64.1588 101.294L62.887 100.558C59.4757 98.6379 55.8859 97.0223 52.1315 95.8926L52.1711 95.7465Z" fill="#D6DCF2"/>
<path d="M52.4496 96.0013C42.6107 76.9529 23.2639 78.5503 23.2639 78.5503C37.6953 96.9631 43.8201 97.3315 52.4496 96.0013Z" fill="#D6DCF2"/>
<mask id="mask8_1036_10797" style="mask-type:luminance" maskUnits="userSpaceOnUse" x="23" y="78" width="30" height="19">
<path fill-rule="evenodd" clip-rule="evenodd" d="M52.4496 96.0013C42.6107 76.9529 23.2639 78.5503 23.2639 78.5503C37.6953 96.9631 43.8201 97.3315 52.4496 96.0013Z" fill="white"/>
</mask>
<g mask="url(#mask8_1036_10797)">
<path d="M5.98962 85.482L23.2639 78.5503C23.2639 78.5503 40.6936 90.9802 52.4496 96.0013C64.2056 101.022 30.7545 104.707 30.7545 104.707L17.7846 93.9819" fill="#EAEEF9"/>
</g>
<path d="M210.149 52.8654C206.025 52.056 183.753 60.7844 182.3 66.2883C182.616 66.2136 212.482 53.9798 210.149 52.8654Z" fill="#D6DCF2"/>
<path d="M207.773 61.8955C207.377 59.9519 180.436 71.1162 174.684 76.0536C174.359 76.3218 174.062 76.6237 173.799 76.9544C170.564 81.2665 171.59 80.7325 171.59 80.7325C171.59 80.7325 208.074 63.3758 207.773 61.8955Z" fill="#D6DCF2"/>
<path d="M202.05 74.2039C202.931 72.4314 171.503 84.6218 165.751 89.5593C165.425 89.8274 165.129 90.1294 164.866 90.4601C161.63 94.7722 163.55 92.2802 163.55 92.2802C163.55 92.2802 200.737 76.8453 202.05 74.2039Z" fill="#D6DCF2"/>
<path d="M200.161 88.6112C201.042 86.8387 159.516 95.9758 157.923 99.5963C157.718 100.061 157.241 100.228 157.038 100.497C153.803 104.809 155.722 102.317 155.722 102.317C155.722 102.317 198.848 91.2526 200.161 88.6112Z" fill="#D6DCF2"/>
<path d="M194.17 100.509C193.249 98.7572 150.755 106.355 149.162 109.975C148.958 110.44 148.48 110.606 148.278 110.876C145.042 115.188 146.961 112.696 146.961 112.696C146.961 112.696 195.502 103.04 194.17 100.509Z" fill="#D6DCF2"/>
<path d="M185.533 112.384C184.612 110.632 142.118 118.23 140.525 121.85C140.321 122.315 139.843 122.482 139.641 122.751C136.405 127.063 138.324 124.571 138.324 124.571C138.324 124.571 186.865 114.915 185.533 112.384Z" fill="#D6DCF2"/>
<path d="M178.723 126.824C177.802 125.073 140.712 126.189 131.841 132.594C131.502 132.847 131.203 133.151 130.957 133.495C127.721 137.807 130.513 134.087 130.513 134.087C130.513 134.087 180.055 129.356 178.723 126.824Z" fill="#D6DCF2"/>
<path d="M186.341 31.3762C188.296 31.2677 184.527 60.5123 181.285 67.4087C181.113 67.7956 180.9 68.1632 180.652 68.5055C177.364 72.777 177.612 71.6356 177.612 71.6356C177.612 71.6356 184.851 31.4587 186.341 31.3762Z" fill="#D6DCF2"/>
<path d="M177.566 40.7758C179.033 39.4599 175.43 73.3626 172.189 80.2591C172.016 80.646 171.804 81.0136 171.555 81.3559C168.268 85.6274 170.155 83.1106 170.155 83.1106C170.155 83.1106 175.381 42.7367 177.566 40.7758Z" fill="#D6DCF2"/>
<path d="M162.47 47.9775C163.936 46.6615 165.827 89.6766 162.78 92.1622C162.388 92.4815 162.352 92.9921 162.146 93.259C158.858 97.5305 160.746 95.0138 160.746 95.0138C160.746 95.0138 160.285 49.9384 162.47 47.9775Z" fill="#D6DCF2"/>
<path d="M152.699 56.3817C154.606 56.8368 158.213 100.407 155.165 102.892C154.774 103.212 154.737 103.722 154.532 103.989C151.244 108.261 153.131 105.744 153.131 105.744C153.131 105.744 149.944 55.7238 152.699 56.3817Z" fill="#D6DCF2"/>
<path d="M143.63 67.4896C145.537 67.9447 149.144 111.515 146.096 114C145.705 114.32 145.668 114.83 145.463 115.097C142.175 119.369 144.063 116.852 144.063 116.852C144.063 116.852 140.875 66.8317 143.63 67.4896Z" fill="#D6DCF2"/>
<path d="M131.065 76.8108C132.971 77.2659 141.382 113.887 137.537 124.213C137.383 124.61 137.169 124.98 136.903 125.31C133.616 129.582 136.452 125.896 136.452 125.896C136.452 125.896 128.309 76.1529 131.065 76.8108Z" fill="#D6DCF2"/>
<path d="M123.123 87.1842C125.03 87.6393 133.44 124.26 129.595 134.587C129.441 134.983 129.227 135.353 128.961 135.684C125.674 139.955 128.51 136.27 128.51 136.27C128.51 136.27 120.367 86.5263 123.123 87.1842Z" fill="#D6DCF2"/>
<path d="M119.913 143.995C143.462 119.497 184.195 62.8324 184.603 62.2629L185.958 63.2614C185.549 63.832 144.747 120.595 121.113 145.18L119.913 143.995Z" fill="#D6DCF2"/>
<path d="M199.291 37.2699C199.46 41.5222 188.236 64.9507 182.647 65.5779C182.768 65.2729 198.555 34.765 199.291 37.2699Z" fill="#D6DCF2"/>
<path d="M73.5511 45.7314C73.9266 45.4178 82.7221 37.9661 79.8351 31.6768L79.4299 31.8676C82.1702 37.8398 73.3555 45.3083 73.2646 45.3834L73.5511 45.7314Z" fill="white" stroke="black" stroke-width="0.2"/>
<ellipse cx="79.6319" cy="31.772" rx="1.36885" ry="1.38463" fill="white" stroke="black" stroke-width="0.2"/>
<path d="M73.6035 45.3066C74.0523 45.1131 84.5769 40.4915 83.5744 33.6316L83.1307 33.6978C84.0861 40.2159 73.5353 44.8437 73.4288 44.8896L73.6035 45.3066Z" fill="white" stroke="black" stroke-width="0.2"/>
<ellipse cx="83.3518" cy="33.6649" rx="1.36885" ry="1.38463" fill="white" stroke="black" stroke-width="0.2"/>
<path d="M63.2313 31.4064C66 25.9667 71.4187 20.8159 75.069 22.3154C78.7193 23.8149 73.3899 45.2305 70.2506 47.6675C67.1114 50.1044 63.2313 31.4064 63.2313 31.4064Z" fill="#FDD504" stroke="black" stroke-width="0.2"/>
<path d="M73.1136 48.0633L66.7764 54.9596C66.5937 55.1586 66.3401 55.2761 66.0715 55.286C65.8029 55.2959 65.5414 55.1975 65.3448 55.0125C64.935 54.6268 64.9116 53.9793 65.2925 53.5645L71.6297 46.6681C71.8124 46.4691 72.066 46.3517 72.3346 46.3417C72.6033 46.3318 72.8647 46.4302 73.0613 46.6152C73.4711 47.0009 73.4945 47.6485 73.1136 48.0633Z" fill="#485065"/>
<mask id="mask9_1036_10797" style="mask-type:luminance" maskUnits="userSpaceOnUse" x="65" y="46" width="9" height="10">
<path fill-rule="evenodd" clip-rule="evenodd" d="M73.1136 48.0633L66.7764 54.9596C66.5937 55.1586 66.3401 55.2761 66.0715 55.286C65.8029 55.2959 65.5414 55.1975 65.3448 55.0125C64.935 54.6268 64.9116 53.9793 65.2925 53.5645L71.6297 46.6681C71.8124 46.4691 72.066 46.3517 72.3346 46.3417C72.6033 46.3318 72.8647 46.4302 73.0613 46.6152C73.4711 47.0009 73.4945 47.6485 73.1136 48.0633Z" fill="white"/>
</mask>
<g mask="url(#mask9_1036_10797)">
<ellipse cx="67.7596" cy="49.1039" rx="4.03136" ry="5.30238" fill="#232C3F"/>
</g>
<path fill-rule="evenodd" clip-rule="evenodd" d="M73.1136 48.0633L66.7764 54.9596C66.5937 55.1586 66.3401 55.2761 66.0715 55.286C65.8029 55.2959 65.5414 55.1975 65.3448 55.0125V55.0125C64.935 54.6268 64.9116 53.9793 65.2925 53.5645L71.6297 46.6681C71.8124 46.4691 72.066 46.3517 72.3346 46.3417C72.6033 46.3318 72.8647 46.4302 73.0613 46.6152V46.6152C73.4711 47.0009 73.4945 47.6485 73.1136 48.0633V48.0633Z" stroke="black" stroke-width="0.2"/>
<ellipse cx="73.4077" cy="46.2381" rx="1.61672" ry="1.63535" fill="#485065" stroke="black" stroke-width="0.2"/>
<ellipse cx="65.107" cy="55.2713" rx="1.3787" ry="1.39458" fill="#485065" stroke="black" stroke-width="0.2"/>
<path d="M65.0961 38.7693C62.7296 35.9346 59.0373 34.5492 55.4369 35.2576C46.5029 37.0153 46.9367 49.4307 57.0338 52.8712C69.3427 57.0653 71.1774 46.7045 71.1774 46.7045L65.0961 38.7693Z" fill="#FDD504"/>
<mask id="mask10_1036_10797" style="mask-type:luminance" maskUnits="userSpaceOnUse" x="49" y="35" width="23" height="19">
<path fill-rule="evenodd" clip-rule="evenodd" d="M65.0961 38.7693C62.7296 35.9346 59.0373 34.5492 55.4369 35.2576C46.5029 37.0153 46.9367 49.4307 57.0338 52.8712C69.3427 57.0653 71.1774 46.7045 71.1774 46.7045L65.0961 38.7693Z" fill="white"/>
</mask>
<g mask="url(#mask10_1036_10797)">
<path d="M73.0614 46.6152C56.489 46.9352 58.4634 32.3851 58.4634 32.3851L69.2031 35.9829" fill="#FCB006"/>
</g>
<path fill-rule="evenodd" clip-rule="evenodd" d="M65.0961 38.7693C62.7296 35.9346 59.0373 34.5492 55.4369 35.2576C46.5029 37.0153 46.9367 49.4307 57.0338 52.8712C69.3427 57.0653 71.1774 46.7045 71.1774 46.7045L65.0961 38.7693Z" stroke="black" stroke-width="0.2"/>
<path d="M71.1267 46.929C72.3678 41.4644 75.9915 23.579 69.9586 22.338C65.3443 21.3888 50.7581 40.2089 71.1267 46.929Z" fill="#FDD504" stroke="black" stroke-width="0.2"/>
<path d="M62.7276 48.5293C61.2076 48.6754 59.7034 48.122 58.6333 47.0229" stroke="black" stroke-width="0.2"/>
<path d="M69.2197 32.5591C69.5803 33.3123 69.7911 34.1295 69.8404 34.9646" stroke="black" stroke-width="0.2"/>
<path d="M64.9379 54.8862L64.8588 54.9662" stroke="black" stroke-width="0.2"/>
<path d="M74.9143 27.0408C75.0336 27.4594 75.1085 27.8896 75.1376 28.3242" stroke="black" stroke-width="0.2"/>
<path d="M154.184 185.933C125.684 150.659 193.362 130.373 182.66 84.5164C182.66 84.5164 190.259 84.8533 192.063 88.1375C192.063 88.1375 199.638 81.0825 205.41 86.7995C205.41 86.7995 208.898 84.9749 210.341 85.7047C210.341 85.7047 214.429 90.0836 210.341 99.9362C206.252 109.789 227.416 123.899 204.328 176.932C202.404 180.581 211.062 185.933 208.657 189.339H157.673C155.791 189.337 154.248 187.831 154.184 185.933H154.184Z" fill="#FDD504"/>
<mask id="mask11_1036_10797" style="mask-type:luminance" maskUnits="userSpaceOnUse" x="147" y="84" width="69" height="106">
<path fill-rule="evenodd" clip-rule="evenodd" d="M154.184 185.933C125.684 150.659 193.362 130.373 182.66 84.5164C182.66 84.5164 190.259 84.8533 192.063 88.1375C192.063 88.1375 199.638 81.0825 205.41 86.7995C205.41 86.7995 208.898 84.9749 210.341 85.7047C210.341 85.7047 214.429 90.0836 210.341 99.9362C206.252 109.789 227.416 123.899 204.328 176.932C202.404 180.581 211.062 185.933 208.657 189.339H157.673C155.791 189.337 154.248 187.831 154.184 185.933H154.184Z" fill="white"/>
</mask>
<g mask="url(#mask11_1036_10797)">
<path d="M161.483 140.137C198.196 131.351 192.146 176.506 192.146 176.506C192.146 176.506 210.034 178.057 201.683 198.4C194.912 214.895 184.21 201.806 182.286 201.806C180.362 201.806 150.54 193.292 150.059 192.075C149.578 190.859 146.792 143.907 146.792 143.907" fill="#FCB006"/>
<path d="M179.398 129.959C169.739 128.7 169.66 123.1 160.937 118.948C152.215 114.797 152.406 101.991 164.294 102.822C176.182 103.653 172.309 111.893 182.704 112.32C193.098 112.747 193.502 131.799 179.398 129.959Z" fill="#FCB006" stroke="black" stroke-width="0.2"/>
<path d="M213.402 136.858C207.984 136.151 207.939 133.009 203.046 130.681C198.153 128.352 198.261 121.168 204.929 121.634C211.598 122.1 209.426 126.723 215.256 126.962C221.087 127.202 221.314 137.889 213.402 136.858Z" fill="#FCB006" stroke="black" stroke-width="0.2"/>
<path d="M187.965 94.1826C182.547 93.4759 182.502 90.3345 177.609 88.0057C172.716 85.6768 172.824 78.4932 179.492 78.9592C186.161 79.4252 183.989 84.0478 189.819 84.2873C195.65 84.5269 195.877 95.2145 187.965 94.1826Z" fill="#FCB006" stroke="black" stroke-width="0.2"/>
<path d="M215.356 172.273C209.938 171.566 209.893 168.425 205 166.096C200.107 163.767 200.214 156.584 206.883 157.05C213.552 157.516 211.38 162.138 217.21 162.378C223.041 162.617 223.268 173.305 215.356 172.273Z" fill="#FCB006" stroke="black" stroke-width="0.2"/>
</g>
<path fill-rule="evenodd" clip-rule="evenodd" d="M154.184 185.933C125.684 150.659 193.362 130.373 182.66 84.5164C182.66 84.5164 190.259 84.8533 192.063 88.1375C192.063 88.1375 199.638 81.0825 205.41 86.7995C205.41 86.7995 208.898 84.9749 210.341 85.7047C210.341 85.7047 214.429 90.0836 210.341 99.9362C206.252 109.789 227.416 123.899 204.328 176.932C202.404 180.581 211.062 185.933 208.657 189.339H157.673C155.791 189.337 154.248 187.831 154.184 185.933H154.184Z" stroke="black" stroke-width="0.2"/>
<path d="M125.65 111.998C160.362 125.221 122.064 179.659 152.378 183.533L159.114 189.339C107.693 181.044 155.134 134.939 124.49 114.239C123.25 113.401 124.255 111.466 125.65 111.998Z" fill="#FDD504"/>
<mask id="mask12_1036_10797" style="mask-type:luminance" maskUnits="userSpaceOnUse" x="123" y="111" width="37" height="79">
<path fill-rule="evenodd" clip-rule="evenodd" d="M125.65 111.998C160.362 125.221 122.064 179.659 152.378 183.533L159.114 189.339C107.693 181.044 155.134 134.939 124.49 114.239C123.25 113.401 124.255 111.466 125.65 111.998Z" fill="white"/>
</mask>
<g mask="url(#mask12_1036_10797)">
<path d="M136.25 150.453C126.592 149.194 126.512 143.594 117.789 139.442C109.067 135.291 109.259 122.485 121.147 123.316C133.034 124.146 129.162 132.387 139.556 132.814C149.95 133.241 150.354 152.293 136.25 150.453Z" fill="#FCB006" stroke="black" stroke-width="0.2"/>
<path d="M138.896 194.972C129.237 193.712 129.158 188.112 120.435 183.961C111.712 179.81 111.904 167.004 123.792 167.835C135.68 168.665 131.807 176.906 142.201 177.333C152.595 177.76 152.999 196.812 138.896 194.972Z" fill="#FCB006" stroke="black" stroke-width="0.2"/>
<path d="M122.06 119.239C112.402 117.979 112.323 112.379 103.6 108.228C94.8773 104.077 95.0689 91.2708 106.957 92.1015C118.845 92.9322 114.972 101.173 125.366 101.6C135.76 102.027 136.164 121.079 122.06 119.239Z" fill="#FCB006" stroke="black" stroke-width="0.2"/>
</g>
<path fill-rule="evenodd" clip-rule="evenodd" d="M125.65 111.998C160.362 125.221 122.064 179.659 152.378 183.533L159.114 189.339C107.693 181.044 155.134 134.939 124.49 114.239C123.25 113.401 124.255 111.466 125.65 111.998Z" stroke="black" stroke-width="0.2"/>
<path d="M164.709 135.457C164.411 135.697 163.849 136.663 163.543 136.928C140.041 157.26 146.694 176.689 151.415 185.047C152.929 187.727 155.735 189.39 158.784 189.5L201.574 189.339C201.574 189.339 203.811 175.533 188.936 180.581C188.936 180.581 190.355 152.675 183.191 141.344" fill="#FDD504"/>
<mask id="mask13_1036_10797" style="mask-type:luminance" maskUnits="userSpaceOnUse" x="146" y="135" width="56" height="55">
<path fill-rule="evenodd" clip-rule="evenodd" d="M164.709 135.457C164.411 135.697 163.849 136.663 163.543 136.928C140.041 157.26 146.694 176.689 151.415 185.047C152.929 187.727 155.735 189.39 158.784 189.5L201.574 189.339C201.574 189.339 203.811 175.533 188.936 180.581C188.936 180.581 190.355 152.675 183.191 141.344" fill="white"/>
</mask>
<g mask="url(#mask13_1036_10797)">
<path d="M168.926 153.504C162.113 160.962 157.414 157.687 148.758 162.623C140.102 167.559 129.578 159.751 137.365 150.142C145.152 140.533 149.686 148.744 156.245 140.164C162.805 131.584 178.874 142.614 168.926 153.504Z" fill="#FCB006" stroke="black" stroke-width="0.2"/>
<path d="M181.302 211.188C171.346 209.889 171.264 204.117 162.273 199.838C153.282 195.559 153.479 182.359 165.733 183.215C177.987 184.071 173.995 192.565 184.709 193.005C195.423 193.446 195.84 213.084 181.302 211.188Z" fill="#FCB006" stroke="black" stroke-width="0.2"/>
</g>
<path d="M164.709 135.457C164.411 135.697 163.849 136.663 163.543 136.928C140.041 157.26 146.694 176.689 151.415 185.047C152.929 187.727 155.735 189.39 158.784 189.5L201.574 189.339C201.574 189.339 203.811 175.533 188.936 180.581C188.936 180.581 190.355 152.675 183.191 141.344" stroke="black" stroke-width="0.2"/>
<path d="M203.821 90.5235C200.282 95.5037 196.926 94.3117 195.646 93.5687C195.489 93.4809 195.373 93.3329 195.324 93.158C195.276 92.9831 195.299 92.796 195.389 92.6386C196.192 91.2478 198.713 87.8466 203.47 89.4902C203.894 89.6366 204.083 90.1558 203.821 90.5235Z" fill="white"/>
<mask id="mask14_1036_10797" style="mask-type:luminance" maskUnits="userSpaceOnUse" x="195" y="89" width="9" height="6">
<path fill-rule="evenodd" clip-rule="evenodd" d="M203.821 90.5235C200.282 95.5037 196.926 94.3117 195.646 93.5687C195.489 93.4809 195.373 93.3329 195.324 93.158C195.276 92.9831 195.299 92.796 195.389 92.6386C196.192 91.2478 198.713 87.8466 203.47 89.4902C203.894 89.6366 204.083 90.1558 203.821 90.5235Z" fill="white"/>
</mask>
<g mask="url(#mask14_1036_10797)">
<ellipse cx="3.00451" cy="3.51255" rx="3.00451" ry="3.51255" transform="matrix(0.99999 -0.00448426 0.00440329 0.99999 194.1 89.2804)" fill="#485065" stroke="black" stroke-width="0.2"/>
</g>
<path fill-rule="evenodd" clip-rule="evenodd" d="M203.821 90.5235C200.282 95.5037 196.926 94.3117 195.646 93.5687C195.489 93.4809 195.373 93.3329 195.324 93.158C195.276 92.9831 195.299 92.796 195.389 92.6386C196.192 91.2478 198.713 87.8466 203.47 89.4902C203.894 89.6366 204.083 90.1558 203.821 90.5235Z" stroke="black" stroke-width="0.2"/>
<path d="M192.267 99.4305L204.629 92.3187" stroke="black" stroke-width="0.2"/>
<path d="M195.389 102.783L205.063 92.6908" stroke="black" stroke-width="0.2"/>
<path d="M198.196 105.713L205.591 93.2546" stroke="black" stroke-width="0.2"/>
<path d="M203.768 142.848C202.228 143.768 200.397 144.058 198.651 143.659" stroke="black" stroke-width="0.2"/>
<path d="M170.026 165.38C169.982 167.752 168.659 170.059 166.646 171.275" stroke="black" stroke-width="0.2"/>
<path d="M190.299 105.351C190.728 106.384 191.383 107.306 192.215 108.048" stroke="black" stroke-width="0.2"/>
<path d="M118.588 11.4954C113.935 10.0091 114.763 -0.651816 123.88 0.602315C132.996 1.85645 131.392 18.7876 145.636 17.8122C160.431 16.799 159.44 52.5965 139.768 47.702C125.362 44.1176 118.588 11.4954 118.588 11.4954Z" fill="#485065"/>
<mask id="mask15_1036_10797" style="mask-type:luminance" maskUnits="userSpaceOnUse" x="115" y="0" width="41" height="49">
<path fill-rule="evenodd" clip-rule="evenodd" d="M118.588 11.4954C113.935 10.0091 114.763 -0.651816 123.88 0.602315C132.996 1.85645 131.392 18.7876 145.636 17.8122C160.431 16.799 159.44 52.5965 139.768 47.702C125.362 44.1176 118.588 11.4954 118.588 11.4954Z" fill="white"/>
</mask>
<g mask="url(#mask15_1036_10797)">
<path d="M148.891 47.769C150.277 39.1376 132.328 36.4371 133.663 32.7719C134.998 29.1067 136.339 24.9779 132.359 23.3336C128.38 21.6893 125.453 30.6105 125.453 30.6105L124.029 37.7832L126.499 43.2935L149.202 49.119" fill="#323442"/>
</g>
<path fill-rule="evenodd" clip-rule="evenodd" d="M118.588 11.4954C113.935 10.0091 114.763 -0.651815 123.88 0.602315C132.996 1.85645 131.392 18.7876 145.636 17.8122C160.431 16.799 159.44 52.5965 139.768 47.702C125.362 44.1176 118.588 11.4954 118.588 11.4954Z" stroke="black" stroke-width="0.2"/>
<path d="M116.831 10.1475C116.831 10.1475 121.465 7.05876 125.453 9.47413L124.97 11.456L118.07 11.8585L116.831 10.1475Z" fill="#FDD504" stroke="black" stroke-width="0.2"/>
<path d="M89.7688 89.8684C88.8048 85.9388 73.7553 34.3697 124.206 34.5268C174.657 34.684 155.756 94.1023 155.756 94.1023L89.7688 89.8684Z" fill="#FDD504"/>
<mask id="mask16_1036_10797" style="mask-type:luminance" maskUnits="userSpaceOnUse" x="86" y="34" width="74" height="61">
<path fill-rule="evenodd" clip-rule="evenodd" d="M89.7688 89.8684C88.8048 85.9388 73.7553 34.3697 124.206 34.5268C174.657 34.684 155.756 94.1023 155.756 94.1023L89.7688 89.8684Z" fill="white"/>
</mask>
<g mask="url(#mask16_1036_10797)">
<ellipse cx="123.233" cy="35.1661" rx="12.9776" ry="9.60596" fill="white" stroke="black" stroke-width="0.2"/>
<ellipse cx="123.233" cy="35.1662" rx="9.6757" ry="7.16191" fill="#F9C1BB"/>
<mask id="mask17_1036_10797" style="mask-type:luminance" maskUnits="userSpaceOnUse" x="113" y="28" width="20" height="15">
<ellipse cx="123.233" cy="35.1662" rx="9.6757" ry="7.16191" fill="white"/>
</mask>
<g mask="url(#mask17_1036_10797)">
<ellipse cx="117.623" cy="34.7336" rx="11.9305" ry="5.85284" fill="#ED707B"/>
</g>
<ellipse cx="123.233" cy="35.1662" rx="9.6757" ry="7.16191" stroke="black" stroke-width="0.2"/>
<path d="M148.425 54.3613C148.348 57.4756 146.902 66.4692 146.902 66.4692L149.269 60.0872L148.425 54.3613Z" fill="#FDD504" stroke="black" stroke-width="0.2"/>
<path d="M64.7205 77.2021C75.9088 68.9492 87.0448 71.4999 92.2659 76.2725C97.4869 81.0451 99.3839 79.2716 99.3839 79.2716L143.038 80.8951C143.038 80.8951 148.607 74.4539 154.226 75.2365C159.846 76.019 166.276 70.8354 167.399 71.2545C168.522 71.6737 170.885 79.2716 170.885 79.2716L168.024 85.7154L143.867 100.344L104.939 102.062L64.7205 77.2021Z" fill="#FDD504" stroke="black" stroke-width="0.2"/>
</g>
<path fill-rule="evenodd" clip-rule="evenodd" d="M89.7688 89.8684C88.8048 85.9388 73.7553 34.3697 124.206 34.5268C174.657 34.684 155.756 94.1023 155.756 94.1023L89.7688 89.8684Z" stroke="black" stroke-width="0.2"/>
<path d="M122.96 41.5195C122.706 48.0056 111.142 50.3141 108.669 36.2179C108.669 36.2179 115.728 32.2741 115.845 34.2231C116.217 40.4424 122.96 41.5195 122.96 41.5195Z" fill="white" stroke="black" stroke-width="0.2"/>
<path d="M122.9 41.5195C123.154 48.0056 134.228 49.8762 137.739 36.3487C137.739 36.3487 130.131 32.2741 130.015 34.2231C129.643 40.4424 122.9 41.5195 122.9 41.5195Z" fill="white" stroke="black" stroke-width="0.2"/>
<path d="M81.7618 81.5761C86.579 77.175 92.0599 72.5657 99.3838 79.2715C106.708 85.9772 108.852 81.8381 114.453 86.9203C119.377 91.3889 113.874 102.491 115.9 100.344C117.927 98.1971 129.227 83.7813 139.257 83.9338C146.146 84.0386 152.015 79.4568 152.406 79.2715C152.798 79.0861 155.841 87.2347 155.841 87.2347L147.648 95.8798L124.961 107.04L102.118 98.5519L81.7618 81.5761Z" fill="#FDD504" stroke="black" stroke-width="0.2"/>
<path d="M126.486 76.5429C126.327 78.1282 124.743 79.3038 122.936 79.2709C121.13 79.238 119.592 78.0055 119.494 76.4155C119.388 74.6996 120.977 73.2364 123.051 73.2742C125.124 73.3119 126.657 74.8321 126.486 76.5429Z" fill="#F9C1BB" stroke="black" stroke-width="0.2"/>
<path d="M162.943 104.945L166.755 104.413C166.755 104.413 173.512 112.734 155.841 116.303L162.943 104.945Z" fill="#485065" stroke="black" stroke-width="0.2"/>
<path d="M157.828 103.911C161.117 103.652 163.933 103.557 165.407 103.792C170.349 104.582 165.699 114.373 155.841 116.303C155.841 116.303 162.382 107.535 157.828 103.911Z" fill="white" stroke="black" stroke-width="0.2"/>
<path d="M137.879 106.307C137.879 106.307 149.403 104.573 157.828 103.911C162.382 107.535 155.841 116.303 155.841 116.303C155.214 116.426 154.582 116.515 153.946 116.569C142.806 117.512 133.276 116.542 131.987 115.529C130.699 114.515 137.879 106.307 137.879 106.307Z" fill="#485065" stroke="black" stroke-width="0.2"/>
<path d="M130.385 100.344C136.215 104.111 140.021 106.726 140.021 106.726C142.176 109.537 141.321 112.02 140.147 113.664C139.203 114.986 137.613 115.721 135.969 115.608C133.572 115.443 131.168 115.216 128.77 114.931C129.636 110.917 130.757 104.623 130.385 100.344Z" fill="#F9C1BB" stroke="black" stroke-width="0.2"/>
<path d="M71.2538 74.8705C76.9186 67.2078 112.83 89.001 130.385 100.344C130.757 104.623 129.636 110.917 128.77 114.931C92.5723 110.624 57.8378 93.0181 71.2538 74.8705Z" fill="#1AB995"/>
<mask id="mask18_1036_10797" style="mask-type:luminance" maskUnits="userSpaceOnUse" x="68" y="73" width="63" height="42">
<path fill-rule="evenodd" clip-rule="evenodd" d="M71.2538 74.8706C76.9186 67.2079 112.83 89.0011 130.385 100.344C130.757 104.623 129.636 110.917 128.77 114.931C92.5723 110.624 57.8378 93.0183 71.2538 74.8706Z" fill="white"/>
</mask>
<g mask="url(#mask18_1036_10797)">
<path d="M73.0081 103.911C81.633 100.976 84.3532 99.1283 103.258 103.658C108.879 105.005 118.66 94.066 123.908 91.8816C129.156 89.6973 132.504 103.658 132.504 103.658L115.379 111.703L103.465 113.17L78.2616 109.98L73.0081 103.911Z" fill="#0FA379"/>
<ellipse cx="69.8356" cy="77.1243" rx="7.79672" ry="7.88658" fill="#0FA379"/>
<path d="M62.1436 75.8907C55.9624 83.2917 108.31 112.816 122.96 114.123" stroke="white" stroke-width="0.2"/>
</g>
<path fill-rule="evenodd" clip-rule="evenodd" d="M71.2538 74.8705C76.9186 67.2078 112.83 89.001 130.385 100.344C130.757 104.623 129.636 110.917 128.77 114.931C92.5723 110.624 57.8378 93.0181 71.2538 74.8705Z" stroke="black" stroke-width="0.2"/>
<ellipse cx="122.96" cy="25.685" rx="9.5435" ry="13.5168" fill="#F9C1BB"/>
<mask id="mask19_1036_10797" style="mask-type:luminance" maskUnits="userSpaceOnUse" x="113" y="12" width="20" height="28">
<ellipse cx="122.96" cy="25.685" rx="9.5435" ry="13.5168" fill="white"/>
</mask>
<g mask="url(#mask19_1036_10797)">
<rect width="1.27995" height="2.38793" rx="0.639976" transform="matrix(0.999282 -0.0378973 0.0372141 0.999307 118.762 29.2614)" fill="black"/>
<path d="M127.019 28.9483C127.372 28.9349 127.669 29.213 127.683 29.5694L127.724 30.665C127.737 31.0214 127.461 31.3212 127.108 31.3346C126.755 31.348 126.458 31.0699 126.445 30.7135L126.404 29.6179C126.39 29.2615 126.666 28.9617 127.019 28.9483L127.019 28.9483Z" fill="black"/>
<path d="M119.186 27.7185C117.895 28.1531 118.18 28.8075 119.005 28.5891C119.829 28.3707 120.029 27.4347 119.186 27.7185Z" fill="black"/>
<path d="M126.922 27.3743C128.242 27.7099 128.006 28.3841 127.168 28.2288C126.329 28.0734 126.06 27.1551 126.922 27.3743Z" fill="black"/>
<path d="M124.338 31.8155C124.357 32.3237 123.883 32.1399 123.308 32.1617C122.732 32.1836 122.273 32.4027 122.254 31.8946C122.235 31.3865 122.687 30.9569 123.262 30.9351C123.838 30.9132 124.32 31.3074 124.338 31.8155Z" fill="#ED707B"/>
<ellipse opacity="0.27" cx="118.136" cy="33.4037" rx="1.77872" ry="1.79922" fill="#ED707B"/>
<ellipse opacity="0.27" cx="128.435" cy="33.0337" rx="1.77872" ry="1.79922" fill="#ED707B"/>
</g>
<ellipse cx="122.96" cy="25.685" rx="9.5435" ry="13.5168" stroke="black" stroke-width="0.2"/>
<path d="M114.113 24.1477C108.605 21.551 107.403 25.7004 109.935 29.1067C111.834 31.6614 113.947 31.3247 114.885 30.9966" fill="#F9C1BB"/>
<path d="M114.113 24.1477C108.605 21.551 107.403 25.7004 109.935 29.1067C111.834 31.6614 113.947 31.3247 114.885 30.9966" stroke="black" stroke-width="0.2"/>
<path d="M130.819 24.1477C136.327 21.551 137.53 25.7004 134.998 29.1067C133.374 31.2913 131.593 31.3616 130.525 31.131" fill="#F9C1BB"/>
<path d="M130.819 24.1477C136.327 21.551 137.53 25.7004 134.998 29.1067C133.374 31.2913 131.593 31.3616 130.525 31.131" stroke="black" stroke-width="0.2"/>
<path d="M120.159 17.7422C118.734 28.6114 112.372 26.9392 112.372 26.9392C112.372 26.9392 108.669 10.8677 122.343 11.0535C136.017 11.2393 132.504 25.6851 132.504 25.6851C132.504 25.6851 121.678 25.9173 120.159 17.7422Z" fill="#485065" stroke="black" stroke-width="0.2"/>
<path d="M83.3421 104.945L79.5306 104.413C79.5306 104.413 72.7735 112.734 90.4448 116.303L83.3421 104.945Z" fill="#485065" stroke="black" stroke-width="0.2"/>
<path d="M88.4576 103.911C85.1686 103.652 82.3521 103.557 80.8784 103.792C75.9367 104.582 80.5863 114.373 90.4448 116.303C90.4446 116.303 83.9036 107.535 88.4576 103.911Z" fill="white" stroke="black" stroke-width="0.2"/>
<path d="M108.407 106.307C108.407 106.307 96.8822 104.573 88.4576 103.911C83.9037 107.535 90.4446 116.303 90.4449 116.303C91.0713 116.426 91.7038 116.515 92.3397 116.569C103.48 117.512 113.009 116.542 114.298 115.529C115.587 114.515 108.407 106.307 108.407 106.307Z" fill="#485065" stroke="black" stroke-width="0.2"/>
<path d="M115.9 100.344C110.07 104.111 106.264 106.726 106.264 106.726C104.11 109.537 104.965 112.02 106.139 113.664C107.082 114.986 108.673 115.721 110.316 115.608C112.713 115.443 115.118 115.216 117.515 114.931C116.65 110.917 115.528 104.623 115.9 100.344Z" fill="#F9C1BB"/>
<mask id="mask20_1036_10797" style="mask-type:luminance" maskUnits="userSpaceOnUse" x="104" y="100" width="14" height="16">
<path fill-rule="evenodd" clip-rule="evenodd" d="M115.9 100.344C110.07 104.111 106.264 106.726 106.264 106.726C104.11 109.537 104.965 112.02 106.139 113.664C107.082 114.986 108.673 115.721 110.316 115.608C112.713 115.443 115.118 115.216 117.515 114.931C116.65 110.917 115.528 104.623 115.9 100.344Z" fill="white"/>
</mask>
<g mask="url(#mask20_1036_10797)">
<path d="M106.987 105.101C106.469 110.445 111.027 116.209 115.171 114.323C119.315 112.436 113.211 101.141 115.9 100.344C118.59 99.5474 120.351 116.952 120.351 116.952C120.351 116.952 119.211 117.466 118.175 117.885C117.139 118.305 107.505 118.305 107.505 118.305L102.222 110.358L103.258 103.658L108.407 106.307" fill="#ED707B"/>
</g>
<path fill-rule="evenodd" clip-rule="evenodd" d="M115.9 100.344C110.07 104.111 106.264 106.726 106.264 106.726C104.11 109.537 104.965 112.02 106.139 113.664C107.082 114.986 108.673 115.721 110.316 115.608C112.713 115.443 115.118 115.216 117.515 114.931C116.65 110.917 115.528 104.623 115.9 100.344Z" stroke="black" stroke-width="0.2"/>
<path d="M175.032 74.8705C169.367 67.2078 133.455 89.001 115.901 100.344C115.528 104.623 116.65 110.917 117.516 114.931C153.713 110.624 188.448 93.0181 175.032 74.8705Z" fill="#1AB995"/>
<mask id="mask21_1036_10797" style="mask-type:luminance" maskUnits="userSpaceOnUse" x="115" y="73" width="63" height="42">
<path fill-rule="evenodd" clip-rule="evenodd" d="M175.032 74.8706C169.367 67.2079 133.455 89.0011 115.901 100.344C115.528 104.623 116.65 110.917 117.516 114.931C153.713 110.624 188.448 93.0183 175.032 74.8706Z" fill="white"/>
</mask>
<g mask="url(#mask21_1036_10797)">
<path d="M145.636 80.2663C152.776 81.1046 168.475 71.9598 173.131 74.4866C177.787 77.0134 182.815 80.7446 180.329 89.966C177.843 99.1874 181.368 94.1023 181.368 94.1023L182.819 73.2734L164.729 62.6034L145.636 80.2663Z" fill="#0FA379"/>
<ellipse cx="179.429" cy="77.1243" rx="8.69766" ry="9.59451" fill="#0FA379"/>
<path d="M118.859 111.354C118.859 111.354 173.274 102.673 177.976 78.1929" stroke="white" stroke-width="0.2"/>
<path d="M120.112 95.6453C118.746 102.202 123.079 116.952 123.079 116.952L114.453 117.775L111.847 97.4492" fill="#1A80FD"/>
<path d="M120.112 95.6453C118.746 102.202 123.079 116.952 123.079 116.952L114.453 117.775L111.847 97.4492" stroke="black" stroke-width="0.2"/>
</g>
<path fill-rule="evenodd" clip-rule="evenodd" d="M175.032 74.8705C169.367 67.2078 133.455 89.001 115.901 100.344C115.528 104.623 116.65 110.917 117.516 114.931C153.713 110.624 188.448 93.0181 175.032 74.8705Z" stroke="black" stroke-width="0.2"/>
<path d="M97.4822 38.7898V54.3172L124.222 61.3793L97.4822 38.7898Z" fill="white" stroke="black" stroke-width="0.2"/>
<path d="M93.3684 38.7898V52.9082L122.9 61.3793L93.3684 38.7898Z" fill="white" stroke="black" stroke-width="0.2"/>
<path d="M89.7688 40.772V67.5662L126.352 80.4763L121.284 60.6242L89.7688 40.772Z" fill="white" stroke="black" stroke-width="0.2"/>
<path d="M148.391 38.7898V54.3172L121.651 61.3793L148.391 38.7898Z" fill="white" stroke="black" stroke-width="0.2"/>
<path d="M152.505 38.7898V52.9082L122.973 61.3793L152.505 38.7898Z" fill="white" stroke="black" stroke-width="0.2"/>
<path d="M156.104 40.772V67.5662L119.521 80.4763L124.589 60.6242L156.104 40.772Z" fill="white" stroke="black" stroke-width="0.2"/>
<path d="M87.5574 46.114L85.5815 40.8348L86.311 40.772L118.859 59.5508L119.52 61.3792L87.5574 46.114Z" fill="#FDD504" stroke="black" stroke-width="0.2"/>
<path d="M119.227 58.5697L118.859 58.7785L120.881 61.8069L129.442 60.6242L129.879 58.1097L129.688 57.9252C129.688 57.9252 125.024 60.7212 119.227 58.5697Z" fill="#FDD504" stroke="black" stroke-width="0.2"/>
<path d="M128.884 61.3793L129.879 59.3985L160.077 44.6211L160.291 45.0316L138.987 59.866L128.884 61.3793Z" fill="#FDD504" stroke="black" stroke-width="0.2"/>
<path d="M85.5815 40.8348L87.7055 79.2715L118.859 94.2976V60.1903L85.5815 40.8348Z" fill="#FDD504"/>
<mask id="mask22_1036_10797" style="mask-type:luminance" maskUnits="userSpaceOnUse" x="85" y="40" width="34" height="55">
<path fill-rule="evenodd" clip-rule="evenodd" d="M85.5815 40.8348L87.7055 79.2715L118.859 94.2976V60.1903L85.5815 40.8348Z" fill="white"/>
</mask>
<g mask="url(#mask22_1036_10797)">
<ellipse cx="87.7119" cy="70.6136" rx="4.97805" ry="6.11131" fill="#FCB006"/>
</g>
<path fill-rule="evenodd" clip-rule="evenodd" d="M85.5815 40.8348L87.7055 79.2715L118.859 94.2976V60.1903L85.5815 40.8348V40.8348Z" stroke="black" stroke-width="0.2"/>
<path d="M129.879 59.9673L160.291 45.0315V80.4763L129.879 94.2976V59.9673Z" fill="#FDD504"/>
<mask id="mask23_1036_10797" style="mask-type:luminance" maskUnits="userSpaceOnUse" x="129" y="45" width="32" height="50">
<path fill-rule="evenodd" clip-rule="evenodd" d="M129.879 59.9673L160.291 45.0315V80.4763L129.879 94.2976V59.9673Z" fill="white"/>
</mask>
<g mask="url(#mask23_1036_10797)">
<ellipse cx="160.087" cy="68.2117" rx="5.26989" ry="5.33063" fill="#FCB006"/>
<path d="M132.909 63.8227L156.104 52.8087V57.925L132.909 69.2732V63.8227Z" fill="#485065" stroke="black" stroke-width="0.2"/>
</g>
<path fill-rule="evenodd" clip-rule="evenodd" d="M129.879 59.9673L160.291 45.0315V80.4763L129.879 94.2976V59.9673V59.9673Z" stroke="black" stroke-width="0.2"/>
<path d="M118.859 58.7785C118.859 58.7785 123.781 61.9737 129.879 58.1097V95.115C129.879 95.115 123.047 97.4185 118.859 95.115V58.7785Z" fill="#FDD504" stroke="black" stroke-width="0.2"/>
<ellipse cx="88.0474" cy="68.6838" rx="4.64263" ry="5.8027" fill="#F9C1BB" stroke="black" stroke-width="0.2"/>
<ellipse cx="158.896" cy="65.6535" rx="4.64263" ry="5.8027" fill="#F9C1BB" stroke="black" stroke-width="0.2"/>
<ellipse cx="123.628" cy="34.8835" rx="1.21611" ry="0.626347" fill="#FCB006"/>
<ellipse cx="122.788" cy="47.6457" rx="0.839588" ry="0.84927" fill="black"/>
<ellipse cx="122.788" cy="52.5634" rx="0.839588" ry="0.84927" fill="black"/>
<rect x="121.651" y="64.3143" width="4.84772" height="27.7568" fill="#FDD504" stroke="black" stroke-width="0.2"/>
<path d="M125.235 14.3236C125.194 15.0663 125.373 15.8045 125.751 16.4434" stroke="black" stroke-width="0.2"/>
<path d="M144.133 25.5555C144.782 26.1615 145.268 26.9242 145.544 27.7719" stroke="black" stroke-width="0.2"/>
<path d="M102.887 71.3214C104.204 72.6572 105.712 73.7869 107.361 74.6731" stroke="black" stroke-width="0.2"/>
<path d="M144.944 94.5283L141.529 96.1109" stroke="black" stroke-width="0.2"/>
<rect x="27.0365" y="165.712" width="127.893" height="23.7317" fill="#FDD504"/>
<mask id="mask24_1036_10797" style="mask-type:luminance" maskUnits="userSpaceOnUse" x="27" y="165" width="128" height="25">
<rect x="27.0365" y="165.712" width="127.893" height="23.7317" fill="white"/>
</mask>
<g mask="url(#mask24_1036_10797)">
<rect x="43.0588" y="161.66" width="16.3085" height="30.967" fill="#E43334" stroke="black" stroke-width="0.2"/>
<path d="M75.5122 164.566C70.0874 169.506 166.088 174.452 167.804 185.376C169.521 196.3 161.644 156.631 161.644 156.631L149.135 157.595" fill="#FCB006"/>
</g>
<rect x="27.0365" y="165.712" width="127.893" height="23.7317" stroke="black" stroke-width="0.2"/>
<rect x="60.2294" y="110.338" width="127.893" height="23.7317" fill="#E43334"/>
<mask id="mask25_1036_10797" style="mask-type:luminance" maskUnits="userSpaceOnUse" x="60" y="110" width="129" height="25">
<rect x="60.2294" y="110.338" width="127.893" height="23.7317" fill="white"/>
</mask>
<g mask="url(#mask25_1036_10797)">
<rect x="172.1" y="137.253" width="16.3085" height="30.967" transform="rotate(-180 172.1 137.253)" fill="white" stroke="black" stroke-width="0.2"/>
<rect x="151.599" y="137.253" width="3.05188" height="30.967" transform="rotate(-180 151.599 137.253)" fill="white" stroke="black" stroke-width="0.2"/>
<path d="M58.8337 128.988C54.6374 132.654 141.044 132.654 139.136 134.198C137.229 135.741 62.2671 139.986 62.2671 139.986L55.4003 129.953" fill="#C11F27"/>
</g>
<rect x="60.2294" y="110.338" width="127.893" height="23.7317" stroke="black" stroke-width="0.2"/>
<path d="M180.846 148.926H67.5059C71.9196 152.905 67.5059 164.337 67.5059 164.337H180.846C180.846 164.337 176.432 152.905 180.846 148.926Z" fill="white"/>
<mask id="mask26_1036_10797" style="mask-type:luminance" maskUnits="userSpaceOnUse" x="67" y="148" width="114" height="17">
<path fill-rule="evenodd" clip-rule="evenodd" d="M180.846 148.926H67.5059C71.9196 152.905 67.5059 164.337 67.5059 164.337H180.846C180.846 164.337 176.432 152.905 180.846 148.926Z" fill="white"/>
</mask>
<g mask="url(#mask26_1036_10797)">
<path d="M65.9388 154.891L68.2271 154.931L107.425 155.614L63.65 156.631" fill="#D6DCF2"/>
<path d="M198.466 159.308L196.178 159.268L156.98 158.585L200.755 157.568" fill="#D6DCF2"/>
</g>
<path fill-rule="evenodd" clip-rule="evenodd" d="M180.846 148.926H67.5059C71.9196 152.905 67.5059 164.337 67.5059 164.337H180.846C180.846 164.337 176.432 152.905 180.846 148.926Z" stroke="black" stroke-width="0.2"/>
<rect x="63.0906" y="146.031" width="122.17" height="4.34116" fill="#1AB995" stroke="black" stroke-width="0.2"/>
<rect x="63.0906" y="161.37" width="122.17" height="4.34116" fill="#1AB995" stroke="black" stroke-width="0.2"/>
<rect x="31.8051" y="140.05" width="135.999" height="7.33176" fill="#7A24EA"/>
<mask id="mask27_1036_10797" style="mask-type:luminance" maskUnits="userSpaceOnUse" x="31" y="140" width="137" height="8">
<rect x="31.8051" y="140.05" width="135.999" height="7.33174" fill="white"/>
</mask>
<g mask="url(#mask27_1036_10797)">
<path d="M99.8047 138.828C80.9598 144.906 169.083 141.658 171.658 143.716C174.233 145.774 173.374 137.735 173.374 137.735L148.196 134.777" fill="#6B1AD3"/>
</g>
<rect x="31.8051" y="140.05" width="135.999" height="7.33176" stroke="black" stroke-width="0.2"/>
<rect x="42.8681" y="134.069" width="135.999" height="7.33176" fill="#1A80FD" stroke="black" stroke-width="0.2"/>
<path d="M105.534 179.568L108.346 181.828" stroke="black" stroke-width="0.2"/>
<path d="M98.2816 121.606L103.326 121.008" stroke="black" stroke-width="0.2"/>
</svg>
