<svg width="355" height="355" viewBox="0 0 355 355" fill="none" xmlns="http://www.w3.org/2000/svg">
<rect x="0.5" y="0.928711" width="354" height="353.143" rx="176.571" fill="#F3ECFE"/>
<rect x="108" y="11.4287" width="139" height="139" rx="69.5" fill="#8801C8"/>
<path d="M206.667 43.4287C209.982 43.4287 213.161 44.7457 215.506 47.0899C217.85 49.4341 219.167 52.6135 219.167 55.9287V97.5954C219.167 100.911 217.85 104.09 215.506 106.434C213.161 108.778 209.982 110.095 206.667 110.095H158.054L144.167 120.512C140.733 123.087 135.833 120.637 135.833 116.345V55.9287C135.833 52.6135 137.15 49.4341 139.495 47.0899C141.839 44.7457 145.018 43.4287 148.333 43.4287H206.667ZM206.667 51.762H148.333C147.228 51.762 146.168 52.201 145.387 52.9824C144.606 53.7638 144.167 54.8236 144.167 55.9287V110.095L153.054 103.429C154.497 102.347 156.251 101.762 158.054 101.762H206.667C207.772 101.762 208.832 101.323 209.613 100.542C210.394 99.7603 210.833 98.7004 210.833 97.5954V55.9287C210.833 54.8236 210.394 53.7638 209.613 52.9824C208.832 52.201 207.772 51.762 206.667 51.762ZM173.333 80.9287C174.395 80.9299 175.417 81.3365 176.189 82.0656C176.961 82.7946 177.426 83.791 177.488 84.8512C177.55 85.9114 177.206 86.9553 176.524 87.7697C175.842 88.5841 174.875 89.1074 173.821 89.2329L173.333 89.262H160.833C159.771 89.2609 158.75 88.8542 157.978 88.1252C157.205 87.3961 156.741 86.3997 156.678 85.3396C156.616 84.2794 156.961 83.2355 157.643 82.4211C158.324 81.6067 159.291 81.0833 160.346 80.9579L160.833 80.9287H173.333ZM194.167 64.262C195.272 64.262 196.332 64.701 197.113 65.4824C197.894 66.2638 198.333 67.3236 198.333 68.4287C198.333 69.5338 197.894 70.5936 197.113 71.375C196.332 72.1564 195.272 72.5954 194.167 72.5954H160.833C159.728 72.5954 158.668 72.1564 157.887 71.375C157.106 70.5936 156.667 69.5338 156.667 68.4287C156.667 67.3236 157.106 66.2638 157.887 65.4824C158.668 64.701 159.728 64.262 160.833 64.262H194.167Z" fill="white"/>
<rect x="108" y="11.4287" width="139" height="139" rx="69.5" stroke="#CCE2D3"/>
<rect x="107.5" y="160.929" width="140" height="140" rx="70" fill="#8801C8"/>
<path d="M156.071 191.116C161.333 194.954 165.317 200.346 168.708 205.3L171.367 209.208C172.192 210.415 172.57 211.872 172.434 213.327C172.299 214.783 171.659 216.146 170.625 217.179L164.975 222.829L165.571 224.096C167.029 227.05 169.546 231.304 173.333 235.096C175.949 237.672 178.897 239.886 182.1 241.679L183.629 242.5L184.992 243.175L185.6 243.454L191.246 237.804C192.283 236.768 193.652 236.129 195.112 235.999C196.573 235.868 198.033 236.255 199.237 237.091L203.462 240.021C208.262 243.396 213.275 247.242 217.171 252.233C217.844 253.099 218.273 254.131 218.411 255.219C218.55 256.308 218.393 257.413 217.958 258.421C214.471 266.558 205.646 273.487 196.467 273.146L195.217 273.079L194.246 272.996L193.171 272.871L192 272.712L190.729 272.5L189.371 272.233L187.929 271.912L186.404 271.521L184.8 271.062L183.125 270.521C175.433 267.912 165.671 262.787 155.654 252.771C145.642 242.758 140.517 232.996 137.908 225.304L137.367 223.629L136.908 222.025L136.517 220.5L136.192 219.058C136.098 218.607 136.01 218.154 135.929 217.7L135.721 216.429L135.554 215.258L135.433 214.183L135.35 213.212L135.283 211.962C134.946 202.812 141.95 193.925 150.05 190.454C151.025 190.033 152.092 189.873 153.148 189.989C154.204 190.105 155.211 190.494 156.071 191.116ZM152.208 198.65C147.742 200.983 143.417 206.316 143.612 211.654L143.696 213.021L143.787 213.875L143.908 214.833L144.075 215.887L144.287 217.041L144.558 218.283L144.892 219.616L145.292 221.029L145.767 222.521C145.942 223.029 146.125 223.55 146.325 224.083L146.967 225.716L147.7 227.412C150.317 233.171 154.583 239.912 161.554 246.879C168.521 253.846 175.262 258.116 181.021 260.733L182.717 261.466L184.35 262.108C184.883 262.308 185.404 262.492 185.912 262.666L187.404 263.142L188.821 263.541L190.15 263.875L191.392 264.146L192.546 264.358L193.604 264.525L194.562 264.65L195.412 264.733L196.779 264.816C202.046 265.012 207.421 260.712 209.746 256.304C206.779 252.825 203.096 249.971 199.033 247.096L195.917 244.925L195.125 245.754L193.433 247.6L192.537 248.541C190.096 251.029 187.246 253.141 183.829 251.762L182.887 251.367L181.737 250.85L181.096 250.546L179.687 249.841L178.142 249.008C174.23 246.831 170.632 244.133 167.446 240.987C164.3 237.802 161.602 234.203 159.425 230.291L158.592 228.75L157.883 227.337L157.067 225.546L156.667 224.596C155.371 221.391 157.154 218.687 159.433 216.346L160.367 215.429L162.687 213.291L163.521 212.5L161.55 209.612C158.621 205.362 155.758 201.529 152.204 198.646L152.208 198.65ZM189.971 206.096L190.454 206.15C193.487 206.685 196.273 208.166 198.412 210.382C200.551 212.597 201.934 215.433 202.362 218.483C202.515 219.538 202.258 220.611 201.643 221.482C201.029 222.353 200.104 222.956 199.059 223.165C198.014 223.375 196.928 223.176 196.025 222.61C195.122 222.044 194.47 221.153 194.204 220.121L194.108 219.641C193.941 218.446 193.43 217.325 192.639 216.413C191.848 215.501 190.81 214.838 189.65 214.504L189.004 214.358C187.958 214.173 187.022 213.595 186.388 212.742C185.754 211.889 185.469 210.827 185.593 209.771C185.716 208.716 186.238 207.748 187.052 207.064C187.866 206.381 188.91 206.035 189.971 206.096ZM190 193.429C196.63 193.429 202.989 196.063 207.678 200.751C212.366 205.44 215 211.799 215 218.429C214.999 219.491 214.592 220.512 213.863 221.285C213.134 222.057 212.138 222.522 211.078 222.584C210.017 222.646 208.973 222.301 208.159 221.62C207.345 220.938 206.821 219.971 206.696 218.916L206.667 218.429C206.668 214.197 205.059 210.124 202.167 207.035C199.274 203.947 195.314 202.075 191.092 201.8L190 201.762C188.895 201.762 187.835 201.323 187.054 200.542C186.272 199.761 185.833 198.701 185.833 197.596C185.833 196.491 186.272 195.431 187.054 194.649C187.835 193.868 188.895 193.429 190 193.429Z" fill="white"/>
</svg>
